{
.appVersion = "1075";
classes = (
{
code = "";
name = DevaIMatras;
},
{
automatic = 1;

glyphs = (
{
glyphname = A;
lastChange = "2018-02-22 22:14:52 +0000";
layers = (
{
anchors = (
{
name = bottom;
position = "{271, 0}";
},
{
name = ogonek;
position = "{492, 0}";
},
{
name = top;
position = "{382, 603}";
}
);
background = {
paths = (
{
closed = 1;
nodes = (
"75 58 LINE",
"12 38 LINE",
"6 0 LINE",
"218 0 LINE",
"226 46 LINE",
"162 63 LINE"
);
},
{
closed = 1;
nodes = (
"415 63 LINE",
"351 46 LINE",
"344 0 LINE",
"556 0 LINE",
"562 38 LINE",
"506 58 LINE"
);
}
);
};
layerId = "D9712079-C16A-42CB-8BA4-BD9ECFFACF10";
paths = (
{
closed = 1;
nodes = (
"137 0 LINE",
"229 229 LINE",
"365 545 LINE",
"371 545 LINE",
"393 232 LINE",
"423 0 LINE",
"513 0 LINE",
"438 600 LINE",
"426 612 LINE",
"322 603 LINE",
"49 0 LINE"
);
},
{
closed = 1;
nodes = (
"218 0 LINE",
"226 46 LINE",
"124 73 LINE",
"12 38 LINE",
"6 0 LINE"
);
},
{
closed = 1;
nodes = (
"556 0 LINE",
"562 38 LINE",
"459 75 LINE",
"351 46 LINE",
"344 0 LINE"
);
},
{
closed = 1;
nodes = (
"436 203 LINE",
"432 256 LINE",
"201 256 LINE",
"179 203 LINE"
);
}
);
width = 552;
},
{
anchors = (
{
name = bottom;
position = "{223, 0}";
},
{
name = ogonek;
position = "{405, 0}";
},
{
name = top;
position = "{319, 591}";
}
);
layerId = "16B79A64-180D-495F-8650-CA27198DF3EF";
paths = (
{
closed = 1;
nodes = (
"65 0 LINE",
"164 229 LINE",
"314 579 LINE",
"320 579 LINE",
"356 232 LINE",
"380 0 LINE",
"408 0 LINE",
"342 591 LINE",
"333 600 LINE",
"296 591 LINE",
"38 0 LINE"
);
},
{
closed = 1;
nodes = (
"135 0 LINE",
"138 18 LINE",
"64 28 LINE",
"-14 15 LINE",
"-17 0 LINE"
);
},
{
closed = 1;
nodes = (
"465 0 LINE",
"468 15 LINE",
"390 28 LINE",
"316 18 LINE",
"313 0 LINE"
);
},
{
closed = 1;
nodes = (
"369 218 LINE",
"367 239 LINE",
"146 239 LINE",
"136 218 LINE"
);
}
);
width = 438;
},
{
anchors = (
{
name = bottom;
position = "{308, 0}";
},
{
name = ogonek;
position = "{533, 0}";
},
{
name = top;
position = "{411, 613}";
}
);
background = {
paths = (
{
closed = 1;
nodes = (
"502 622 LINE",
"320 613 LINE",
"23 0 LINE",
"181 0 LINE",
"270 239 LINE",
"368 478 LINE",
"377 478 LINE",
"392 242 LINE",
"416 0 LINE",
"596 0 LINE",
"521 603 LINE"
);
},
{
closed = 1;
nodes = (
"219 261 LINE",
"204 168 LINE",
"446 168 LINE",
"461 261 LINE"
);
},
{
closed = 1;
nodes = (
"-6 72 LINE",
"-17 0 LINE",
"282 0 LINE",
"295 80 LINE",
"165 108 LINE"
);
},
{
closed = 1;
nodes = (
"484 108 LINE",
"347 80 LINE",
"334 0 LINE",
"633 0 LINE",
"644 72 LINE"
);
}
);
};
layerId = "E259E77F-022A-45EF-A0F1-1168268390B3";
paths = (
{
closed = 1;
nodes = (
"181 0 LINE",
"274 239 LINE",
"376 478 LINE",
"385 478 LINE",
"398 242 LINE",
"416 0 LINE",
"596 0 LINE",
"529 603 LINE",
"510 622 LINE",
"328 613 LINE",
"23 0 LINE"
);
},
{
closed = 1;
nodes = (
"282 0 LINE",
"295 80 LINE",
"165 108 LINE",
"-6 72 LINE",
"-17 0 LINE"
);
},
{
closed = 1;
nodes = (
"633 0 LINE",
"644 72 LINE",
"484 108 LINE",
"347 80 LINE",
"334 0 LINE"
);
},
{
closed = 1;
nodes = (
"446 168 LINE",
"461 261 LINE",
"219 261 LINE",
"204 168 LINE"
);
}
);
width = 624;
}
);
leftKerningGroup = A;
rightKerningGroup = A;
unicode = 0041;
},
{
glyphname = AE;
lastChange = "2018-02-22 22:15:21 +0000";
layers = (
{
anchors = (
{
name = top;
position = "{529, 603}";
}
);
layerId = "D9712079-C16A-42CB-8BA4-BD9ECFFACF10";
paths = (
{
closed = 1;
nodes = (
"129 0 LINE",
"465 603 LINE",
"398 603 LINE",
"41 0 LINE"
);
},
{
closed = 1;
nodes = (
"218 0 LINE",
"226 46 LINE",
"124 73 LINE",
"12 38 LINE",
"6 0 LINE"
);
},
{
closed = 1;
nodes = (
"696 0 LINE",
"696 44 LINE",
"403 69 LINE",
"308 38 LINE",
"302 0 LINE"
);
},
{
closed = 1;
nodes = (
"436 203 LINE",
"432 256 LINE",
"201 256 LINE",
"179 203 LINE"
);
},
{
closed = 1;
nodes = (
"451 0 LINE",
"556 603 LINE",
"465 603 LINE",
"360 0 LINE"
);
},
{
closed = 1;
nodes = (
"618 0 LINE",
"696 0 LINE",
"727 179 LINE",
"677 180 LINE"
);
},
{
closed = 1;
nodes = (
"641 290 LINE",
"649 337 LINE",
"491 343 LINE",
"481 284 LINE"
);
},
{
closed = 1;
nodes = (
"300 565 LINE",
"390 536 LINE",
"725 560 LINE",
"733 603 LINE",
"307 603 LINE"
);
},
{
closed = 1;
nodes = (
"741 428 LINE",
"773 603 LINE",
"696 603 LINE",
"691 428 LINE"
);
}
);
width = 719;
},
{
anchors = (
{
name = top;
position = "{511, 591}";
}
);
layerId = "16B79A64-180D-495F-8650-CA27198DF3EF";
paths = (
{
closed = 1;
nodes = (
"80 0 LINE",
"430 591 LINE",
"404 591 LINE",
"51 0 LINE"
);
},
{
closed = 1;
nodes = (
"148 0 LINE",
"151 18 LINE",
"77 28 LINE",
"-1 15 LINE",
"-4 0 LINE"
);
},
{
closed = 1;
nodes = (
"594 0 LINE",
"597 19 LINE",
"348 28 LINE",
"270 18 LINE",
"267 0 LINE"
);
},
{
closed = 1;
nodes = (
"382 218 LINE",
"380 239 LINE",
"210 239 LINE",
"200 218 LINE"
);
},
{
closed = 1;
nodes = (
"353 0 LINE",
"456 591 LINE",
"428 591 LINE",
"325 0 LINE"
);
},
{
closed = 1;
nodes = (
"571 0 LINE",
"603 0 LINE",
"626 136 LINE",
"607 137 LINE"
);
},
{
closed = 1;
nodes = (
"561 298 LINE",
"564 317 LINE",
"404 321 LINE",
"399 294 LINE"
);
},
{
closed = 1;
nodes = (
"322 573 LINE",
"400 563 LINE",
"667 570 LINE",
"670 591 LINE",
"325 591 LINE"
);
},
{
closed = 1;
nodes = (
"670 465 LINE",
"691 591 LINE",
"659 591 LINE",
"651 465 LINE"
);
}
);
width = 638;
},
{
anchors = (
{
name = top;
position = "{629, 613}";
}
);
layerId = "E259E77F-022A-45EF-A0F1-1168268390B3";
paths = (
{
closed = 1;
nodes = (
"175 0 LINE",
"546 613 LINE",
"436 613 LINE",
"17 0 LINE"
);
},
{
closed = 1;
nodes = (
"282 0 LINE",
"295 80 LINE",
"165 108 LINE",
"-6 72 LINE",
"-17 0 LINE"
);
},
{
closed = 1;
nodes = (
"786 0 LINE",
"800 82 LINE",
"517 108 LINE",
"347 72 LINE",
"335 0 LINE"
);
},
{
closed = 1;
nodes = (
"446 168 LINE",
"461 261 LINE",
"219 261 LINE",
"204 168 LINE"
);
},
{
closed = 1;
nodes = (
"575 0 LINE",
"680 613 LINE",
"498 613 LINE",
"393 0 LINE"
);
},
{
closed = 1;
nodes = (
"712 0 LINE",
"830 0 LINE",
"865 235 LINE",
"776 235 LINE"
);
},
{
closed = 1;
nodes = (
"750 269 LINE",
"766 362 LINE",
"606 368 LINE",
"590 263 LINE"
);
},
{
closed = 1;
nodes = (
"276 541 LINE",
"423 506 LINE",
"851 532 LINE",
"865 613 LINE",
"287 613 LINE"
);
},
{
closed = 1;
nodes = (
"891 384 LINE",
"928 613 LINE",
"811 613 LINE",
"802 384 LINE"
);
}
);
width = 861;
}
);
leftKerningGroup = A;
rightKerningGroup = E;
unicode = 00C6;
},
{
glyphname = B;
lastChange = "2018-02-22 22:11:41 +0000";
layers = (
{
layerId = "D9712079-C16A-42CB-8BA4-BD9ECFFACF10";
paths = (
{
closed = 1;
nodes = (
"289 0 LINE SMOOTH",
"413 0 OFFCURVE",
"495 80 OFFCURVE",
"495 201 CURVE SMOOTH",
"495 262 OFFCURVE",
"453 302 OFFCURVE",
"392 313 CURVE",
"393 319 LINE",
"470 356 OFFCURVE",
"505 404 OFFCURVE",
"505 497 CURVE SMOOTH",
"505 577 OFFCURVE",
"459 603 OFFCURVE",
"379 603 CURVE SMOOTH",
"142 603 LINE",
"135 565 LINE",
"215 537 LINE",
"229 539 OFFCURVE",
"372 556 OFFCURVE",
"384 556 CURVE SMOOTH",
"404 556 OFFCURVE",
"413 541 OFFCURVE",
"413 509 CURVE SMOOTH",
"413 446 OFFCURVE",
"401 330 OFFCURVE",
"317 330 CURVE SMOOTH",
"215 330 LINE",
"205 273 LINE",
"334 273 LINE SMOOTH",
"375 273 OFFCURVE",
"404 270 OFFCURVE",
"404 222 CURVE SMOOTH",
"404 166 OFFCURVE",
"380 47 OFFCURVE",
"324 47 CURVE SMOOTH",
"310 47 OFFCURVE",
"154 66 OFFCURVE",
"142 68 CURVE",
"46 38 LINE",
"40 0 LINE"
);
},
{
closed = 1;
nodes = (
"188 0 LINE",
"293 603 LINE",
"202 603 LINE",
"97 0 LINE"
);
}
);
width = 493;
},
{
layerId = "16B79A64-180D-495F-8650-CA27198DF3EF";
paths = (
{
closed = 1;
nodes = (
"259 0 LINE SMOOTH",
"356 0 OFFCURVE",
"428 89 OFFCURVE",
"428 202 CURVE SMOOTH",
"428 263 OFFCURVE",
"390 295 OFFCURVE",
"334 303 CURVE",
"335 307 LINE",
"400 329 OFFCURVE",
"445 413 OFFCURVE",
"445 499 CURVE SMOOTH",
"445 574 OFFCURVE",
"397 591 OFFCURVE",
"322 591 CURVE SMOOTH",
"151 591 LINE",
"148 576 LINE",
"227 563 LINE",
"271 565 OFFCURVE",
"334 567 OFFCURVE",
"346 567 CURVE SMOOTH",
"387 567 OFFCURVE",
"416 547 OFFCURVE",
"416 502 CURVE SMOOTH",
"416 418 OFFCURVE",
"376 315 OFFCURVE",
"298 315 CURVE SMOOTH",
"185 315 LINE",
"180 289 LINE",
"306 289 LINE SMOOTH",
"371 289 OFFCURVE",
"397 255 OFFCURVE",
"397 205 CURVE SMOOTH",
"397 99 OFFCURVE",
"337 24 OFFCURVE",
"265 24 CURVE SMOOTH",
"251 24 OFFCURVE",
"175 24 OFFCURVE",
"132 28 CURVE",
"54 15 LINE",
"51 0 LINE"
);
},
{
closed = 1;
nodes = (
"137 0 LINE",
"240 591 LINE",
"212 591 LINE",
"109 0 LINE"
);
}
);
width = 430;
},
{
background = {
paths = (
{
closed = 1;
nodes = (
"229 257 LINE",
"336 257 LINE SMOOTH",
"377 257 OFFCURVE",
"406 259 OFFCURVE",
"406 216 CURVE SMOOTH",
"406 160 OFFCURVE",
"386 75 OFFCURVE",
"330 75 CURVE SMOOTH",
"316 75 OFFCURVE",
"242 96 OFFCURVE",
"195 108 CURVE",
"23 73 LINE",
"12 0 LINE",
"370 0 LINE SMOOTH",
"509 0 OFFCURVE",
"593 85 OFFCURVE",
"593 206 CURVE SMOOTH",
"593 267 OFFCURVE",
"550 306 OFFCURVE",
"489 317 CURVE",
"490 324 LINE",
"567 357 OFFCURVE",
"605 406 OFFCURVE",
"605 499 CURVE SMOOTH",
"605 576 OFFCURVE",
"538 613 OFFCURVE",
"458 613 CURVE SMOOTH",
"114 613 LINE",
"103 541 LINE",
"263 505 LINE",
"319 524 OFFCURVE",
"375 542 OFFCURVE",
"387 542 CURVE SMOOTH",
"408 542 OFFCURVE",
"419 524 OFFCURVE",
"419 492 CURVE SMOOTH",
"419 423 OFFCURVE",
"411 353 OFFCURVE",
"321 353 CURVE SMOOTH",
"244 353 LINE"
);
},
{
closed = 1;
nodes = (
"357 613 LINE",
"175 613 LINE",
"70 0 LINE",
"252 0 LINE"
);
}
);
};
layerId = "E259E77F-022A-45EF-A0F1-1168268390B3";
paths = (
{
closed = 1;
nodes = (
"370 0 LINE SMOOTH",
"509 0 OFFCURVE",
"593 85 OFFCURVE",
"593 206 CURVE SMOOTH",
"593 267 OFFCURVE",
"550 306 OFFCURVE",
"489 317 CURVE",
"490 324 LINE",
"567 357 OFFCURVE",
"605 406 OFFCURVE",
"605 499 CURVE SMOOTH",
"605 576 OFFCURVE",
"538 613 OFFCURVE",
"458 613 CURVE SMOOTH",
"114 613 LINE",
"103 541 LINE",
"263 505 LINE",
"319 524 OFFCURVE",
"379 542 OFFCURVE",
"391 542 CURVE SMOOTH",
"412 542 OFFCURVE",
"423 524 OFFCURVE",
"423 492 CURVE SMOOTH",
"423 423 OFFCURVE",
"415 351 OFFCURVE",
"325 351 CURVE SMOOTH",
"244 351 LINE",
"229 257 LINE",
"336 257 LINE SMOOTH",
"377 257 OFFCURVE",
"406 259 OFFCURVE",
"406 216 CURVE SMOOTH",
"406 160 OFFCURVE",
"386 79 OFFCURVE",
"330 79 CURVE SMOOTH",
"316 79 OFFCURVE",
"242 97 OFFCURVE",
"195 108 CURVE",
"23 73 LINE",
"12 0 LINE"
);
},
{
closed = 1;
nodes = (
"252 0 LINE",
"357 613 LINE",
"175 613 LINE",
"70 0 LINE"
);
}
);
width = 579;
}
);
leftKerningGroup = H;
rightKerningGroup = B;
unicode = 0042;
},
{
glyphname = C;
lastChange = "2018-02-12 15:37:00 +0000";
layers = (
{
anchors = (
{
name = bottom;
position = "{241, 0}";
},
{
name = top;
position = "{361, 603}";
}
);
background = {
paths = (
{
closed = 1;
nodes = (
"227 -9 OFFCURVE",
"363 4 OFFCURVE",
"400 14 CURVE",
"401 65 LINE",
"270 65 LINE SMOOTH",
"219 65 OFFCURVE",
"174 79 OFFCURVE",
"174 196 CURVE SMOOTH",
"174 339 OFFCURVE",
"222 513 OFFCURVE",
"278 537 CURVE SMOOTH",
"285 540 OFFCURVE",
"298 542 OFFCURVE",
"313 542 CURVE SMOOTH",
"347 542 OFFCURVE",
"393 540 OFFCURVE",
"423 534 CURVE",
"502 601 LINE",
"445 606 OFFCURVE",
"351 611 OFFCURVE",
"332 611 CURVE SMOOTH",
"306 611 OFFCURVE",
"188 535 OFFCURVE",
"149 494 CURVE",
"110 418 OFFCURVE",
"80 284 OFFCURVE",
"80 193 CURVE SMOOTH",
"80 53 OFFCURVE",
"141 -9 OFFCURVE",
"212 -9 CURVE SMOOTH"
);
},
{
closed = 1;
nodes = (
"400 14 LINE",
"429 184 LINE",
"379 185 LINE",
"324 14 LINE"
);
},
{
closed = 1;
nodes = (
"410 428 LINE",
"462 428 LINE",
"502 601 LINE",
"420 601 LINE"
);
}
);
};
layerId = "D9712079-C16A-42CB-8BA4-BD9ECFFACF10";
paths = (
{
closed = 1;
nodes = (
"227 -9 OFFCURVE",
"369 4 OFFCURVE",
"406 14 CURVE",
"407 65 LINE",
"270 65 LINE SMOOTH",
"219 65 OFFCURVE",
"174 79 OFFCURVE",
"174 196 CURVE SMOOTH",
"174 339 OFFCURVE",
"222 513 OFFCURVE",
"278 537 CURVE SMOOTH",
"285 540 OFFCURVE",
"298 542 OFFCURVE",
"313 542 CURVE SMOOTH",
"347 542 OFFCURVE",
"399 540 OFFCURVE",
"429 534 CURVE",
"508 601 LINE",
"451 606 OFFCURVE",
"351 611 OFFCURVE",
"332 611 CURVE SMOOTH",
"306 611 OFFCURVE",
"188 535 OFFCURVE",
"149 494 CURVE",
"110 418 OFFCURVE",
"80 284 OFFCURVE",
"80 193 CURVE SMOOTH",
"80 53 OFFCURVE",
"141 -9 OFFCURVE",
"212 -9 CURVE SMOOTH"
);
},
{
closed = 1;
nodes = (
"406 14 LINE",
"435 184 LINE",
"385 185 LINE",
"330 14 LINE"
);
},
{
closed = 1;
nodes = (
"416 428 LINE",
"468 428 LINE",
"508 601 LINE",
"426 601 LINE"
);
}
);
width = 435;
},
{
anchors = (
{
name = bottom;
position = "{235, 0}";
},
{
name = top;
position = "{342, 591}";
}
);
layerId = "16B79A64-180D-495F-8650-CA27198DF3EF";
paths = (
{
closed = 1;
nodes = (
"234 -9 OFFCURVE",
"333 -2 OFFCURVE",
"363 1 CURVE",
"364 21 LINE",
"211 22 LINE SMOOTH",
"163 22 OFFCURVE",
"116 79 OFFCURVE",
"116 205 CURVE SMOOTH",
"116 444 OFFCURVE",
"213 510 OFFCURVE",
"255 540 CURVE SMOOTH",
"278 556 OFFCURVE",
"306 572 OFFCURVE",
"333 572 CURVE SMOOTH",
"358 572 OFFCURVE",
"402 568 OFFCURVE",
"439 562 CURVE",
"459 591 LINE",
"410 597 OFFCURVE",
"346 601 OFFCURVE",
"327 601 CURVE SMOOTH",
"296 601 OFFCURVE",
"213 547 OFFCURVE",
"164 491 CURVE",
"118 426 OFFCURVE",
"84 319 OFFCURVE",
"84 204 CURVE SMOOTH",
"84 102 OFFCURVE",
"116 -9 OFFCURVE",
"218 -9 CURVE SMOOTH"
);
},
{
closed = 1;
nodes = (
"363 1 LINE",
"385 137 LINE",
"366 138 LINE",
"331 1 LINE"
);
},
{
closed = 1;
nodes = (
"416 455 LINE",
"435 455 LINE",
"459 591 LINE",
"425 591 LINE"
);
}
);
width = 390;
},
{
anchors = (
{
name = bottom;
position = "{287, 0}";
},
{
name = top;
position = "{384, 613}";
}
);
layerId = "E259E77F-022A-45EF-A0F1-1168268390B3";
paths = (
{
closed = 1;
nodes = (
"258 -9 OFFCURVE",
"431 4 OFFCURVE",
"468 14 CURVE",
"469 101 LINE",
"343 101 LINE SMOOTH",
"292 101 OFFCURVE",
"249 112 OFFCURVE",
"249 189 CURVE SMOOTH",
"249 263 OFFCURVE",
"292 502 OFFCURVE",
"333 520 CURVE SMOOTH",
"349 527 OFFCURVE",
"364 529 OFFCURVE",
"379 529 CURVE SMOOTH",
"408 529 OFFCURVE",
"450 520 OFFCURVE",
"480 510 CURVE",
"566 616 LINE",
"509 621 OFFCURVE",
"406 625 OFFCURVE",
"387 625 CURVE SMOOTH",
"352 625 OFFCURVE",
"204 557 OFFCURVE",
"130 508 CURVE",
"96 427 OFFCURVE",
"58 280 OFFCURVE",
"58 189 CURVE SMOOTH",
"58 39 OFFCURVE",
"172 -9 OFFCURVE",
"243 -9 CURVE SMOOTH"
);
},
{
closed = 1;
nodes = (
"468 14 LINE",
"499 224 LINE",
"412 224 LINE",
"343 14 LINE"
);
},
{
closed = 1;
nodes = (
"428 391 LINE",
"521 391 LINE",
"566 616 LINE",
"443 616 LINE"
);
}
);
width = 496;
}
);
leftKerningGroup = O;
rightKerningGroup = C;
unicode = 0043;
},
{
glyphname = D;
lastChange = "2018-02-22 22:11:57 +0000";
layers = (
{
anchors = (
{
name = center;
position = "{232, 308}";
},
{
name = top;
position = "{375, 603}";
}
);
layerId = "D9712079-C16A-42CB-8BA4-BD9ECFFACF10";
paths = (
{
closed = 1;
nodes = (
"308 0 LINE SMOOTH",
"484 0 OFFCURVE",
"570 222 OFFCURVE",
"570 416 CURVE SMOOTH",
"570 550 OFFCURVE",
"490 603 OFFCURVE",
"407 603 CURVE SMOOTH",
"141 603 LINE",
"134 565 LINE",
"221 535 LINE",
"233 537 OFFCURVE",
"398 551 OFFCURVE",
"418 551 CURVE SMOOTH",
"457 551 OFFCURVE",
"475 499 OFFCURVE",
"475 420 CURVE SMOOTH",
"475 290 OFFCURVE",
"418 52 OFFCURVE",
"331 52 CURVE SMOOTH",
"312 52 OFFCURVE",
"157 68 OFFCURVE",
"147 70 CURVE",
"45 38 LINE",
"39 0 LINE"
);
},
{
closed = 1;
nodes = (
"188 0 LINE",
"289 603 LINE",
"201 603 LINE",
"98 0 LINE"
);
}
);
width = 551;
},
{
anchors = (
{
name = center;
position = "{204, 308}";
},
{
name = top;
position = "{348, 591}";
}
);
layerId = "16B79A64-180D-495F-8650-CA27198DF3EF";
paths = (
{
closed = 1;
nodes = (
"250 0 LINE SMOOTH",
"421 0 OFFCURVE",
"503 207 OFFCURVE",
"503 404 CURVE SMOOTH",
"503 538 OFFCURVE",
"440 591 OFFCURVE",
"357 591 CURVE SMOOTH",
"151 591 LINE",
"148 576 LINE",
"223 563 LINE",
"263 565 OFFCURVE",
"336 568 OFFCURVE",
"356 568 CURVE SMOOTH",
"425 568 OFFCURVE",
"473 517 OFFCURVE",
"473 408 CURVE SMOOTH",
"473 156 OFFCURVE",
"353 24 OFFCURVE",
"261 24 CURVE SMOOTH",
"242 24 OFFCURVE",
"172 25 OFFCURVE",
"132 28 CURVE",
"54 15 LINE",
"51 0 LINE"
);
},
{
closed = 1;
nodes = (
"137 0 LINE",
"238 579 LINE",
"210 579 LINE",
"109 0 LINE"
);
}
);
width = 489;
},
{
anchors = (
{
name = center;
position = "{215, 308}";
},
{
name = top;
position = "{404, 613}";
}
);
background = {
paths = (
{
closed = 1;
nodes = (
"263 506 LINE",
"325 524 OFFCURVE",
"385 536 OFFCURVE",
"400 536 CURVE SMOOTH",
"439 536 OFFCURVE",
"456 516 OFFCURVE",
"456 437 CURVE SMOOTH",
"456 307 OFFCURVE",
"406 80 OFFCURVE",
"319 80 CURVE SMOOTH",
"300 80 OFFCURVE",
"227 94 OFFCURVE",
"177 108 CURVE",
"23 72 LINE",
"12 0 LINE",
"384 0 LINE SMOOTH",
"560 0 OFFCURVE",
"647 227 OFFCURVE",
"647 421 CURVE SMOOTH",
"647 560 OFFCURVE",
"568 613 OFFCURVE",
"485 613 CURVE SMOOTH",
"114 613 LINE",
"103 541 LINE"
);
},
{
closed = 1;
nodes = (
"357 613 LINE",
"175 613 LINE",
"70 0 LINE",
"252 0 LINE"
);
}
);
};
layerId = "E259E77F-022A-45EF-A0F1-1168268390B3";
paths = (
{
closed = 1;
nodes = (
"384 0 LINE SMOOTH",
"560 0 OFFCURVE",
"647 227 OFFCURVE",
"647 421 CURVE SMOOTH",
"647 560 OFFCURVE",
"568 613 OFFCURVE",
"485 613 CURVE SMOOTH",
"114 613 LINE",
"103 541 LINE",
"263 506 LINE",
"325 524 OFFCURVE",
"385 536 OFFCURVE",
"400 536 CURVE SMOOTH",
"439 536 OFFCURVE",
"456 516 OFFCURVE",
"456 437 CURVE SMOOTH",
"456 307 OFFCURVE",
"406 84 OFFCURVE",
"319 84 CURVE SMOOTH",
"300 84 OFFCURVE",
"227 97 OFFCURVE",
"177 108 CURVE",
"23 72 LINE",
"12 0 LINE"
);
},
{
closed = 1;
nodes = (
"252 0 LINE",
"357 613 LINE",
"175 613 LINE",
"70 0 LINE"
);
}
);
width = 612;
}
);
leftKerningGroup = H;
rightKerningGroup = O;
unicode = 0044;
},
{
glyphname = E;
lastChange = "2018-02-22 22:12:10 +0000";
layers = (
{
anchors = (
{
name = bottom;
position = "{254, 0}";
},
{
name = ogonek;
position = "{411, -22}";
},
{
name = top;
position = "{341, 603}";
}
);
layerId = "D9712079-C16A-42CB-8BA4-BD9ECFFACF10";
paths = (
{
closed = 1;
nodes = (
"97 0 LINE",
"188 0 LINE",
"293 603 LINE",
"202 603 LINE"
);
},
{
closed = 1;
nodes = (
"39 0 LINE",
"433 0 LINE",
"433 46 LINE",
"140 69 LINE",
"45 38 LINE"
);
},
{
closed = 1;
nodes = (
"355 0 LINE",
"433 0 LINE",
"464 179 LINE",
"414 180 LINE"
);
},
{
closed = 1;
nodes = (
"218 284 LINE",
"378 290 LINE",
"386 337 LINE",
"228 343 LINE"
);
},
{
closed = 1;
nodes = (
"134 565 LINE",
"224 534 LINE",
"502 560 LINE",
"510 603 LINE",
"141 603 LINE"
);
},
{
closed = 1;
nodes = (
"478 428 LINE",
"510 603 LINE",
"433 603 LINE",
"428 428 LINE"
);
}
);
width = 456;
},
{
anchors = (
{
name = bottom;
position = "{235, 0}";
},
{
name = ogonek;
position = "{373, -3}";
},
{
name = top;
position = "{333, 591}";
}
);
layerId = "16B79A64-180D-495F-8650-CA27198DF3EF";
paths = (
{
closed = 1;
nodes = (
"109 0 LINE",
"137 0 LINE",
"240 591 LINE",
"212 591 LINE"
);
},
{
closed = 1;
nodes = (
"51 0 LINE",
"378 0 LINE",
"381 19 LINE",
"132 28 LINE",
"54 15 LINE"
);
},
{
closed = 1;
nodes = (
"355 0 LINE",
"387 0 LINE",
"410 136 LINE",
"391 137 LINE"
);
},
{
closed = 1;
nodes = (
"183 300 LINE",
"345 304 LINE",
"348 323 LINE",
"188 327 LINE"
);
},
{
closed = 1;
nodes = (
"148 576 LINE",
"226 563 LINE",
"451 570 LINE",
"454 591 LINE",
"151 591 LINE"
);
},
{
closed = 1;
nodes = (
"454 465 LINE",
"475 591 LINE",
"443 591 LINE",
"435 465 LINE"
);
}
);
width = 422;
},
{
anchors = (
{
name = bottom;
position = "{282, 0}";
},
{
name = ogonek;
position = "{456, -15}";
},
{
name = top;
position = "{371, 613}";
}
);
layerId = "E259E77F-022A-45EF-A0F1-1168268390B3";
paths = (
{
closed = 1;
nodes = (
"70 0 LINE",
"252 0 LINE",
"357 613 LINE",
"175 613 LINE"
);
},
{
closed = 1;
nodes = (
"12 0 LINE",
"453 0 LINE",
"467 82 LINE",
"194 108 LINE",
"24 72 LINE"
);
},
{
closed = 1;
nodes = (
"378 0 LINE",
"496 0 LINE",
"531 235 LINE",
"442 235 LINE"
);
},
{
closed = 1;
nodes = (
"267 263 LINE",
"417 269 LINE",
"433 362 LINE",
"283 368 LINE"
);
},
{
closed = 1;
nodes = (
"103 541 LINE",
"250 506 LINE",
"518 532 LINE",
"532 613 LINE",
"114 613 LINE"
);
},
{
closed = 1;
nodes = (
"557 384 LINE",
"594 613 LINE",
"477 613 LINE",
"468 384 LINE"
);
}
);
width = 527;
}
);
leftKerningGroup = H;
rightKerningGroup = E;
unicode = 0045;
},
{
glyphname = F;
lastChange = "2018-02-22 22:12:59 +0000";
layers = (
{
background = {
paths = (
{
closed = 1;
nodes = (
"45 38 LINE",
"39 0 LINE",
"291 0 LINE",
"299 44 LINE",
"199 63 LINE",
"237 278 LINE",
"377 283 LINE",
"386 330 LINE",
"247 335 LINE",
"282 540 LINE",
"294 542 OFFCURVE",
"406 552 OFFCURVE",
"432 554 CURVE",
"428 428 LINE",
"478 428 LINE",
"510 603 LINE",
"141 603 LINE",
"134 565 LINE",
"192 545 LINE",
"107 58 LINE"
);
}
);
};
layerId = "D9712079-C16A-42CB-8BA4-BD9ECFFACF10";
paths = (
{
closed = 1;
nodes = (
"97 0 LINE",
"188 0 LINE",
"293 603 LINE",
"202 603 LINE"
);
},
{
closed = 1;
nodes = (
"39 0 LINE",
"291 0 LINE",
"299 44 LINE",
"150 72 LINE",
"45 38 LINE"
);
},
{
closed = 1;
nodes = (
"218 272 LINE",
"378 278 LINE",
"386 325 LINE",
"228 331 LINE"
);
},
{
closed = 1;
nodes = (
"134 565 LINE",
"224 534 LINE",
"497 560 LINE",
"505 603 LINE",
"141 603 LINE"
);
},
{
closed = 1;
nodes = (
"473 428 LINE",
"505 603 LINE",
"428 603 LINE",
"423 428 LINE"
);
}
);
width = 417;
},
{
layerId = "16B79A64-180D-495F-8650-CA27198DF3EF";
paths = (
{
closed = 1;
nodes = (
"109 0 LINE",
"137 0 LINE",
"240 591 LINE",
"212 591 LINE"
);
},
{
closed = 1;
nodes = (
"51 0 LINE",
"223 0 LINE",
"226 18 LINE",
"132 28 LINE",
"54 15 LINE"
);
},
{
closed = 1;
nodes = (
"184 289 LINE",
"346 293 LINE",
"349 312 LINE",
"189 316 LINE"
);
},
{
closed = 1;
nodes = (
"148 576 LINE",
"226 563 LINE",
"447 570 LINE",
"450 591 LINE",
"151 591 LINE"
);
},
{
closed = 1;
nodes = (
"450 465 LINE",
"471 591 LINE",
"439 591 LINE",
"431 465 LINE"
);
}
);
width = 385;
},
{
background = {
paths = (
{
closed = 1;
nodes = (
"250 506 LINE",
"513 532 LINE",
"527 613 LINE",
"114 613 LINE",
"103 541 LINE"
);
},
{
closed = 1;
nodes = (
"357 613 LINE",
"175 613 LINE",
"70 0 LINE",
"252 0 LINE"
);
},
{
closed = 1;
nodes = (
"463 385 LINE",
"551 385 LINE",
"590 613 LINE",
"551 709 OFFCURVE",
"472 613 LINE"
);
},
{
closed = 1;
nodes = (
"268 255 LINE",
"418 261 LINE",
"434 354 LINE",
"284 360 LINE"
);
},
{
closed = 1;
nodes = (
"23 72 LINE",
"12 0 LINE",
"351 0 LINE",
"364 80 LINE",
"194 108 LINE"
);
}
);
};
layerId = "E259E77F-022A-45EF-A0F1-1168268390B3";
paths = (
{
closed = 1;
nodes = (
"70 0 LINE",
"252 0 LINE",
"357 613 LINE",
"175 613 LINE"
);
},
{
closed = 1;
nodes = (
"12 0 LINE",
"351 0 LINE",
"364 80 LINE",
"194 108 LINE",
"23 72 LINE"
);
},
{
closed = 1;
nodes = (
"268 246 LINE",
"418 252 LINE",
"434 345 LINE",
"284 351 LINE"
);
},
{
closed = 1;
nodes = (
"103 541 LINE",
"250 506 LINE",
"513 532 LINE",
"527 613 LINE",
"114 613 LINE"
);
},
{
closed = 1;
nodes = (
"552 389 LINE",
"589 613 LINE",
"472 613 LINE",
"463 389 LINE"
);
}
);
width = 501;
}
);
leftKerningGroup = H;
rightKerningGroup = F;
unicode = 0046;
},
{
glyphname = Fhook;
lastChange = "2018-03-30 19:29:55 +0000";
layers = (
{
layerId = "16B79A64-180D-495F-8650-CA27198DF3EF";
paths = (
{
closed = 1;
nodes = (
"184 289 LINE",
"346 293 LINE",
"349 312 LINE",
"189 316 LINE"
);
},
{
closed = 1;
nodes = (
"148 576 LINE",
"226 563 LINE",
"447 570 LINE",
"450 591 LINE",
"151 591 LINE"
);
},
{
closed = 1;
nodes = (
"450 465 LINE",
"471 591 LINE",
"439 591 LINE",
"431 465 LINE"
);
},
{
closed = 1;
nodes = (
"89 -99 OFFCURVE",
"132 -39 OFFCURVE",
"142 17 CURVE SMOOTH",
"237 572 LINE",
"210 577 LINE",
"114 21 LINE SMOOTH",
"105 -29 OFFCURVE",
"84 -68 OFFCURVE",
"68 -71 CURVE SMOOTH",
"53 -74 OFFCURVE",
"1 -73 OFFCURVE",
"-25 -73 CURVE",
"-28 -90 LINE",
"-3 -94 OFFCURVE",
"53 -99 OFFCURVE",
"59 -99 CURVE SMOOTH"
);
}
);
width = 385;
},
{
layerId = "D9712079-C16A-42CB-8BA4-BD9ECFFACF10";
paths = (
{
closed = 1;
nodes = (
"218 272 LINE",
"378 278 LINE",
"386 325 LINE",
"228 331 LINE"
);
},
{
closed = 1;
nodes = (
"134 565 LINE",
"224 534 LINE",
"497 560 LINE",
"505 603 LINE",
"141 603 LINE"
);
},
{
closed = 1;
nodes = (
"473 428 LINE",
"505 603 LINE",
"428 603 LINE",
"423 428 LINE"
);
},
{
closed = 1;
nodes = (
"67 -123 OFFCURVE",
"183 -24 OFFCURVE",
"194 38 CURVE SMOOTH",
"279 540 LINE",
"191 545 LINE",
"110 70 LINE SMOOTH",
"104 35 OFFCURVE",
"89 -43 OFFCURVE",
"59 -49 CURVE SMOOTH",
"44 -52 OFFCURVE",
"-13 -52 OFFCURVE",
"-39 -52 CURVE",
"-54 -99 LINE",
"-21 -108 OFFCURVE",
"22 -123 OFFCURVE",
"37 -123 CURVE SMOOTH"
);
}
);
width = 417;
},
{
layerId = "E259E77F-022A-45EF-A0F1-1168268390B3";
paths = (
{
closed = 1;
nodes = (
"268 246 LINE",
"418 252 LINE",
"434 345 LINE",
"284 351 LINE"
);
},
{
closed = 1;
nodes = (
"103 541 LINE",
"250 506 LINE",
"513 532 LINE",
"527 613 LINE",
"114 613 LINE"
);
},
{
closed = 1;
nodes = (
"552 389 LINE",
"589 613 LINE",
"472 613 LINE",
"463 389 LINE"
);
},
{
closed = 1;
nodes = (
"112 -153 OFFCURVE",
"250 -23 OFFCURVE",
"261 44 CURVE SMOOTH",
"346 550 LINE",
"165 555 LINE",
"83 80 LINE SMOOTH",
"77 45 OFFCURVE",
"62 -34 OFFCURVE",
"42 -39 CURVE SMOOTH",
"27 -43 OFFCURVE",
"-50 -42 OFFCURVE",
"-76 -42 CURVE",
"-94 -120 LINE",
"-53 -131 OFFCURVE",
"42 -153 OFFCURVE",
"77 -153 CURVE SMOOTH"
);
}
);
width = 501;
}
);
unicode = 0191;
},
{
glyphname = G;
lastChange = "2018-02-12 15:37:00 +0000";
layers = (
{
anchors = (
{
name = bottom;
position = "{260, 0}";
},
{
name = top;
position = "{360, 603}";
}
);
background = {
paths = (
{
closed = 1;
nodes = (
"262 -9 OFFCURVE",
"407 38 OFFCURVE",
"440 59 CURVE",
"472 252 LINE",
"390 252 LINE",
"359 69 LINE",
"258 59 LINE",
"194 59 OFFCURVE",
"172 95 OFFCURVE",
"172 196 CURVE SMOOTH",
"172 339 OFFCURVE",
"220 513 OFFCURVE",
"276 537 CURVE SMOOTH",
"283 540 OFFCURVE",
"296 542 OFFCURVE",
"311 542 CURVE SMOOTH",
"353 542 OFFCURVE",
"411 536 OFFCURVE",
"440 530 CURVE",
"520 599 LINE",
"464 604 OFFCURVE",
"349 611 OFFCURVE",
"330 611 CURVE SMOOTH",
"304 611 OFFCURVE",
"186 535 OFFCURVE",
"147 494 CURVE",
"108 418 OFFCURVE",
"78 284 OFFCURVE",
"78 193 CURVE SMOOTH",
"78 53 OFFCURVE",
"147 -9 OFFCURVE",
"243 -9 CURVE SMOOTH"
);
},
{
closed = 1;
nodes = (
"522 252 LINE",
"529 291 LINE",
"307 291 LINE",
"299 245 LINE",
"410 223 LINE"
);
},
{
closed = 1;
nodes = (
"428 427 LINE",
"480 427 LINE",
"520 599 LINE",
"438 599 LINE"
);
}
);
};
layerId = "D9712079-C16A-42CB-8BA4-BD9ECFFACF10";
paths = (
{
closed = 1;
nodes = (
"262 -9 OFFCURVE",
"413 38 OFFCURVE",
"446 59 CURVE",
"478 252 LINE",
"396 252 LINE",
"365 69 LINE",
"258 59 LINE",
"194 59 OFFCURVE",
"172 95 OFFCURVE",
"172 196 CURVE SMOOTH",
"172 339 OFFCURVE",
"220 513 OFFCURVE",
"276 537 CURVE SMOOTH",
"283 540 OFFCURVE",
"296 542 OFFCURVE",
"311 542 CURVE SMOOTH",
"353 542 OFFCURVE",
"417 536 OFFCURVE",
"446 530 CURVE",
"526 599 LINE",
"470 604 OFFCURVE",
"349 611 OFFCURVE",
"330 611 CURVE SMOOTH",
"304 611 OFFCURVE",
"186 535 OFFCURVE",
"147 494 CURVE",
"108 418 OFFCURVE",
"78 284 OFFCURVE",
"78 193 CURVE SMOOTH",
"78 53 OFFCURVE",
"147 -9 OFFCURVE",
"243 -9 CURVE SMOOTH"
);
},
{
closed = 1;
nodes = (
"528 252 LINE",
"535 291 LINE",
"313 291 LINE",
"305 245 LINE",
"416 223 LINE"
);
},
{
closed = 1;
nodes = (
"434 427 LINE",
"486 427 LINE",
"526 599 LINE",
"444 599 LINE"
);
}
);
width = 511;
},
{
anchors = (
{
name = bottom;
position = "{243, 0}";
},
{
name = top;
position = "{341, 591}";
}
);
background = {
paths = (
{
closed = 1;
nodes = (
"234 -9 OFFCURVE",
"310 4 OFFCURVE",
"371 17 CURVE",
"414 270 LINE",
"389 270 LINE",
"349 31 LINE",
"221 18 LINE",
"150 18 OFFCURVE",
"116 87 OFFCURVE",
"116 205 CURVE SMOOTH",
"116 444 OFFCURVE",
"213 510 OFFCURVE",
"255 540 CURVE SMOOTH",
"278 556 OFFCURVE",
"306 572 OFFCURVE",
"333 572 CURVE SMOOTH",
"358 572 OFFCURVE",
"400 567 OFFCURVE",
"439 560 CURVE",
"471 591 LINE",
"415 596 OFFCURVE",
"346 601 OFFCURVE",
"327 601 CURVE SMOOTH",
"296 601 OFFCURVE",
"213 547 OFFCURVE",
"164 491 CURVE",
"118 426 OFFCURVE",
"84 319 OFFCURVE",
"84 204 CURVE SMOOTH",
"84 75 OFFCURVE",
"124 -9 OFFCURVE",
"215 -9 CURVE SMOOTH"
);
},
{
closed = 1;
nodes = (
"476 269 LINE",
"479 287 LINE",
"317 287 LINE",
"314 269 LINE",
"398 263 LINE"
);
},
{
closed = 1;
nodes = (
"427 455 LINE",
"446 455 LINE",
"471 591 LINE",
"437 591 LINE"
);
}
);
};
layerId = "16B79A64-180D-495F-8650-CA27198DF3EF";
paths = (
{
closed = 1;
nodes = (
"234 -9 OFFCURVE",
"320 4 OFFCURVE",
"381 17 CURVE",
"424 270 LINE",
"399 270 LINE",
"359 31 LINE",
"221 18 LINE",
"150 18 OFFCURVE",
"116 87 OFFCURVE",
"116 205 CURVE SMOOTH",
"116 444 OFFCURVE",
"213 510 OFFCURVE",
"255 540 CURVE SMOOTH",
"278 556 OFFCURVE",
"306 572 OFFCURVE",
"333 572 CURVE SMOOTH",
"358 572 OFFCURVE",
"405 567 OFFCURVE",
"444 560 CURVE",
"476 591 LINE",
"420 596 OFFCURVE",
"346 601 OFFCURVE",
"327 601 CURVE SMOOTH",
"296 601 OFFCURVE",
"213 547 OFFCURVE",
"164 491 CURVE",
"118 426 OFFCURVE",
"84 319 OFFCURVE",
"84 204 CURVE SMOOTH",
"84 75 OFFCURVE",
"124 -9 OFFCURVE",
"215 -9 CURVE SMOOTH"
);
},
{
closed = 1;
nodes = (
"486 269 LINE",
"489 287 LINE",
"327 287 LINE",
"324 269 LINE",
"408 263 LINE"
);
},
{
closed = 1;
nodes = (
"432 455 LINE",
"451 455 LINE",
"476 591 LINE",
"442 591 LINE"
);
}
);
width = 459;
},
{
anchors = (
{
name = bottom;
position = "{281, 0}";
},
{
name = top;
position = "{388, 613}";
}
);
layerId = "E259E77F-022A-45EF-A0F1-1168268390B3";
paths = (
{
closed = 1;
nodes = (
"308 -9 OFFCURVE",
"452 31 OFFCURVE",
"525 59 CURVE",
"557 252 LINE",
"403 252 LINE",
"378 106 LINE",
"327 99 LINE SMOOTH",
"281 93 OFFCURVE",
"249 112 OFFCURVE",
"249 189 CURVE SMOOTH",
"249 263 OFFCURVE",
"292 502 OFFCURVE",
"333 520 CURVE SMOOTH",
"349 527 OFFCURVE",
"364 529 OFFCURVE",
"379 529 CURVE SMOOTH",
"417 529 OFFCURVE",
"466 516 OFFCURVE",
"498 504 CURVE",
"599 616 LINE",
"542 621 OFFCURVE",
"406 625 OFFCURVE",
"387 625 CURVE SMOOTH",
"352 625 OFFCURVE",
"204 557 OFFCURVE",
"130 508 CURVE",
"96 427 OFFCURVE",
"58 280 OFFCURVE",
"58 189 CURVE SMOOTH",
"58 39 OFFCURVE",
"202 -9 OFFCURVE",
"273 -9 CURVE SMOOTH"
);
},
{
closed = 1;
nodes = (
"602 242 LINE",
"613 315 LINE",
"342 315 LINE",
"330 235 LINE",
"441 213 LINE"
);
},
{
closed = 1;
nodes = (
"461 391 LINE",
"554 391 LINE",
"599 616 LINE",
"476 616 LINE"
);
}
);
width = 566;
}
);
leftKerningGroup = O;
rightKerningGroup = G;
unicode = 0047;
},
{
glyphname = H;
lastChange = "2018-02-22 22:07:20 +0000";
layers = (
{
anchors = (
{
name = bottom;
position = "{295, 0}";
},
{
name = center;
position = "{358, 448}";
},
{
name = top;
position = "{401, 603}";
}
);
layerId = "D9712079-C16A-42CB-8BA4-BD9ECFFACF10";
paths = (
{
closed = 1;
nodes = (
"495 0 LINE",
"600 603 LINE",
"509 603 LINE",
"404 0 LINE"
);
},
{
closed = 1;
nodes = (
"252 0 LINE",
"260 46 LINE",
"158 74 LINE",
"45 38 LINE",
"39 0 LINE"
);
},
{
closed = 1;
nodes = (
"556 0 LINE",
"562 38 LINE",
"458 74 LINE",
"351 46 LINE",
"343 0 LINE"
);
},
{
closed = 1;
nodes = (
"188 0 LINE",
"293 603 LINE",
"202 603 LINE",
"97 0 LINE"
);
},
{
closed = 1;
nodes = (
"484 284 LINE",
"493 337 LINE",
"216 337 LINE",
"207 284 LINE"
);
},
{
closed = 1;
nodes = (
"346 557 LINE",
"354 603 LINE",
"141 603 LINE",
"135 565 LINE",
"239 529 LINE"
);
},
{
closed = 1;
nodes = (
"652 565 LINE",
"658 603 LINE",
"445 603 LINE",
"437 557 LINE",
"539 529 LINE"
);
}
);
width = 596;
},
{
anchors = (
{
name = bottom;
position = "{274, 0}";
},
{
name = center;
position = "{334, 440}";
},
{
name = top;
position = "{377, 591}";
}
);
background = {
paths = (
{
closed = 1;
nodes = (
"475 0 LINE",
"580 603 LINE",
"489 603 LINE",
"384 0 LINE"
);
},
{
closed = 1;
nodes = (
"232 0 LINE",
"240 46 LINE",
"138 74 LINE",
"25 38 LINE",
"19 0 LINE"
);
},
{
closed = 1;
nodes = (
"536 0 LINE",
"542 38 LINE",
"438 74 LINE",
"331 46 LINE",
"323 0 LINE"
);
},
{
closed = 1;
nodes = (
"168 0 LINE",
"273 603 LINE",
"182 603 LINE",
"77 0 LINE"
);
},
{
closed = 1;
nodes = (
"464 284 LINE",
"473 337 LINE",
"196 337 LINE",
"187 284 LINE"
);
},
{
closed = 1;
nodes = (
"326 557 LINE",
"334 603 LINE",
"121 603 LINE",
"115 565 LINE",
"219 529 LINE"
);
},
{
closed = 1;
nodes = (
"632 565 LINE",
"638 603 LINE",
"425 603 LINE",
"417 557 LINE",
"519 529 LINE"
);
},
{
closed = 1;
nodes = (
"533 0 LINE",
"638 613 LINE",
"456 613 LINE",
"351 0 LINE"
);
},
{
closed = 1;
nodes = (
"262 0 LINE",
"275 80 LINE",
"145 108 LINE",
"-26 72 LINE",
"-37 0 LINE"
);
},
{
closed = 1;
nodes = (
"594 0 LINE",
"605 72 LINE",
"445 108 LINE",
"308 80 LINE",
"295 0 LINE"
);
},
{
closed = 1;
nodes = (
"203 0 LINE",
"308 613 LINE",
"126 613 LINE",
"21 0 LINE"
);
},
{
closed = 1;
nodes = (
"446 264 LINE",
"461 357 LINE",
"219 357 LINE",
"204 264 LINE"
);
},
{
closed = 1;
nodes = (
"351 533 LINE",
"364 613 LINE",
"65 613 LINE",
"54 541 LINE",
"214 505 LINE"
);
},
{
closed = 1;
nodes = (
"685 541 LINE",
"696 613 LINE",
"397 613 LINE",
"384 533 LINE",
"514 505 LINE"
);
}
);
};
layerId = "16B79A64-180D-495F-8650-CA27198DF3EF";
paths = (
{
closed = 1;
nodes = (
"433 0 LINE",
"536 591 LINE",
"508 591 LINE",
"405 0 LINE"
);
},
{
closed = 1;
nodes = (
"203 0 LINE",
"206 18 LINE",
"132 28 LINE",
"54 15 LINE",
"51 0 LINE"
);
},
{
closed = 1;
nodes = (
"494 0 LINE",
"497 15 LINE",
"419 28 LINE",
"345 18 LINE",
"342 0 LINE"
);
},
{
closed = 1;
nodes = (
"137 0 LINE",
"240 591 LINE",
"212 591 LINE",
"109 0 LINE"
);
},
{
closed = 1;
nodes = (
"460 294 LINE",
"465 317 LINE",
"188 317 LINE",
"183 294 LINE"
);
},
{
closed = 1;
nodes = (
"300 573 LINE",
"303 591 LINE",
"151 591 LINE",
"148 576 LINE",
"226 563 LINE"
);
},
{
closed = 1;
nodes = (
"591 576 LINE",
"594 591 LINE",
"442 591 LINE",
"439 573 LINE",
"513 563 LINE"
);
}
);
width = 539;
},
{
anchors = (
{
name = bottom;
position = "{328, 0}";
},
{
name = center;
position = "{389, 462}";
},
{
name = top;
position = "{433, 613}";
}
);
background = {
paths = (
{
closed = 1;
nodes = (
"602 265 OFFCURVE",
"642 305 OFFCURVE",
"642 355 CURVE SMOOTH",
"642 404 OFFCURVE",
"602 444 OFFCURVE",
"553 444 CURVE SMOOTH",
"503 444 OFFCURVE",
"463 404 OFFCURVE",
"463 355 CURVE SMOOTH",
"463 305 OFFCURVE",
"503 265 OFFCURVE",
"553 265 CURVE SMOOTH"
);
},
{
closed = 1;
nodes = (
"272 265 OFFCURVE",
"312 305 OFFCURVE",
"312 355 CURVE SMOOTH",
"312 404 OFFCURVE",
"272 444 OFFCURVE",
"223 444 CURVE SMOOTH",
"173 444 OFFCURVE",
"133 404 OFFCURVE",
"133 355 CURVE SMOOTH",
"133 305 OFFCURVE",
"173 265 OFFCURVE",
"223 265 CURVE SMOOTH"
);
}
);
};
layerId = "E259E77F-022A-45EF-A0F1-1168268390B3";
paths = (
{
closed = 1;
nodes = (
"582 0 LINE",
"687 613 LINE",
"505 613 LINE",
"400 0 LINE"
);
},
{
closed = 1;
nodes = (
"311 0 LINE",
"324 80 LINE",
"194 108 LINE",
"23 72 LINE",
"12 0 LINE"
);
},
{
closed = 1;
nodes = (
"643 0 LINE",
"654 72 LINE",
"494 108 LINE",
"357 80 LINE",
"344 0 LINE"
);
},
{
closed = 1;
nodes = (
"252 0 LINE",
"357 613 LINE",
"175 613 LINE",
"70 0 LINE"
);
},
{
closed = 1;
nodes = (
"495 264 LINE",
"510 357 LINE",
"268 357 LINE",
"253 264 LINE"
);
},
{
closed = 1;
nodes = (
"400 533 LINE",
"413 613 LINE",
"114 613 LINE",
"103 541 LINE",
"263 505 LINE"
);
},
{
closed = 1;
nodes = (
"734 541 LINE",
"745 613 LINE",
"446 613 LINE",
"433 533 LINE",
"563 505 LINE"
);
}
);
width = 657;
}
);
leftKerningGroup = H;
rightKerningGroup = H;
unicode = 0048;
},
{
glyphname = I;
lastChange = "2018-02-22 22:15:36 +0000";
layers = (
{
anchors = (
{
name = bottom;
position = "{146, 0}";
},
{
name = ogonek;
position = "{230, -22}";
},
{
name = top;
position = "{250, 603}";
}
);
layerId = "D9712079-C16A-42CB-8BA4-BD9ECFFACF10";
paths = (
{
closed = 1;
nodes = (
"188 0 LINE",
"293 603 LINE",
"202 603 LINE",
"97 0 LINE"
);
},
{
closed = 1;
nodes = (
"252 0 LINE",
"260 46 LINE",
"158 74 LINE",
"45 38 LINE",
"39 0 LINE"
);
},
{
closed = 1;
nodes = (
"346 557 LINE",
"354 603 LINE",
"141 603 LINE",
"135 565 LINE",
"239 529 LINE"
);
}
);
width = 292;
},
{
anchors = (
{
name = bottom;
position = "{124, 0}";
},
{
name = ogonek;
position = "{189, -3}";
},
{
name = top;
position = "{231, 591}";
}
);
layerId = "16B79A64-180D-495F-8650-CA27198DF3EF";
paths = (
{
closed = 1;
nodes = (
"137 0 LINE",
"240 591 LINE",
"212 591 LINE",
"109 0 LINE"
);
},
{
closed = 1;
nodes = (
"203 0 LINE",
"206 18 LINE",
"132 28 LINE",
"54 15 LINE",
"51 0 LINE"
);
},
{
closed = 1;
nodes = (
"300 573 LINE",
"303 591 LINE",
"151 591 LINE",
"148 576 LINE",
"226 563 LINE"
);
}
);
width = 248;
},
{
anchors = (
{
name = bottom;
position = "{162, 0}";
},
{
name = ogonek;
position = "{276, -15}";
},
{
name = top;
position = "{263, 613}";
}
);
layerId = "E259E77F-022A-45EF-A0F1-1168268390B3";
paths = (
{
closed = 1;
nodes = (
"252 0 LINE",
"357 613 LINE",
"175 613 LINE",
"70 0 LINE"
);
},
{
closed = 1;
nodes = (
"316 0 LINE",
"329 80 LINE",
"194 108 LINE",
"23 72 LINE",
"12 0 LINE"
);
},
{
closed = 1;
nodes = (
"405 533 LINE",
"418 613 LINE",
"114 613 LINE",
"103 541 LINE",
"263 505 LINE"
);
}
);
width = 330;
}
);
leftKerningGroup = H;
rightKerningGroup = H;
unicode = 0049;
},
{
glyphname = J;
lastChange = "2018-02-22 22:13:31 +0000";
layers = (
{
anchors = (
{
name = top;
position = "{244, 603}";
}
);
layerId = "D9712079-C16A-42CB-8BA4-BD9ECFFACF10";
paths = (
{
closed = 1;
nodes = (
"68 -123 OFFCURVE",
"184 -24 OFFCURVE",
"195 38 CURVE SMOOTH",
"280 540 LINE",
"192 545 LINE",
"111 70 LINE SMOOTH",
"105 35 OFFCURVE",
"90 -43 OFFCURVE",
"60 -49 CURVE SMOOTH",
"45 -52 OFFCURVE",
"-12 -52 OFFCURVE",
"-38 -52 CURVE",
"-53 -99 LINE",
"-20 -108 OFFCURVE",
"23 -123 OFFCURVE",
"38 -123 CURVE SMOOTH"
);
},
{
closed = 1;
nodes = (
"346 557 LINE",
"354 603 LINE",
"141 603 LINE",
"135 565 LINE",
"239 529 LINE"
);
}
);
width = 285;
},
{
anchors = (
{
name = top;
position = "{234, 591}";
}
);
background = {
components = (
{
name = I;
transform = "{1, 0, 0, 1, 14, 0}";
}
);
};
layerId = "16B79A64-180D-495F-8650-CA27198DF3EF";
paths = (
{
closed = 1;
nodes = (
"93 -99 OFFCURVE",
"136 -39 OFFCURVE",
"146 17 CURVE SMOOTH",
"241 572 LINE",
"214 577 LINE",
"118 21 LINE SMOOTH",
"109 -29 OFFCURVE",
"88 -68 OFFCURVE",
"72 -71 CURVE SMOOTH",
"57 -74 OFFCURVE",
"5 -73 OFFCURVE",
"-21 -73 CURVE",
"-24 -90 LINE",
"1 -94 OFFCURVE",
"57 -99 OFFCURVE",
"63 -99 CURVE SMOOTH"
);
},
{
closed = 1;
nodes = (
"304 573 LINE",
"307 591 LINE",
"155 591 LINE",
"152 576 LINE",
"230 563 LINE"
);
}
);
width = 248;
},
{
anchors = (
{
name = top;
position = "{260, 613}";
}
);
layerId = "E259E77F-022A-45EF-A0F1-1168268390B3";
paths = (
{
closed = 1;
nodes = (
"112 -153 OFFCURVE",
"250 -23 OFFCURVE",
"261 44 CURVE SMOOTH",
"346 550 LINE",
"165 555 LINE",
"83 80 LINE SMOOTH",
"77 45 OFFCURVE",
"62 -34 OFFCURVE",
"42 -39 CURVE SMOOTH",
"27 -43 OFFCURVE",
"-50 -42 OFFCURVE",
"-76 -42 CURVE",
"-94 -120 LINE",
"-53 -131 OFFCURVE",
"42 -153 OFFCURVE",
"77 -153 CURVE SMOOTH"
);
},
{
closed = 1;
nodes = (
"405 533 LINE",
"418 613 LINE",
"114 613 LINE",
"103 541 LINE",
"263 505 LINE"
);
}
);
width = 330;
}
);
leftKerningGroup = J;
rightKerningGroup = J;
unicode = 004A;
},
{
glyphname = K;
lastChange = "2018-02-22 22:16:03 +0000";
layers = (
{
anchors = (
{
name = bottom;
position = "{309, 0}";
}
);
layerId = "D9712079-C16A-42CB-8BA4-BD9ECFFACF10";
paths = (
{
closed = 1;
nodes = (
"188 0 LINE",
"293 603 LINE",
"202 603 LINE",
"97 0 LINE"
);
},
{
closed = 1;
nodes = (
"252 0 LINE",
"260 46 LINE",
"158 74 LINE",
"45 38 LINE",
"39 0 LINE"
);
},
{
closed = 1;
nodes = (
"540 0 LINE",
"546 42 LINE",
"501 58 LINE",
"468 106 OFFCURVE",
"376 257 OFFCURVE",
"344 320 CURVE",
"272 320 LINE",
"267 292 LINE",
"300 219 OFFCURVE",
"380 63 OFFCURVE",
"410 0 CURVE"
);
},
{
closed = 1;
nodes = (
"346 557 LINE",
"354 603 LINE",
"141 603 LINE",
"135 565 LINE",
"239 529 LINE"
);
},
{
closed = 1;
nodes = (
"599 603 LINE",
"509 603 LINE",
"272 320 LINE",
"297 268 LINE"
);
},
{
closed = 1;
nodes = (
"610 565 LINE",
"616 603 LINE",
"404 603 LINE",
"396 557 LINE",
"497 529 LINE"
);
}
);
width = 516;
},
{
anchors = (
{
name = bottom;
position = "{271, 0}";
}
);
background = {
paths = (
{
closed = 1;
nodes = (
"258 261 OFFCURVE",
"264 267 OFFCURVE",
"264 275 CURVE SMOOTH",
"264 283 OFFCURVE",
"258 289 OFFCURVE",
"250 289 CURVE SMOOTH",
"242 289 OFFCURVE",
"236 283 OFFCURVE",
"236 275 CURVE SMOOTH",
"236 267 OFFCURVE",
"242 261 OFFCURVE",
"250 261 CURVE SMOOTH"
);
},
{
closed = 1;
nodes = (
"380 29 OFFCURVE",
"386 35 OFFCURVE",
"386 43 CURVE SMOOTH",
"386 51 OFFCURVE",
"380 57 OFFCURVE",
"372 57 CURVE SMOOTH",
"364 57 OFFCURVE",
"358 51 OFFCURVE",
"358 43 CURVE SMOOTH",
"358 35 OFFCURVE",
"364 29 OFFCURVE",
"372 29 CURVE SMOOTH"
);
},
{
closed = 1;
nodes = (
"258 326 OFFCURVE",
"264 332 OFFCURVE",
"264 340 CURVE SMOOTH",
"264 348 OFFCURVE",
"258 354 OFFCURVE",
"250 354 CURVE SMOOTH",
"242 354 OFFCURVE",
"236 348 OFFCURVE",
"236 340 CURVE SMOOTH",
"236 332 OFFCURVE",
"242 326 OFFCURVE",
"250 326 CURVE SMOOTH"
);
},
{
closed = 1;
nodes = (
"478 545 OFFCURVE",
"484 551 OFFCURVE",
"484 559 CURVE SMOOTH",
"484 567 OFFCURVE",
"478 573 OFFCURVE",
"470 573 CURVE SMOOTH",
"462 573 OFFCURVE",
"456 567 OFFCURVE",
"456 559 CURVE SMOOTH",
"456 551 OFFCURVE",
"462 545 OFFCURVE",
"470 545 CURVE SMOOTH"
);
}
);
};
layerId = "16B79A64-180D-495F-8650-CA27198DF3EF";
paths = (
{
closed = 1;
nodes = (
"137 0 LINE",
"240 591 LINE",
"212 591 LINE",
"109 0 LINE"
);
},
{
closed = 1;
nodes = (
"203 0 LINE",
"206 18 LINE",
"132 28 LINE",
"54 15 LINE",
"51 0 LINE"
);
},
{
closed = 1;
nodes = (
"482 0 LINE",
"485 19 LINE",
"416 28 LINE",
"382 75 OFFCURVE",
"275 257 OFFCURVE",
"242 320 CURVE",
"220 320 LINE",
"218 304 LINE",
"259 231 OFFCURVE",
"358 63 OFFCURVE",
"393 0 CURVE"
);
},
{
closed = 1;
nodes = (
"562 573 LINE",
"565 591 LINE",
"413 591 LINE",
"410 570 LINE",
"484 563 LINE"
);
},
{
closed = 1;
nodes = (
"525 591 LINE",
"490 591 LINE",
"220 320 LINE",
"230 303 LINE"
);
},
{
closed = 1;
nodes = (
"300 573 LINE",
"303 591 LINE",
"151 591 LINE",
"148 576 LINE",
"226 563 LINE"
);
}
);
width = 460;
},
{
anchors = (
{
name = bottom;
position = "{354, 0}";
}
);
background = {
paths = (
{
closed = 1;
nodes = (
"357 613 LINE",
"175 613 LINE",
"70 0 LINE",
"252 0 LINE"
);
},
{
closed = 1;
nodes = (
"263 505 LINE",
"395 533 LINE",
"408 613 LINE",
"114 613 LINE",
"103 541 LINE"
);
},
{
closed = 1;
nodes = (
"23 72 LINE",
"12 0 LINE",
"311 0 LINE",
"324 80 LINE",
"194 108 LINE"
);
},
{
closed = 1;
nodes = (
"403 268 LINE",
"714 613 LINE",
"569 613 LINE",
"328 335 LINE"
);
},
{
closed = 1;
nodes = (
"703 541 LINE",
"714 613 LINE",
"445 613 LINE",
"432 533 LINE",
"532 505 LINE"
);
},
{
closed = 1;
nodes = (
"624 0 LINE",
"635 72 LINE",
"582 100 LINE",
"554 153 OFFCURVE",
"498 276 OFFCURVE",
"465 350 CURVE",
"328 335 LINE",
"319 278 LINE",
"341 205 OFFCURVE",
"386 73 OFFCURVE",
"413 0 CURVE"
);
}
);
};
layerId = "E259E77F-022A-45EF-A0F1-1168268390B3";
paths = (
{
closed = 1;
nodes = (
"252 0 LINE",
"357 613 LINE",
"175 613 LINE",
"70 0 LINE"
);
},
{
closed = 1;
nodes = (
"311 0 LINE",
"324 80 LINE",
"194 108 LINE",
"23 72 LINE",
"12 0 LINE"
);
},
{
closed = 1;
nodes = (
"624 0 LINE",
"635 72 LINE",
"576 101 LINE",
"550 154 OFFCURVE",
"497 276 OFFCURVE",
"465 350 CURVE",
"328 335 LINE",
"319 278 LINE",
"341 205 OFFCURVE",
"386 73 OFFCURVE",
"413 0 CURVE"
);
},
{
closed = 1;
nodes = (
"395 533 LINE",
"408 613 LINE",
"114 613 LINE",
"103 541 LINE",
"263 505 LINE"
);
},
{
closed = 1;
nodes = (
"714 613 LINE",
"569 613 LINE",
"328 335 LINE",
"403 268 LINE"
);
},
{
closed = 1;
nodes = (
"703 541 LINE",
"714 613 LINE",
"445 613 LINE",
"432 533 LINE",
"532 505 LINE"
);
}
);
width = 613;
}
);
leftKerningGroup = H;
rightKerningGroup = K;
unicode = 004B;
},
{
glyphname = L;
lastChange = "2018-02-22 22:16:21 +0000";
layers = (
{
anchors = (
{
name = bottom;
position = "{252, 0}";
},
{
name = center;
position = "{133, 448}";
},
{
name = top;
position = "{250, 603}";
}
);
background = {
paths = (
{
closed = 1;
nodes = (
"45 38 LINE",
"39 0 LINE",
"433 0 LINE",
"464 179 LINE",
"414 179 LINE",
"371 49 LINE",
"325 52 OFFCURVE",
"244 58 OFFCURVE",
"199 63 CURVE",
"107 58 LINE"
);
}
);
};
layerId = "D9712079-C16A-42CB-8BA4-BD9ECFFACF10";
paths = (
{
closed = 1;
nodes = (
"97 0 LINE",
"188 0 LINE",
"293 603 LINE",
"202 603 LINE"
);
},
{
closed = 1;
nodes = (
"39 0 LINE",
"433 0 LINE",
"433 44 LINE",
"140 69 LINE",
"45 38 LINE"
);
},
{
closed = 1;
nodes = (
"355 0 LINE",
"433 0 LINE",
"467 199 LINE",
"417 200 LINE"
);
},
{
closed = 1;
nodes = (
"135 565 LINE",
"239 529 LINE",
"366 557 LINE",
"374 603 LINE",
"141 603 LINE"
);
}
);
width = 450;
},
{
anchors = (
{
name = bottom;
position = "{222, 0}";
},
{
name = center;
position = "{162, 440}";
},
{
name = top;
position = "{231, 591}";
}
);
background = {
paths = (
{
closed = 1;
nodes = (
"307 591 LINE",
"303 570 LINE",
"234 564 LINE",
"143 27 LINE",
"341 27 LINE",
"370 142 LINE",
"388 142 LINE",
"367 0 LINE",
"55 0 LINE",
"58 20 LINE",
"114 25 LINE",
"205 566 LINE",
"152 573 LINE",
"155 591 LINE"
);
}
);
};
layerId = "16B79A64-180D-495F-8650-CA27198DF3EF";
paths = (
{
closed = 1;
nodes = (
"109 0 LINE",
"137 0 LINE",
"240 591 LINE",
"212 591 LINE"
);
},
{
closed = 1;
nodes = (
"51 0 LINE",
"358 0 LINE",
"361 19 LINE",
"132 28 LINE",
"54 15 LINE"
);
},
{
closed = 1;
nodes = (
"335 0 LINE",
"367 0 LINE",
"392 147 LINE",
"373 148 LINE"
);
},
{
closed = 1;
nodes = (
"148 576 LINE",
"226 563 LINE",
"300 573 LINE",
"303 591 LINE",
"151 591 LINE"
);
}
);
width = 388;
},
{
anchors = (
{
name = bottom;
position = "{265, 0}";
},
{
name = center;
position = "{141, 462}";
},
{
name = top;
position = "{269, 613}";
}
);
layerId = "E259E77F-022A-45EF-A0F1-1168268390B3";
paths = (
{
closed = 1;
nodes = (
"70 0 LINE",
"252 0 LINE",
"357 613 LINE",
"175 613 LINE"
);
},
{
closed = 1;
nodes = (
"12 0 LINE",
"453 0 LINE",
"467 87 LINE",
"194 108 LINE",
"24 72 LINE"
);
},
{
closed = 1;
nodes = (
"368 0 LINE",
"496 0 LINE",
"536 263 LINE",
"449 263 LINE"
);
},
{
closed = 1;
nodes = (
"103 541 LINE",
"263 505 LINE",
"430 533 LINE",
"443 613 LINE",
"114 613 LINE"
);
}
);
width = 511;
}
);
leftKerningGroup = H;
rightKerningGroup = L;
unicode = 004C;
},
{
glyphname = M;
lastChange = "2018-02-22 22:16:36 +0000";
layers = (
{
background = {
paths = (
{
closed = 1;
nodes = (
"548 276 OFFCURVE",
"564 292 OFFCURVE",
"564 311 CURVE SMOOTH",
"564 329 OFFCURVE",
"548 345 OFFCURVE",
"529 345 CURVE SMOOTH",
"511 345 OFFCURVE",
"495 329 OFFCURVE",
"495 311 CURVE SMOOTH",
"495 292 OFFCURVE",
"511 276 OFFCURVE",
"529 276 CURVE SMOOTH"
);
},
{
closed = 1;
nodes = (
"200 256 OFFCURVE",
"216 272 OFFCURVE",
"216 291 CURVE SMOOTH",
"216 309 OFFCURVE",
"200 325 OFFCURVE",
"181 325 CURVE SMOOTH",
"163 325 OFFCURVE",
"147 309 OFFCURVE",
"147 291 CURVE SMOOTH",
"147 272 OFFCURVE",
"163 256 OFFCURVE",
"181 256 CURVE SMOOTH"
);
},
{
closed = 1;
nodes = (
"687 220 OFFCURVE",
"706 239 OFFCURVE",
"706 263 CURVE SMOOTH",
"706 286 OFFCURVE",
"687 305 OFFCURVE",
"664 305 CURVE SMOOTH",
"640 305 OFFCURVE",
"621 286 OFFCURVE",
"621 263 CURVE SMOOTH",
"621 239 OFFCURVE",
"640 220 OFFCURVE",
"664 220 CURVE SMOOTH"
);
},
{
closed = 1;
nodes = (
"355 220 OFFCURVE",
"374 239 OFFCURVE",
"374 263 CURVE SMOOTH",
"374 286 OFFCURVE",
"355 305 OFFCURVE",
"332 305 CURVE SMOOTH",
"308 305 OFFCURVE",
"289 286 OFFCURVE",
"289 263 CURVE SMOOTH",
"289 239 OFFCURVE",
"308 220 OFFCURVE",
"332 220 CURVE SMOOTH"
);
},
{
closed = 1;
nodes = (
"327 603 LINE",
"147 603 LINE",
"140 565 LINE",
"245 529 LINE"
);
},
{
closed = 1;
nodes = (
"683 525 LINE",
"805 565 LINE",
"812 603 LINE",
"626 603 LINE"
);
},
{
closed = 1;
nodes = (
"672 0 LINE",
"752 603 LINE",
"626 603 LINE",
"405 121 LINE",
"394 121 LINE",
"327 603 LINE",
"210 603 LINE",
"86 0 LINE",
"169 0 LINE",
"261 491 LINE",
"268 491 LINE",
"268 491 OFFCURVE",
"283 347 OFFCURVE",
"291 295 CURVE SMOOTH",
"329 42 LINE",
"343 34 LINE",
"440 48 LINE",
"563 301 LINE SMOOTH",
"594 365 OFFCURVE",
"649 491 OFFCURVE",
"649 491 CURVE",
"656 491 LINE",
"581 0 LINE"
);
},
{
closed = 1;
nodes = (
"36 38 LINE",
"30 0 LINE",
"234 0 LINE",
"242 46 LINE",
"144 73 LINE"
);
},
{
closed = 1;
nodes = (
"731 0 LINE",
"737 38 LINE",
"633 74 LINE",
"527 46 LINE",
"519 0 LINE"
);
}
);
};
layerId = "D9712079-C16A-42CB-8BA4-BD9ECFFACF10";
paths = (
{
closed = 1;
nodes = (
"157 0 LINE",
"255 499 LINE",
"262 499 LINE",
"262 499 OFFCURVE",
"276 347 OFFCURVE",
"284 295 CURVE SMOOTH",
"322 42 LINE",
"336 34 LINE",
"435 48 LINE",
"558 301 LINE SMOOTH",
"589 366 OFFCURVE",
"649 499 OFFCURVE",
"649 499 CURVE",
"656 499 LINE",
"581 0 LINE",
"672 0 LINE",
"752 603 LINE",
"629 603 LINE",
"405 121 LINE",
"394 121 LINE",
"327 603 LINE",
"213 603 LINE",
"89 0 LINE"
);
},
{
closed = 1;
nodes = (
"234 0 LINE",
"242 46 LINE",
"144 73 LINE",
"39 38 LINE",
"33 0 LINE"
);
},
{
closed = 1;
nodes = (
"731 0 LINE",
"737 38 LINE",
"633 74 LINE",
"527 46 LINE",
"519 0 LINE"
);
},
{
closed = 1;
nodes = (
"327 603 LINE",
"150 603 LINE",
"143 565 LINE",
"245 529 LINE"
);
},
{
closed = 1;
nodes = (
"805 565 LINE",
"812 603 LINE",
"629 603 LINE",
"683 525 LINE"
);
}
);
width = 764;
},
{
background = {
paths = (
{
closed = 1;
nodes = (
"260 591 LINE",
"154 591 LINE",
"151 573 LINE",
"229 563 LINE"
);
},
{
closed = 1;
nodes = (
"582 563 LINE",
"660 573 LINE",
"663 591 LINE",
"559 591 LINE"
);
},
{
closed = 1;
nodes = (
"518 0 LINE",
"605 591 LINE",
"559 591 LINE",
"327 62 LINE",
"318 62 LINE",
"260 591 LINE",
"215 591 LINE",
"103 0 LINE",
"130 0 LINE",
"232 549 LINE",
"239 549 LINE",
"239 549 OFFCURVE",
"264 306 OFFCURVE",
"270 254 CURVE SMOOTH",
"295 42 LINE",
"309 34 LINE",
"347 48 LINE",
"444 262 LINE SMOOTH",
"473 326 OFFCURVE",
"567 549 OFFCURVE",
"567 549 CURVE",
"574 549 LINE",
"490 0 LINE"
);
},
{
closed = 1;
nodes = (
"126 28 LINE",
"50 18 LINE",
"47 0 LINE",
"195 0 LINE",
"198 21 LINE"
);
},
{
closed = 1;
nodes = (
"503 28 LINE",
"429 21 LINE",
"426 0 LINE",
"578 0 LINE",
"581 18 LINE"
);
}
);
};
layerId = "16B79A64-180D-495F-8650-CA27198DF3EF";
paths = (
{
closed = 1;
nodes = (
"126 0 LINE",
"232 554 LINE",
"240 554 LINE",
"240 554 OFFCURVE",
"264 306 OFFCURVE",
"270 254 CURVE SMOOTH",
"295 42 LINE",
"309 34 LINE",
"343 48 LINE",
"440 262 LINE SMOOTH",
"469 326 OFFCURVE",
"567 554 OFFCURVE",
"568 554 CURVE",
"575 554 LINE",
"490 0 LINE",
"518 0 LINE",
"605 591 LINE",
"561 591 LINE",
"328 61 LINE",
"319 61 LINE",
"260 591 LINE",
"217 591 LINE",
"105 0 LINE"
);
},
{
closed = 1;
nodes = (
"195 0 LINE",
"198 18 LINE",
"126 28 LINE",
"52 15 LINE",
"49 0 LINE"
);
},
{
closed = 1;
nodes = (
"578 0 LINE",
"581 15 LINE",
"503 28 LINE",
"429 18 LINE",
"426 0 LINE"
);
},
{
closed = 1;
nodes = (
"260 591 LINE",
"156 591 LINE",
"153 576 LINE",
"229 563 LINE"
);
},
{
closed = 1;
nodes = (
"660 576 LINE",
"663 591 LINE",
"561 591 LINE",
"582 563 LINE"
);
}
);
width = 619;
},
{
background = {
paths = (
{
closed = 1;
nodes = (
"405 613 LINE",
"126 613 LINE",
"115 541 LINE",
"275 505 LINE"
);
},
{
closed = 1;
nodes = (
"733 505 LINE",
"904 541 LINE",
"914 613 LINE",
"620 613 LINE"
);
},
{
closed = 1;
nodes = (
"781 0 LINE",
"854 613 LINE",
"620 613 LINE",
"473 283 LINE",
"454 283 LINE",
"405 613 LINE",
"191 613 LINE",
"54 0 LINE",
"214 0 LINE",
"281 363 LINE",
"296 363 LINE",
"297 332 OFFCURVE",
"302 285 OFFCURVE",
"309 248 CURVE SMOOTH",
"351 38 LINE",
"390 26 LINE",
"479 44 LINE",
"601 288 LINE SMOOTH",
"611 308 OFFCURVE",
"624 333 OFFCURVE",
"633 361 CURVE",
"648 361 LINE",
"603 0 LINE"
);
},
{
closed = 1;
nodes = (
"5 72 LINE",
"-6 0 LINE",
"278 0 LINE",
"291 80 LINE",
"176 108 LINE"
);
},
{
closed = 1;
nodes = (
"689 108 LINE",
"557 80 LINE",
"544 0 LINE",
"838 0 LINE",
"849 72 LINE"
);
},
{
closed = 1;
nodes = (
"576 246 OFFCURVE",
"602 272 OFFCURVE",
"602 303 CURVE SMOOTH",
"602 334 OFFCURVE",
"576 360 OFFCURVE",
"545 360 CURVE SMOOTH",
"513 360 OFFCURVE",
"487 334 OFFCURVE",
"487 303 CURVE SMOOTH",
"487 272 OFFCURVE",
"513 246 OFFCURVE",
"545 246 CURVE SMOOTH"
);
},
{
closed = 1;
nodes = (
"212 246 OFFCURVE",
"238 272 OFFCURVE",
"238 303 CURVE SMOOTH",
"238 334 OFFCURVE",
"212 360 OFFCURVE",
"181 360 CURVE SMOOTH",
"149 360 OFFCURVE",
"123 334 OFFCURVE",
"123 303 CURVE SMOOTH",
"123 272 OFFCURVE",
"149 246 OFFCURVE",
"181 246 CURVE SMOOTH"
);
},
{
closed = 1;
nodes = (
"772 174 OFFCURVE",
"812 214 OFFCURVE",
"812 262 CURVE SMOOTH",
"812 310 OFFCURVE",
"772 350 OFFCURVE",
"724 350 CURVE SMOOTH",
"676 350 OFFCURVE",
"636 310 OFFCURVE",
"636 262 CURVE SMOOTH",
"636 214 OFFCURVE",
"676 174 OFFCURVE",
"724 174 CURVE SMOOTH"
);
},
{
closed = 1;
nodes = (
"425 174 OFFCURVE",
"465 214 OFFCURVE",
"465 262 CURVE SMOOTH",
"465 310 OFFCURVE",
"425 350 OFFCURVE",
"377 350 CURVE SMOOTH",
"329 350 OFFCURVE",
"289 310 OFFCURVE",
"289 262 CURVE SMOOTH",
"289 214 OFFCURVE",
"329 174 OFFCURVE",
"377 174 CURVE SMOOTH"
);
}
);
};
layerId = "E259E77F-022A-45EF-A0F1-1168268390B3";
paths = (
{
closed = 1;
nodes = (
"182 0 LINE",
"254 383 LINE",
"269 383 LINE",
"270 352 OFFCURVE",
"280 305 OFFCURVE",
"286 268 CURVE SMOOTH",
"323 38 LINE",
"362 26 LINE",
"479 44 LINE",
"606 309 LINE SMOOTH",
"616 329 OFFCURVE",
"629 354 OFFCURVE",
"638 382 CURVE",
"653 382 LINE",
"603 0 LINE",
"781 0 LINE",
"854 613 LINE",
"625 613 LINE",
"478 283 LINE",
"459 283 LINE",
"410 613 LINE",
"196 613 LINE",
"59 0 LINE"
);
},
{
closed = 1;
nodes = (
"268 0 LINE",
"281 80 LINE",
"176 108 LINE",
"10 72 LINE",
"-1 0 LINE"
);
},
{
closed = 1;
nodes = (
"838 0 LINE",
"849 72 LINE",
"689 108 LINE",
"557 80 LINE",
"544 0 LINE"
);
},
{
closed = 1;
nodes = (
"410 613 LINE",
"131 613 LINE",
"120 541 LINE",
"275 505 LINE"
);
},
{
closed = 1;
nodes = (
"904 541 LINE",
"914 613 LINE",
"625 613 LINE",
"733 505 LINE"
);
}
);
width = 845;
}
);
leftKerningGroup = M;
rightKerningGroup = M;
unicode = 004D;
},
{
glyphname = N;
lastChange = "2018-02-22 22:16:45 +0000";
layers = (
{
anchors = (
{
name = bottom;
position = "{297, 0}";
},
{
name = top;
position = "{393, 603}";
}
);
background = {
paths = (
{
closed = 1;
nodes = (
"404 0 LINE",
"495 0 LINE",
"600 603 LINE",
"509 603 LINE"
);
},
{
closed = 1;
nodes = (
"293 603 LINE",
"202 603 LINE",
"97 0 LINE",
"188 0 LINE"
);
},
{
closed = 1;
nodes = (
"239 529 LINE",
"346 557 LINE",
"354 603 LINE",
"141 603 LINE",
"135 565 LINE"
);
},
{
closed = 1;
nodes = (
"652 565 LINE",
"658 603 LINE",
"445 603 LINE",
"437 557 LINE",
"539 529 LINE"
);
},
{
closed = 1;
nodes = (
"458 74 LINE",
"351 46 LINE",
"343 0 LINE",
"556 0 LINE",
"562 38 LINE"
);
},
{
closed = 1;
nodes = (
"216 337 LINE",
"207 284 LINE",
"484 284 LINE",
"493 337 LINE"
);
},
{
closed = 1;
nodes = (
"45 38 LINE",
"39 0 LINE",
"252 0 LINE",
"260 46 LINE",
"158 74 LINE"
);
}
);
};
layerId = "D9712079-C16A-42CB-8BA4-BD9ECFFACF10";
paths = (
{
closed = 1;
nodes = (
"496 7 LINE",
"600 603 LINE",
"514 603 LINE",
"438 81 LINE",
"431 81 LINE",
"431 81 OFFCURVE",
"405 233 OFFCURVE",
"396 268 CURVE SMOOTH",
"313 603 LINE",
"202 603 LINE",
"97 0 LINE",
"183 0 LINE",
"255 496 LINE",
"262 496 LINE",
"262 496 OFFCURVE",
"287 347 OFFCURVE",
"300 295 CURVE SMOOTH",
"373 1 LINE",
"387 -7 LINE"
);
},
{
closed = 1;
nodes = (
"244 0 LINE",
"252 46 LINE",
"150 74 LINE",
"45 38 LINE",
"39 0 LINE"
);
},
{
closed = 1;
nodes = (
"313 603 LINE",
"141 603 LINE",
"134 565 LINE",
"239 529 LINE"
);
},
{
closed = 1;
nodes = (
"652 565 LINE",
"658 603 LINE",
"452 603 LINE",
"444 557 LINE",
"538 529 LINE"
);
}
);
width = 587;
},
{
anchors = (
{
name = bottom;
position = "{274, 0}";
},
{
name = top;
position = "{367, 591}";
}
);
background = {
paths = (
{
closed = 1;
nodes = (
"405 28 LINE",
"405 28 OFFCURVE",
"352 233 OFFCURVE",
"343 268 CURVE SMOOTH",
"258 591 LINE",
"211 591 LINE",
"108 0 LINE",
"138 0 LINE",
"233 563 LINE",
"239 563 LINE",
"239 563 OFFCURVE",
"293 347 OFFCURVE",
"307 295 CURVE SMOOTH",
"385 1 LINE",
"399 -7 LINE",
"433 7 LINE",
"535 591 LINE",
"509 591 LINE",
"411 28 LINE"
);
},
{
closed = 1;
nodes = (
"258 591 LINE",
"156 591 LINE",
"153 573 LINE",
"226 563 LINE"
);
},
{
closed = 1;
nodes = (
"589 591 LINE",
"447 591 LINE",
"444 570 LINE",
"513 563 LINE",
"586 573 LINE"
);
},
{
closed = 1;
nodes = (
"56 0 LINE",
"198 0 LINE",
"201 21 LINE",
"132 28 LINE",
"59 18 LINE"
);
}
);
};
layerId = "16B79A64-180D-495F-8650-CA27198DF3EF";
paths = (
{
closed = 1;
nodes = (
"433 7 LINE",
"535 591 LINE",
"509 591 LINE",
"411 25 LINE",
"405 25 LINE",
"405 25 OFFCURVE",
"352 233 OFFCURVE",
"343 268 CURVE SMOOTH",
"258 591 LINE",
"211 591 LINE",
"108 0 LINE",
"138 0 LINE",
"233 563 LINE",
"239 563 LINE",
"239 563 OFFCURVE",
"293 347 OFFCURVE",
"307 295 CURVE SMOOTH",
"385 1 LINE",
"399 -7 LINE"
);
},
{
closed = 1;
nodes = (
"203 0 LINE",
"206 18 LINE",
"132 28 LINE",
"54 15 LINE",
"51 0 LINE"
);
},
{
closed = 1;
nodes = (
"258 591 LINE",
"151 591 LINE",
"148 576 LINE",
"226 563 LINE"
);
},
{
closed = 1;
nodes = (
"591 576 LINE",
"594 591 LINE",
"442 591 LINE",
"439 573 LINE",
"513 563 LINE"
);
}
);
width = 527;
},
{
anchors = (
{
name = bottom;
position = "{354, 0}";
},
{
name = top;
position = "{418, 613}";
}
);
background = {
paths = (
{
closed = 1;
nodes = (
"463 282 LINE",
"453 326 OFFCURVE",
"426 396 OFFCURVE",
"414 433 CURVE SMOOTH",
"355 613 LINE",
"175 613 LINE",
"70 0 LINE",
"234 0 LINE",
"276 306 LINE",
"285 306 LINE",
"296 264 OFFCURVE",
"321 194 OFFCURVE",
"339 150 CURVE SMOOTH",
"397 11 LINE",
"424 -7 LINE",
"581 7 LINE",
"685 613 LINE",
"527 613 LINE",
"471 282 LINE"
);
},
{
closed = 1;
nodes = (
"355 613 LINE",
"114 613 LINE",
"103 541 LINE",
"290 505 LINE"
);
},
{
closed = 1;
nodes = (
"731 541 LINE",
"742 613 LINE",
"456 613 LINE",
"443 533 LINE",
"573 505 LINE"
);
},
{
closed = 1;
nodes = (
"23 72 LINE",
"12 0 LINE",
"301 0 LINE",
"314 80 LINE",
"194 108 LINE"
);
}
);
};
layerId = "E259E77F-022A-45EF-A0F1-1168268390B3";
paths = (
{
closed = 1;
nodes = (
"581 7 LINE",
"685 613 LINE",
"527 613 LINE",
"472 262 LINE",
"460 262 LINE",
"447 307 OFFCURVE",
"417 391 OFFCURVE",
"406 428 CURVE SMOOTH",
"349 613 LINE",
"175 613 LINE",
"70 0 LINE",
"234 0 LINE",
"275 324 LINE",
"288 324 LINE",
"299 282 OFFCURVE",
"331 199 OFFCURVE",
"348 155 CURVE SMOOTH",
"404 11 LINE",
"431 -7 LINE"
);
},
{
closed = 1;
nodes = (
"301 0 LINE",
"314 80 LINE",
"194 108 LINE",
"23 72 LINE",
"12 0 LINE"
);
},
{
closed = 1;
nodes = (
"349 613 LINE",
"114 613 LINE",
"103 541 LINE",
"290 505 LINE"
);
},
{
closed = 1;
nodes = (
"731 541 LINE",
"742 613 LINE",
"456 613 LINE",
"443 533 LINE",
"573 505 LINE"
);
}
);
width = 646;
}
);
leftKerningGroup = H;
rightKerningGroup = N;
unicode = 004E;
},
{
glyphname = Nhookleft;
lastChange = "2018-02-12 15:37:00 +0000";
layers = (
{
layerId = "D9712079-C16A-42CB-8BA4-BD9ECFFACF10";
paths = (
{
closed = 1;
nodes = (
"61 -153 OFFCURVE",
"175 -54 OFFCURVE",
"184 8 CURVE SMOOTH",
"254.972 496.056 LINE",
"262 496 LINE",
"262 496 OFFCURVE",
"287 347 OFFCURVE",
"300 295 CURVE SMOOTH",
"373 1 LINE",
"387 -7 LINE",
"496 7 LINE",
"600 603 LINE",
"514 603 LINE",
"438 81 LINE",
"431 81 LINE",
"396 268 LINE",
"313 603 LINE",
"202 603 LINE",
"104 40 LINE SMOOTH",
"98 5 OFFCURVE",
"83 -73 OFFCURVE",
"53 -79 CURVE SMOOTH",
"38 -82 OFFCURVE",
"-19 -82 OFFCURVE",
"-45 -82 CURVE",
"-60 -129 LINE",
"-27 -138 OFFCURVE",
"16 -153 OFFCURVE",
"31 -153 CURVE SMOOTH"
);
},
{
closed = 1;
nodes = (
"313 603 LINE",
"141 603 LINE",
"134 565 LINE",
"239 529 LINE"
);
},
{
closed = 1;
nodes = (
"652 565 LINE",
"658 603 LINE",
"452 603 LINE",
"444 557 LINE",
"538 529 LINE"
);
}
);
width = 587;
},
{
layerId = "16B79A64-180D-495F-8650-CA27198DF3EF";
paths = (
{
closed = 1;
nodes = (
"78 -129 OFFCURVE",
"123 -69 OFFCURVE",
"132 -13 CURVE SMOOTH",
"229.476 563 LINE",
"235 563 LINE",
"235 563 OFFCURVE",
"289 347 OFFCURVE",
"303 295 CURVE SMOOTH",
"381 1 LINE",
"395 -7 LINE",
"429 7 LINE",
"531 591 LINE",
"505 591 LINE",
"407 25 LINE",
"401 25 LINE",
"339 268 LINE",
"254 591 LINE",
"207 591 LINE",
"103 -9 LINE SMOOTH",
"94 -59 OFFCURVE",
"73 -98 OFFCURVE",
"57 -101 CURVE SMOOTH",
"42 -104 OFFCURVE",
"-10 -103 OFFCURVE",
"-36 -103 CURVE",
"-39 -120 LINE",
"-14 -124 OFFCURVE",
"42 -129 OFFCURVE",
"48 -129 CURVE SMOOTH"
);
},
{
closed = 1;
nodes = (
"254 591 LINE",
"147 591 LINE",
"144 573 LINE",
"222 563 LINE"
);
},
{
closed = 1;
nodes = (
"587 573 LINE",
"590 591 LINE",
"438 591 LINE",
"435 570 LINE",
"509 563 LINE"
);
}
);
width = 515;
},
{
layerId = "E259E77F-022A-45EF-A0F1-1168268390B3";
paths = (
{
closed = 1;
nodes = (
"108 -184 OFFCURVE",
"228 -54 OFFCURVE",
"236 13 CURVE SMOOTH",
"275.336 324 LINE",
"288 324 LINE",
"299 282 OFFCURVE",
"331 199 OFFCURVE",
"348 155 CURVE SMOOTH",
"404 11 LINE",
"431 -7 LINE",
"581 7 LINE",
"685 613 LINE",
"527 613 LINE",
"472 262 LINE",
"460 262 LINE",
"406 428 LINE",
"349 613 LINE",
"175 613 LINE",
"79 49 LINE SMOOTH",
"73 14 OFFCURVE",
"58 -65 OFFCURVE",
"38 -70 CURVE SMOOTH",
"23 -74 OFFCURVE",
"-54 -73 OFFCURVE",
"-80 -73 CURVE",
"-98 -151 LINE",
"-57 -162 OFFCURVE",
"38 -184 OFFCURVE",
"73 -184 CURVE SMOOTH"
);
},
{
closed = 1;
nodes = (
"349 613 LINE",
"114 613 LINE",
"103 541 LINE",
"290 505 LINE"
);
},
{
closed = 1;
nodes = (
"731 541 LINE",
"742 613 LINE",
"456 613 LINE",
"443 533 LINE",
"573 505 LINE"
);
}
);
width = 646;
}
);
leftKerningGroup = J;
rightKerningGroup = N;
unicode = 019D;
},
{
glyphname = Eng;
lastChange = "2018-02-12 15:37:00 +0000";
layers = (
{
layerId = "D9712079-C16A-42CB-8BA4-BD9ECFFACF10";
paths = (
{
closed = 1;
nodes = (
"496 7 LINE",
"600 603 LINE",
"514 603 LINE",
"449 146 LINE",
"442 146 LINE",
"442 146 OFFCURVE",
"415 281 OFFCURVE",
"404 316 CURVE SMOOTH",
"313 603 LINE",
"202 603 LINE",
"97 0 LINE",
"183 0 LINE",
"255 496 LINE",
"262 496 LINE",
"262 496 OFFCURVE",
"299 347 OFFCURVE",
"316 295 CURVE SMOOTH",
"416 -15 LINE"
);
},
{
closed = 1;
nodes = (
"244 0 LINE",
"252 46 LINE",
"150 74 LINE",
"45 38 LINE",
"39 0 LINE"
);
},
{
closed = 1;
nodes = (
"385 -153 OFFCURVE",
"485 -55 OFFCURVE",
"496 7 CURVE",
"428 40 LINE",
"422 5 OFFCURVE",
"407 -73 OFFCURVE",
"377 -79 CURVE SMOOTH",
"362 -82 OFFCURVE",
"305 -82 OFFCURVE",
"279 -82 CURVE",
"264 -129 LINE",
"297 -138 OFFCURVE",
"340 -153 OFFCURVE",
"355 -153 CURVE SMOOTH"
);
},
{
closed = 1;
nodes = (
"313 603 LINE",
"141 603 LINE",
"134 565 LINE",
"239 529 LINE"
);
},
{
closed = 1;
nodes = (
"652 565 LINE",
"658 603 LINE",
"452 603 LINE",
"444 557 LINE",
"538 529 LINE"
);
}
);
width = 587;
},
{
layerId = "16B79A64-180D-495F-8650-CA27198DF3EF";
paths = (
{
closed = 1;
nodes = (
"429 7 LINE",
"531 591 LINE",
"505 591 LINE",
"413 45 LINE",
"407 45 LINE",
"407 45 OFFCURVE",
"357 233 OFFCURVE",
"347 268 CURVE SMOOTH",
"254 591 LINE",
"207 591 LINE",
"104 0 LINE",
"134 0 LINE",
"229 563 LINE",
"235 563 LINE",
"235 563 OFFCURVE",
"292 347 OFFCURVE",
"308 295 CURVE SMOOTH",
"401 -9 LINE"
);
},
{
closed = 1;
nodes = (
"199 0 LINE",
"202 21 LINE",
"128 28 LINE",
"50 18 LINE",
"47 0 LINE"
);
},
{
closed = 1;
nodes = (
"378 -129 OFFCURVE",
"418 -71 OFFCURVE",
"429 7 CURVE",
"407 24 LINE",
"394 -48 OFFCURVE",
"377 -97 OFFCURVE",
"355 -101 CURVE SMOOTH",
"340 -104 OFFCURVE",
"288 -103 OFFCURVE",
"262 -103 CURVE",
"259 -120 LINE",
"284 -124 OFFCURVE",
"340 -129 OFFCURVE",
"346 -129 CURVE SMOOTH"
);
},
{
closed = 1;
nodes = (
"254 591 LINE",
"147 591 LINE",
"144 573 LINE",
"222 563 LINE"
);
},
{
closed = 1;
nodes = (
"587 573 LINE",
"590 591 LINE",
"438 591 LINE",
"435 570 LINE",
"509 563 LINE"
);
}
);
width = 515;
},
{
layerId = "E259E77F-022A-45EF-A0F1-1168268390B3";
paths = (
{
closed = 1;
nodes = (
"581 7 LINE",
"685 613 LINE",
"527 613 LINE",
"475 255 LINE",
"463 255 LINE",
"453 300 OFFCURVE",
"429 392 OFFCURVE",
"416 428 CURVE SMOOTH",
"349 613 LINE",
"175 613 LINE",
"70 0 LINE",
"234 0 LINE",
"275 324 LINE",
"288 324 LINE",
"304 282 OFFCURVE",
"337 198 OFFCURVE",
"357 155 CURVE SMOOTH",
"431 -7 LINE"
);
},
{
closed = 1;
nodes = (
"301 0 LINE",
"314 80 LINE",
"194 108 LINE",
"23 72 LINE",
"12 0 LINE"
);
},
{
closed = 1;
nodes = (
"464 -184 OFFCURVE",
"570 -60 OFFCURVE",
"581 7 CURVE",
"435 49 LINE",
"429 14 OFFCURVE",
"414 -65 OFFCURVE",
"394 -70 CURVE SMOOTH",
"379 -74 OFFCURVE",
"302 -73 OFFCURVE",
"276 -73 CURVE",
"258 -151 LINE",
"299 -162 OFFCURVE",
"394 -184 OFFCURVE",
"429 -184 CURVE SMOOTH"
);
},
{
closed = 1;
nodes = (
"349 613 LINE",
"114 613 LINE",
"103 541 LINE",
"290 505 LINE"
);
},
{
closed = 1;
nodes = (
"731 541 LINE",
"742 613 LINE",
"456 613 LINE",
"443 533 LINE",
"573 505 LINE"
);
}
);
width = 646;
}
);
leftKerningGroup = H;
rightKerningGroup = N;
unicode = 014A;
},
{
glyphname = O;
lastChange = "2018-03-30 19:12:49 +0000";
layers = (
{
anchors = (
{
name = bottom;
position = "{266, 0}";
},
{
name = center;
position = "{309, 307}";
},
{
name = ogonek;
position = "{344, 0}";
},
{
name = top;
position = "{370, 603}";
},
{
name = topright;
position = "{367, 603}";
}
);
background = {
paths = (
{
closed = 1;
nodes = (
"324 -9 OFFCURVE",
"438 62 OFFCURVE",
"479 108 CURVE",
"513 192 OFFCURVE",
"547 315 OFFCURVE",
"547 409 CURVE SMOOTH",
"547 550 OFFCURVE",
"474 611 OFFCURVE",
"332 611 CURVE SMOOTH",
"306 611 OFFCURVE",
"188 535 OFFCURVE",
"149 494 CURVE",
"115 413 OFFCURVE",
"80 284 OFFCURVE",
"80 193 CURVE SMOOTH",
"80 53 OFFCURVE",
"153 -9 OFFCURVE",
"295 -9 CURVE SMOOTH"
);
},
{
closed = 1;
nodes = (
"210 51 OFFCURVE",
"174 84 OFFCURVE",
"174 179 CURVE SMOOTH",
"174 266 OFFCURVE",
"214 488 OFFCURVE",
"269 543 CURVE",
"289 548 OFFCURVE",
"315 552 OFFCURVE",
"343 552 CURVE SMOOTH",
"402 552 OFFCURVE",
"452 529 OFFCURVE",
"452 427 CURVE SMOOTH",
"452 340 OFFCURVE",
"419 177 OFFCURVE",
"387 94 CURVE",
"381 86 OFFCURVE",
"312 51 OFFCURVE",
"297 51 CURVE SMOOTH"
);
}
);
};
layerId = "D9712079-C16A-42CB-8BA4-BD9ECFFACF10";
paths = (
{
closed = 1;
nodes = (
"324 -9 OFFCURVE",
"438 62 OFFCURVE",
"479 108 CURVE",
"513 192 OFFCURVE",
"547 315 OFFCURVE",
"547 409 CURVE SMOOTH",
"547 550 OFFCURVE",
"474 611 OFFCURVE",
"332 611 CURVE SMOOTH",
"307 611 OFFCURVE",
"186 538 OFFCURVE",
"151 495 CURVE",
"114 435 OFFCURVE",
"80 299 OFFCURVE",
"80 203 CURVE SMOOTH",
"80 56 OFFCURVE",
"146 -9 OFFCURVE",
"295 -9 CURVE SMOOTH"
);
},
{
closed = 1;
nodes = (
"200 51 OFFCURVE",
"174 91 OFFCURVE",
"174 196 CURVE SMOOTH",
"174 339 OFFCURVE",
"221 514 OFFCURVE",
"278 537 CURVE SMOOTH",
"298 545 OFFCURVE",
"316 548 OFFCURVE",
"343 548 CURVE SMOOTH",
"414 548 OFFCURVE",
"452 515 OFFCURVE",
"452 427 CURVE SMOOTH",
"452 340 OFFCURVE",
"419 177 OFFCURVE",
"387 94 CURVE",
"381 86 OFFCURVE",
"312 51 OFFCURVE",
"297 51 CURVE SMOOTH"
);
}
);
width = 526;
},
{
anchors = (
{
name = bottom;
position = "{254, 0}";
},
{
name = center;
position = "{294, 307}";
},
{
name = ogonek;
position = "{289, 0}";
},
{
name = top;
position = "{347, 591}";
},
{
name = topright;
position = "{379, 591}";
}
);
background = {
paths = (
{
closed = 1;
nodes = (
"106 175 OFFCURVE",
"112 181 OFFCURVE",
"112 189 CURVE SMOOTH",
"112 197 OFFCURVE",
"106 203 OFFCURVE",
"98 203 CURVE SMOOTH",
"90 203 OFFCURVE",
"84 197 OFFCURVE",
"84 189 CURVE SMOOTH",
"84 181 OFFCURVE",
"90 175 OFFCURVE",
"98 175 CURVE SMOOTH"
);
},
{
closed = 1;
nodes = (
"255 542 OFFCURVE",
"259 546 OFFCURVE",
"259 552 CURVE SMOOTH",
"259 558 OFFCURVE",
"255 562 OFFCURVE",
"249 562 CURVE SMOOTH",
"243 562 OFFCURVE",
"239 558 OFFCURVE",
"239 552 CURVE SMOOTH",
"239 546 OFFCURVE",
"243 542 OFFCURVE",
"249 542 CURVE SMOOTH"
);
},
{
closed = 1;
nodes = (
"315 8 OFFCURVE",
"319 12 OFFCURVE",
"319 18 CURVE SMOOTH",
"319 24 OFFCURVE",
"315 28 OFFCURVE",
"309 28 CURVE SMOOTH",
"303 28 OFFCURVE",
"299 24 OFFCURVE",
"299 18 CURVE SMOOTH",
"299 12 OFFCURVE",
"303 8 OFFCURVE",
"309 8 CURVE SMOOTH"
);
},
{
closed = 1;
nodes = (
"388 57 OFFCURVE",
"392 61 OFFCURVE",
"392 67 CURVE SMOOTH",
"392 73 OFFCURVE",
"388 77 OFFCURVE",
"382 77 CURVE SMOOTH",
"376 77 OFFCURVE",
"372 73 OFFCURVE",
"372 67 CURVE SMOOTH",
"372 61 OFFCURVE",
"376 57 OFFCURVE",
"382 57 CURVE SMOOTH"
);
},
{
closed = 1;
nodes = (
"297 -9 OFFCURVE",
"392 53 OFFCURVE",
"433 101 CURVE",
"483 184 OFFCURVE",
"510 304 OFFCURVE",
"510 388 CURVE SMOOTH",
"510 519 OFFCURVE",
"459 601 OFFCURVE",
"327 601 CURVE SMOOTH",
"296 601 OFFCURVE",
"213 547 OFFCURVE",
"164 491 CURVE",
"118 426 OFFCURVE",
"84 319 OFFCURVE",
"84 204 CURVE SMOOTH",
"84 73 OFFCURVE",
"135 -9 OFFCURVE",
"267 -9 CURVE SMOOTH"
);
},
{
closed = 1;
nodes = (
"153 20 OFFCURVE",
"116 100 OFFCURVE",
"116 205 CURVE SMOOTH",
"116 467 OFFCURVE",
"239 530 OFFCURVE",
"279 555 CURVE",
"299 565 OFFCURVE",
"312 572 OFFCURVE",
"335 572 CURVE SMOOTH",
"441 572 OFFCURVE",
"478 492 OFFCURVE",
"478 387 CURVE SMOOTH",
"478 302 OFFCURVE",
"456 190 OFFCURVE",
"412 114 CURVE",
"386 82 OFFCURVE",
"320 36 OFFCURVE",
"293 26 CURVE",
"281 21 OFFCURVE",
"269 20 OFFCURVE",
"259 20 CURVE SMOOTH"
);
}
);
};
layerId = "16B79A64-180D-495F-8650-CA27198DF3EF";
paths = (
{
closed = 1;
nodes = (
"297 -9 OFFCURVE",
"392 53 OFFCURVE",
"433 101 CURVE",
"483 184 OFFCURVE",
"510 304 OFFCURVE",
"510 388 CURVE SMOOTH",
"510 519 OFFCURVE",
"459 601 OFFCURVE",
"327 601 CURVE SMOOTH",
"296 601 OFFCURVE",
"213 547 OFFCURVE",
"164 491 CURVE",
"118 426 OFFCURVE",
"84 319 OFFCURVE",
"84 204 CURVE SMOOTH",
"84 73 OFFCURVE",
"135 -9 OFFCURVE",
"267 -9 CURVE SMOOTH"
);
},
{
closed = 1;
nodes = (
"161 20 OFFCURVE",
"116 86 OFFCURVE",
"116 205 CURVE SMOOTH",
"116 444 OFFCURVE",
"213 510 OFFCURVE",
"255 540 CURVE SMOOTH",
"278 556 OFFCURVE",
"306 572 OFFCURVE",
"333 572 CURVE SMOOTH",
"441 572 OFFCURVE",
"478 492 OFFCURVE",
"478 387 CURVE SMOOTH",
"478 302 OFFCURVE",
"456 190 OFFCURVE",
"412 114 CURVE",
"384 83 OFFCURVE",
"309 20 OFFCURVE",
"264 20 CURVE SMOOTH"
);
}
);
width = 496;
},
{
anchors = (
{
name = bottom;
position = "{303, 0}";
},
{
name = center;
position = "{350, 307}";
},
{
name = ogonek;
position = "{359, 0}";
},
{
name = top;
position = "{392, 613}";
},
{
name = topright;
position = "{428, 613}";
}
);
background = {
paths = (
{
closed = 1;
nodes = (
"321 524 OFFCURVE",
"341 539 OFFCURVE",
"341 560 CURVE SMOOTH",
"341 580 OFFCURVE",
"325 596 OFFCURVE",
"306 596 CURVE SMOOTH",
"286 596 OFFCURVE",
"270 580 OFFCURVE",
"270 560 CURVE SMOOTH",
"270 541 OFFCURVE",
"286 524 OFFCURVE",
"306 524 CURVE SMOOTH"
);
},
{
closed = 1;
nodes = (
"595 335 OFFCURVE",
"636 378 OFFCURVE",
"636 431 CURVE SMOOTH",
"636 485 OFFCURVE",
"594 528 OFFCURVE",
"540 528 CURVE SMOOTH",
"487 528 OFFCURVE",
"445 485 OFFCURVE",
"445 431 CURVE SMOOTH",
"445 377 OFFCURVE",
"487 335 OFFCURVE",
"540 335 CURVE SMOOTH"
);
},
{
closed = 1;
nodes = (
"344 -13 OFFCURVE",
"488 48 OFFCURVE",
"564 104 CURVE",
"598 188 OFFCURVE",
"635 329 OFFCURVE",
"635 423 CURVE SMOOTH",
"635 574 OFFCURVE",
"539 625 OFFCURVE",
"387 625 CURVE SMOOTH",
"352 625 OFFCURVE",
"204 557 OFFCURVE",
"130 508 CURVE",
"96 427 OFFCURVE",
"58 280 OFFCURVE",
"58 189 CURVE SMOOTH",
"58 39 OFFCURVE",
"155 -13 OFFCURVE",
"307 -13 CURVE SMOOTH"
);
},
{
closed = 1;
nodes = (
"262 79 OFFCURVE",
"249 112 OFFCURVE",
"249 189 CURVE SMOOTH",
"249 263 OFFCURVE",
"285 473 OFFCURVE",
"333 523 CURVE",
"347 527 OFFCURVE",
"360 529 OFFCURVE",
"375 529 CURVE SMOOTH",
"431 529 OFFCURVE",
"444 493 OFFCURVE",
"444 417 CURVE SMOOTH",
"444 341 OFFCURVE",
"415 172 OFFCURVE",
"386 102 CURVE",
"371 93 OFFCURVE",
"337 79 OFFCURVE",
"332 79 CURVE SMOOTH"
);
}
);
};
layerId = "E259E77F-022A-45EF-A0F1-1168268390B3";
paths = (
{
closed = 1;
nodes = (
"344 -13 OFFCURVE",
"488 48 OFFCURVE",
"564 104 CURVE",
"598 188 OFFCURVE",
"635 329 OFFCURVE",
"635 423 CURVE SMOOTH",
"635 574 OFFCURVE",
"539 625 OFFCURVE",
"387 625 CURVE SMOOTH",
"352 625 OFFCURVE",
"204 557 OFFCURVE",
"130 508 CURVE",
"96 427 OFFCURVE",
"58 280 OFFCURVE",
"58 189 CURVE SMOOTH",
"58 39 OFFCURVE",
"155 -13 OFFCURVE",
"307 -13 CURVE SMOOTH"
);
},
{
closed = 1;
nodes = (
"262 79 OFFCURVE",
"249 112 OFFCURVE",
"249 189 CURVE SMOOTH",
"249 263 OFFCURVE",
"291 502 OFFCURVE",
"333 520 CURVE SMOOTH",
"349 527 OFFCURVE",
"364 529 OFFCURVE",
"379 529 CURVE SMOOTH",
"427 529 OFFCURVE",
"444 494 OFFCURVE",
"444 417 CURVE SMOOTH",
"444 341 OFFCURVE",
"415 172 OFFCURVE",
"386 102 CURVE",
"371 93 OFFCURVE",
"337 79 OFFCURVE",
"332 79 CURVE SMOOTH"
);
}
);
width = 597;
}
);
leftKerningGroup = O;
rightKerningGroup = O;
unicode = 004F;
},
{
glyphname = OE;
lastChange = "2018-02-12 15:37:00 +0000";
layers = (
{
layerId = "D9712079-C16A-42CB-8BA4-BD9ECFFACF10";
paths = (
{
closed = 1;
nodes = (
"417 0 LINE",
"409 77 LINE",
"362 67 OFFCURVE",
"322 61 OFFCURVE",
"288 61 CURVE SMOOTH",
"212 61 OFFCURVE",
"173 93 OFFCURVE",
"173 188 CURVE SMOOTH",
"173 339 OFFCURVE",
"217 505 OFFCURVE",
"277 534 CURVE SMOOTH",
"293 542 OFFCURVE",
"317 545 OFFCURVE",
"344 545 CURVE SMOOTH",
"389 545 OFFCURVE",
"443 536 OFFCURVE",
"486 524 CURVE",
"543 603 LINE",
"333 603 LINE SMOOTH",
"303 603 OFFCURVE",
"190 533 OFFCURVE",
"150 487 CURVE",
"113 427 OFFCURVE",
"79 297 OFFCURVE",
"79 202 CURVE SMOOTH",
"79 62 OFFCURVE",
"152 0 OFFCURVE",
"294 0 CURVE SMOOTH"
);
},
{
closed = 1;
nodes = (
"704 0 LINE",
"704 44 LINE",
"411 69 LINE",
"368 0 LINE"
);
},
{
closed = 1;
nodes = (
"459 0 LINE",
"564 603 LINE",
"473 603 LINE",
"368 0 LINE"
);
},
{
closed = 1;
nodes = (
"773 560 LINE",
"781 603 LINE",
"473 603 LINE",
"495 534 LINE"
);
},
{
closed = 1;
nodes = (
"649 290 LINE",
"657 337 LINE",
"499 343 LINE",
"489 284 LINE"
);
},
{
closed = 1;
nodes = (
"626 0 LINE",
"704 0 LINE",
"735 179 LINE",
"685 180 LINE"
);
},
{
closed = 1;
nodes = (
"749 428 LINE",
"781 603 LINE",
"704 603 LINE",
"699 428 LINE"
);
}
);
width = 727;
},
{
layerId = "16B79A64-180D-495F-8650-CA27198DF3EF";
paths = (
{
closed = 1;
nodes = (
"410 0 LINE",
"401 33 LINE",
"361 27 OFFCURVE",
"327 24 OFFCURVE",
"296 24 CURVE SMOOTH",
"164 24 OFFCURVE",
"120 73 OFFCURVE",
"120 218 CURVE SMOOTH",
"120 433 OFFCURVE",
"218 501 OFFCURVE",
"260 530 CURVE SMOOTH",
"283 546 OFFCURVE",
"314 564 OFFCURVE",
"339 564 CURVE SMOOTH",
"400 564 OFFCURVE",
"440 562 OFFCURVE",
"485 557 CURVE",
"501 591 LINE",
"332 591 LINE SMOOTH",
"301 591 OFFCURVE",
"218 538 OFFCURVE",
"169 482 CURVE",
"121 422 OFFCURVE",
"89 322 OFFCURVE",
"89 204 CURVE SMOOTH",
"89 73 OFFCURVE",
"140 0 OFFCURVE",
"272 0 CURVE SMOOTH"
);
},
{
closed = 1;
nodes = (
"647 0 LINE",
"650 19 LINE",
"401 28 LINE",
"378 0 LINE"
);
},
{
closed = 1;
nodes = (
"406 0 LINE",
"509 591 LINE",
"481 591 LINE",
"378 0 LINE"
);
},
{
closed = 1;
nodes = (
"720 570 LINE",
"723 591 LINE",
"481 591 LINE",
"488 563 LINE"
);
},
{
closed = 1;
nodes = (
"614 298 LINE",
"617 317 LINE",
"457 321 LINE",
"452 294 LINE"
);
},
{
closed = 1;
nodes = (
"624 0 LINE",
"656 0 LINE",
"679 136 LINE",
"660 137 LINE"
);
},
{
closed = 1;
nodes = (
"723 465 LINE",
"744 591 LINE",
"712 591 LINE",
"704 465 LINE"
);
}
);
width = 691;
},
{
layerId = "E259E77F-022A-45EF-A0F1-1168268390B3";
paths = (
{
closed = 1;
nodes = (
"522 0 LINE",
"498 112 LINE",
"422 95 OFFCURVE",
"371 87 OFFCURVE",
"328 87 CURVE SMOOTH",
"272 87 OFFCURVE",
"249 109 OFFCURVE",
"249 189 CURVE SMOOTH",
"249 263 OFFCURVE",
"288 482 OFFCURVE",
"333 508 CURVE SMOOTH",
"344 515 OFFCURVE",
"371 518 OFFCURVE",
"401 518 CURVE SMOOTH",
"432 518 OFFCURVE",
"466 515 OFFCURVE",
"493 507 CURVE",
"565 613 LINE",
"387 613 LINE SMOOTH",
"352 613 OFFCURVE",
"204 545 OFFCURVE",
"130 496 CURVE",
"96 415 OFFCURVE",
"58 280 OFFCURVE",
"58 202 CURVE SMOOTH",
"58 52 OFFCURVE",
"155 0 OFFCURVE",
"307 0 CURVE SMOOTH"
);
},
{
closed = 1;
nodes = (
"773 0 LINE",
"787 82 LINE",
"504 108 LINE",
"380 0 LINE"
);
},
{
closed = 1;
nodes = (
"562 0 LINE",
"667 613 LINE",
"485 613 LINE",
"380 0 LINE"
);
},
{
closed = 1;
nodes = (
"838 532 LINE",
"852 613 LINE",
"485 613 LINE",
"560 506 LINE"
);
},
{
closed = 1;
nodes = (
"737 269 LINE",
"753 362 LINE",
"593 368 LINE",
"577 263 LINE"
);
},
{
closed = 1;
nodes = (
"699 0 LINE",
"817 0 LINE",
"852 235 LINE",
"763 235 LINE"
);
},
{
closed = 1;
nodes = (
"878 384 LINE",
"915 613 LINE",
"798 613 LINE",
"789 384 LINE"
);
}
);
width = 858;
}
);
leftKerningGroup = O;
rightKerningGroup = E;
unicode = 0152;
},
{
glyphname = P;
lastChange = "2018-02-22 22:16:57 +0000";
layers = (
{
background = {
paths = (
{
closed = 1;
nodes = (
"185 215 LINE",
"300 215 LINE SMOOTH",
"395 215 OFFCURVE",
"492 270 OFFCURVE",
"518 429 CURVE",
"540 557 OFFCURVE",
"489 603 OFFCURVE",
"394 603 CURVE SMOOTH",
"142 603 LINE",
"135 565 LINE",
"219 536 LINE",
"234 538 OFFCURVE",
"372 552 OFFCURVE",
"391 552 CURVE SMOOTH",
"427 552 OFFCURVE",
"436 494 OFFCURVE",
"419 396 CURVE SMOOTH",
"398 277 OFFCURVE",
"371 272 OFFCURVE",
"321 272 CURVE SMOOTH",
"194 272 LINE"
);
},
{
closed = 1;
nodes = (
"293 603 LINE",
"202 603 LINE",
"97 0 LINE",
"188 0 LINE"
);
},
{
closed = 1;
nodes = (
"45 38 LINE",
"39 0 LINE",
"272 0 LINE",
"280 46 LINE",
"158 74 LINE"
);
}
);
};
layerId = "D9712079-C16A-42CB-8BA4-BD9ECFFACF10";
paths = (
{
closed = 1;
nodes = (
"300 215 LINE SMOOTH",
"444 215 OFFCURVE",
"523 340 OFFCURVE",
"523 483 CURVE SMOOTH",
"523 570 OFFCURVE",
"474 603 OFFCURVE",
"394 603 CURVE SMOOTH",
"142 603 LINE",
"135 565 LINE",
"219 536 LINE",
"234 538 OFFCURVE",
"372 552 OFFCURVE",
"391 552 CURVE SMOOTH",
"415 552 OFFCURVE",
"427 526 OFFCURVE",
"427 478 CURVE SMOOTH",
"427 427 OFFCURVE",
"420 272 OFFCURVE",
"331 272 CURVE SMOOTH",
"194 272 LINE",
"185 215 LINE"
);
},
{
closed = 1;
nodes = (
"272 0 LINE",
"280 46 LINE",
"158 74 LINE",
"45 38 LINE",
"39 0 LINE"
);
},
{
closed = 1;
nodes = (
"188 0 LINE",
"293 603 LINE",
"202 603 LINE",
"97 0 LINE"
);
}
);
width = 487;
},
{
layerId = "16B79A64-180D-495F-8650-CA27198DF3EF";
paths = (
{
closed = 1;
nodes = (
"267 241 LINE SMOOTH",
"399 241 OFFCURVE",
"465 345 OFFCURVE",
"465 477 CURVE SMOOTH",
"465 558 OFFCURVE",
"426 591 OFFCURVE",
"345 591 CURVE SMOOTH",
"151 591 LINE",
"148 576 LINE",
"227 563 LINE",
"281 565 OFFCURVE",
"344 567 OFFCURVE",
"363 567 CURVE SMOOTH",
"419 567 OFFCURVE",
"435 522 OFFCURVE",
"435 466 CURVE SMOOTH",
"435 360 OFFCURVE",
"379 267 OFFCURVE",
"289 267 CURVE SMOOTH",
"168 267 LINE",
"163 241 LINE"
);
},
{
closed = 1;
nodes = (
"223 0 LINE",
"226 18 LINE",
"132 28 LINE",
"54 15 LINE",
"51 0 LINE"
);
},
{
closed = 1;
nodes = (
"137 0 LINE",
"240 591 LINE",
"212 591 LINE",
"109 0 LINE"
);
}
);
width = 426;
},
{
background = {
paths = (
{
closed = 1;
nodes = (
"212 203 LINE",
"391 203 LINE SMOOTH",
"535 203 OFFCURVE",
"622 342 OFFCURVE",
"622 485 CURVE SMOOTH",
"622 572 OFFCURVE",
"553 613 OFFCURVE",
"473 613 CURVE SMOOTH",
"114 613 LINE",
"103 541 LINE",
"263 505 LINE",
"308 517 OFFCURVE",
"381 538 OFFCURVE",
"394 538 CURVE SMOOTH",
"420 538 OFFCURVE",
"438 524 OFFCURVE",
"438 474 CURVE SMOOTH",
"438 408 OFFCURVE",
"435 299 OFFCURVE",
"346 299 CURVE SMOOTH",
"228 299 LINE"
);
},
{
closed = 1;
nodes = (
"357 613 LINE",
"175 613 LINE",
"70 0 LINE",
"252 0 LINE"
);
},
{
closed = 1;
nodes = (
"23 72 LINE",
"12 0 LINE",
"351 0 LINE",
"364 80 LINE",
"194 108 LINE"
);
}
);
};
layerId = "E259E77F-022A-45EF-A0F1-1168268390B3";
paths = (
{
closed = 1;
nodes = (
"381 203 LINE SMOOTH",
"525 203 OFFCURVE",
"612 342 OFFCURVE",
"612 485 CURVE SMOOTH",
"612 572 OFFCURVE",
"543 613 OFFCURVE",
"463 613 CURVE SMOOTH",
"114 613 LINE",
"103 541 LINE",
"263 505 LINE",
"308 517 OFFCURVE",
"376 538 OFFCURVE",
"389 538 CURVE SMOOTH",
"415 538 OFFCURVE",
"428 524 OFFCURVE",
"428 474 CURVE SMOOTH",
"428 408 OFFCURVE",
"425 299 OFFCURVE",
"336 299 CURVE SMOOTH",
"228 299 LINE",
"212 203 LINE"
);
},
{
closed = 1;
nodes = (
"351 0 LINE",
"364 80 LINE",
"194 108 LINE",
"23 72 LINE",
"12 0 LINE"
);
},
{
closed = 1;
nodes = (
"252 0 LINE",
"357 613 LINE",
"175 613 LINE",
"70 0 LINE"
);
}
);
width = 549;
}
);
leftKerningGroup = H;
rightKerningGroup = P;
unicode = 0050;
},
{
glyphname = Thorn;
lastChange = "2018-02-22 22:17:06 +0000";
layers = (
{
layerId = "D9712079-C16A-42CB-8BA4-BD9ECFFACF10";
paths = (
{
closed = 1;
nodes = (
"286 136 LINE SMOOTH",
"381 136 OFFCURVE",
"479 195 OFFCURVE",
"502 333 CURVE SMOOTH",
"520 440 OFFCURVE",
"469 490 OFFCURVE",
"374 490 CURVE SMOOTH",
"232 490 LINE",
"221 427 LINE",
"236 429 OFFCURVE",
"353 439 OFFCURVE",
"372 439 CURVE SMOOTH",
"408 439 OFFCURVE",
"416 379 OFFCURVE",
"402 300 CURVE",
"387 205 OFFCURVE",
"358 193 OFFCURVE",
"308 193 CURVE SMOOTH",
"182 193 LINE",
"171 136 LINE"
);
},
{
closed = 1;
nodes = (
"272 0 LINE",
"280 46 LINE",
"158 74 LINE",
"45 38 LINE",
"39 0 LINE"
);
},
{
closed = 1;
nodes = (
"188 0 LINE",
"293 603 LINE",
"202 603 LINE",
"97 0 LINE"
);
},
{
closed = 1;
nodes = (
"346 557 LINE",
"354 603 LINE",
"141 603 LINE",
"135 565 LINE",
"239 529 LINE"
);
}
);
width = 483;
},
{
layerId = "16B79A64-180D-495F-8650-CA27198DF3EF";
paths = (
{
closed = 1;
nodes = (
"252 146 LINE SMOOTH",
"381 146 OFFCURVE",
"447 241 OFFCURVE",
"447 364 CURVE SMOOTH",
"447 443 OFFCURVE",
"407 466 OFFCURVE",
"328 466 CURVE SMOOTH",
"203 466 LINE",
"199 438 LINE",
"253 440 OFFCURVE",
"324 442 OFFCURVE",
"343 442 CURVE SMOOTH",
"399 442 OFFCURVE",
"417 407 OFFCURVE",
"417 351 CURVE SMOOTH",
"417 261 OFFCURVE",
"365 172 OFFCURVE",
"275 172 CURVE SMOOTH",
"150 172 LINE",
"145 146 LINE"
);
},
{
closed = 1;
nodes = (
"199 0 LINE",
"202 18 LINE",
"128 28 LINE",
"50 15 LINE",
"47 0 LINE"
);
},
{
closed = 1;
nodes = (
"133 0 LINE",
"236 591 LINE",
"208 591 LINE",
"105 0 LINE"
);
},
{
closed = 1;
nodes = (
"296 573 LINE",
"299 591 LINE",
"147 591 LINE",
"144 576 LINE",
"222 563 LINE"
);
}
);
width = 417;
},
{
layerId = "E259E77F-022A-45EF-A0F1-1168268390B3";
paths = (
{
closed = 1;
nodes = (
"391 138 LINE SMOOTH",
"535 138 OFFCURVE",
"622 237 OFFCURVE",
"622 380 CURVE SMOOTH",
"622 467 OFFCURVE",
"558 498 OFFCURVE",
"478 498 CURVE SMOOTH",
"293 498 LINE",
"263 402 LINE",
"309 412 OFFCURVE",
"376 423 OFFCURVE",
"393 423 CURVE SMOOTH",
"421 423 OFFCURVE",
"438 414 OFFCURVE",
"438 377 CURVE SMOOTH",
"438 309 OFFCURVE",
"433 234 OFFCURVE",
"346 234 CURVE SMOOTH",
"228 234 LINE",
"212 138 LINE"
);
},
{
closed = 1;
nodes = (
"341 0 LINE",
"354 80 LINE",
"194 108 LINE",
"23 72 LINE",
"12 0 LINE"
);
},
{
closed = 1;
nodes = (
"252 0 LINE",
"357 613 LINE",
"175 613 LINE",
"70 0 LINE"
);
},
{
closed = 1;
nodes = (
"400 541 LINE",
"413 613 LINE",
"114 613 LINE",
"103 541 LINE",
"263 505 LINE"
);
}
);
width = 601;
}
);
leftKerningGroup = H;
rightKerningGroup = Thorn;
unicode = 00DE;
},
{
glyphname = Q;
lastChange = "2018-02-12 15:37:00 +0000";
layers = (
{
layerId = "D9712079-C16A-42CB-8BA4-BD9ECFFACF10";
paths = (
{
closed = 1;
nodes = (
"307 611 OFFCURVE",
"186 538 OFFCURVE",
"151 495 CURVE",
"114 435 OFFCURVE",
"80 299 OFFCURVE",
"80 203 CURVE SMOOTH",
"80 56 OFFCURVE",
"146 -9 OFFCURVE",
"295 -9 CURVE SMOOTH",
"324 -9 OFFCURVE",
"438 62 OFFCURVE",
"479 108 CURVE",
"513 192 OFFCURVE",
"547 315 OFFCURVE",
"547 409 CURVE SMOOTH",
"547 550 OFFCURVE",
"474 611 OFFCURVE",
"332 611 CURVE SMOOTH"
);
},
{
closed = 1;
nodes = (
"444 -118 LINE",
"476 -62 LINE",
"285 12 LINE",
"211 12 LINE",
"399 -118 LINE"
);
},
{
closed = 1;
nodes = (
"414 548 OFFCURVE",
"452 515 OFFCURVE",
"452 427 CURVE SMOOTH",
"452 340 OFFCURVE",
"419 177 OFFCURVE",
"387 94 CURVE",
"381 86 OFFCURVE",
"312 51 OFFCURVE",
"297 51 CURVE SMOOTH",
"200 51 OFFCURVE",
"174 91 OFFCURVE",
"174 196 CURVE SMOOTH",
"174 339 OFFCURVE",
"221 514 OFFCURVE",
"278 537 CURVE SMOOTH",
"298 545 OFFCURVE",
"316 548 OFFCURVE",
"343 548 CURVE SMOOTH"
);
}
);
width = 526;
},
{
layerId = "16B79A64-180D-495F-8650-CA27198DF3EF";
paths = (
{
closed = 1;
nodes = (
"296 601 OFFCURVE",
"213 547 OFFCURVE",
"164 491 CURVE",
"118 426 OFFCURVE",
"84 319 OFFCURVE",
"84 204 CURVE SMOOTH",
"84 73 OFFCURVE",
"135 -9 OFFCURVE",
"267 -9 CURVE SMOOTH",
"297 -9 OFFCURVE",
"392 53 OFFCURVE",
"433 101 CURVE",
"483 184 OFFCURVE",
"510 304 OFFCURVE",
"510 388 CURVE SMOOTH",
"510 519 OFFCURVE",
"459 601 OFFCURVE",
"327 601 CURVE SMOOTH"
);
},
{
closed = 1;
nodes = (
"422 -102 LINE",
"436 -80 LINE",
"261 5 LINE",
"229 5 LINE",
"408 -102 LINE"
);
},
{
closed = 1;
nodes = (
"441 572 OFFCURVE",
"478 492 OFFCURVE",
"478 387 CURVE SMOOTH",
"478 302 OFFCURVE",
"456 190 OFFCURVE",
"412 114 CURVE",
"384 83 OFFCURVE",
"309 20 OFFCURVE",
"264 20 CURVE SMOOTH",
"161 20 OFFCURVE",
"116 86 OFFCURVE",
"116 205 CURVE SMOOTH",
"116 444 OFFCURVE",
"213 510 OFFCURVE",
"255 540 CURVE SMOOTH",
"278 556 OFFCURVE",
"306 572 OFFCURVE",
"333 572 CURVE SMOOTH"
);
}
);
width = 496;
},
{
background = {
anchors = (
{
name = ogonek;
position = "{308, 0}";
},
{
name = top;
position = "{392, 650}";
}
);
paths = (
{
closed = 1;
nodes = (
"344 -13 OFFCURVE",
"488 48 OFFCURVE",
"564 104 CURVE",
"598 188 OFFCURVE",
"635 329 OFFCURVE",
"635 423 CURVE SMOOTH",
"635 574 OFFCURVE",
"539 625 OFFCURVE",
"387 625 CURVE SMOOTH",
"352 625 OFFCURVE",
"204 557 OFFCURVE",
"130 508 CURVE",
"96 427 OFFCURVE",
"58 280 OFFCURVE",
"58 189 CURVE SMOOTH",
"58 39 OFFCURVE",
"155 -13 OFFCURVE",
"307 -13 CURVE SMOOTH"
);
},
{
closed = 1;
nodes = (
"262 79 OFFCURVE",
"249 112 OFFCURVE",
"249 189 CURVE SMOOTH",
"249 263 OFFCURVE",
"291 502 OFFCURVE",
"333 520 CURVE SMOOTH",
"349 527 OFFCURVE",
"364 529 OFFCURVE",
"379 529 CURVE SMOOTH",
"427 529 OFFCURVE",
"444 494 OFFCURVE",
"444 417 CURVE SMOOTH",
"444 341 OFFCURVE",
"415 172 OFFCURVE",
"386 102 CURVE",
"371 93 OFFCURVE",
"337 79 OFFCURVE",
"332 79 CURVE SMOOTH"
);
}
);
};
layerId = "E259E77F-022A-45EF-A0F1-1168268390B3";
paths = (
{
closed = 1;
nodes = (
"352 625 OFFCURVE",
"204 557 OFFCURVE",
"130 508 CURVE",
"96 427 OFFCURVE",
"58 280 OFFCURVE",
"58 189 CURVE SMOOTH",
"58 39 OFFCURVE",
"155 -13 OFFCURVE",
"307 -13 CURVE SMOOTH",
"344 -13 OFFCURVE",
"488 48 OFFCURVE",
"564 104 CURVE",
"598 188 OFFCURVE",
"635 329 OFFCURVE",
"635 423 CURVE SMOOTH",
"635 574 OFFCURVE",
"539 625 OFFCURVE",
"387 625 CURVE SMOOTH"
);
},
{
closed = 1;
nodes = (
"496 -167 LINE",
"565 -40 LINE",
"344 20 LINE",
"184 20 LINE",
"427 -167 LINE"
);
},
{
closed = 1;
nodes = (
"427 529 OFFCURVE",
"444 494 OFFCURVE",
"444 417 CURVE SMOOTH",
"444 341 OFFCURVE",
"415 172 OFFCURVE",
"386 102 CURVE",
"371 93 OFFCURVE",
"337 79 OFFCURVE",
"332 79 CURVE SMOOTH",
"262 79 OFFCURVE",
"249 112 OFFCURVE",
"249 189 CURVE SMOOTH",
"249 263 OFFCURVE",
"291 502 OFFCURVE",
"333 520 CURVE SMOOTH",
"349 527 OFFCURVE",
"364 529 OFFCURVE",
"379 529 CURVE SMOOTH"
);
}
);
width = 597;
}
);
leftKerningGroup = O;
rightKerningGroup = O;
unicode = 0051;
},
{
glyphname = R;
lastChange = "2018-02-22 22:18:12 +0000";
layers = (
{
anchors = (
{
name = bottom;
position = "{279, 0}";
},
{
name = top;
position = "{352, 603}";
}
);
layerId = "D9712079-C16A-42CB-8BA4-BD9ECFFACF10";
paths = (
{
closed = 1;
nodes = (
"298 260 LINE SMOOTH",
"428 260 OFFCURVE",
"517 375 OFFCURVE",
"517 492 CURVE SMOOTH",
"517 575 OFFCURVE",
"466 603 OFFCURVE",
"384 603 CURVE SMOOTH",
"142 603 LINE",
"135 565 LINE",
"221 535 LINE",
"234 537 OFFCURVE",
"365 552 OFFCURVE",
"381 552 CURVE SMOOTH",
"407 552 OFFCURVE",
"420 533 OFFCURVE",
"420 489 CURVE SMOOTH",
"420 412 OFFCURVE",
"405 317 OFFCURVE",
"325 317 CURVE SMOOTH",
"212 317 LINE",
"202 260 LINE"
);
},
{
closed = 1;
nodes = (
"252 0 LINE",
"260 46 LINE",
"158 74 LINE",
"45 38 LINE",
"39 0 LINE"
);
},
{
closed = 1;
nodes = (
"188 0 LINE",
"293 603 LINE",
"202 603 LINE",
"97 0 LINE"
);
},
{
closed = 1;
nodes = (
"498 0 LINE",
"505 42 LINE",
"456 57 LINE",
"436 100 OFFCURVE",
"395 190 OFFCURVE",
"366 262 CURVE",
"369 284 LINE",
"283 284 LINE",
"372 0 LINE"
);
}
);
width = 505;
},
{
anchors = (
{
name = bottom;
position = "{250, 0}";
},
{
name = top;
position = "{335, 591}";
}
);
hints = (
{
place = "{1243.977, 0}";
}
);
layerId = "16B79A64-180D-495F-8650-CA27198DF3EF";
paths = (
{
closed = 1;
nodes = (
"292 276 LINE SMOOTH",
"393 276 OFFCURVE",
"460 382 OFFCURVE",
"460 483 CURVE SMOOTH",
"460 564 OFFCURVE",
"423 591 OFFCURVE",
"342 591 CURVE SMOOTH",
"151 591 LINE",
"148 576 LINE",
"227 563 LINE",
"281 565 OFFCURVE",
"337 566 OFFCURVE",
"356 566 CURVE SMOOTH",
"412 566 OFFCURVE",
"430 529 OFFCURVE",
"430 473 CURVE SMOOTH",
"430 391 OFFCURVE",
"381 302 OFFCURVE",
"297 302 CURVE SMOOTH",
"172 302 LINE",
"168 276 LINE"
);
},
{
closed = 1;
nodes = (
"203 0 LINE",
"206 18 LINE",
"132 28 LINE",
"54 15 LINE",
"51 0 LINE"
);
},
{
closed = 1;
nodes = (
"137 0 LINE",
"240 591 LINE",
"212 591 LINE",
"109 0 LINE"
);
},
{
closed = 1;
nodes = (
"471 0 LINE",
"473 18 LINE",
"411 27 LINE",
"391 70 OFFCURVE",
"343 199 OFFCURVE",
"314 271 CURVE",
"317 284 LINE",
"284 284 LINE",
"383 0 LINE"
);
}
);
width = 464;
},
{
anchors = (
{
name = bottom;
position = "{313, 0}";
},
{
name = top;
position = "{383, 613}";
}
);
layerId = "E259E77F-022A-45EF-A0F1-1168268390B3";
paths = (
{
closed = 1;
nodes = (
"392 240 LINE SMOOTH",
"528 240 OFFCURVE",
"615 370 OFFCURVE",
"615 497 CURVE SMOOTH",
"615 580 OFFCURVE",
"554 613 OFFCURVE",
"472 613 CURVE SMOOTH",
"114 613 LINE",
"103 541 LINE",
"263 505 LINE",
"311 517 OFFCURVE",
"376 538 OFFCURVE",
"392 538 CURVE SMOOTH",
"421 538 OFFCURVE",
"431 519 OFFCURVE",
"431 475 CURVE SMOOTH",
"431 403 OFFCURVE",
"415 337 OFFCURVE",
"339 337 CURVE SMOOTH",
"244 337 LINE",
"227 240 LINE"
);
},
{
closed = 1;
nodes = (
"311 0 LINE",
"324 80 LINE",
"194 108 LINE",
"23 72 LINE",
"12 0 LINE"
);
},
{
closed = 1;
nodes = (
"252 0 LINE",
"357 613 LINE",
"175 613 LINE",
"70 0 LINE"
);
},
{
closed = 1;
nodes = (
"603 0 LINE",
"613 72 LINE",
"556 100 LINE",
"535 149 OFFCURVE",
"518 190 OFFCURVE",
"495 259 CURVE",
"498 281 LINE",
"325 281 LINE",
"382 0 LINE"
);
}
);
width = 588;
}
);
leftKerningGroup = H;
rightKerningGroup = R;
unicode = 0052;
},
{
glyphname = S;
lastChange = "2018-02-12 15:37:00 +0000";
layers = (
{
anchors = (
{
name = bottom;
position = "{217, 0}";
},
{
name = top;
position = "{320, 603}";
}
);
background = {
paths = (
{
closed = 1;
nodes = (
"131 1 LINE",
"142 184 LINE",
"90 184 LINE",
"49 1 LINE"
);
},
{
closed = 1;
nodes = (
"388 595 LINE",
"379 422 LINE",
"431 422 LINE",
"471 595 LINE"
);
},
{
closed = 1;
nodes = (
"471 595 LINE",
"415 601 OFFCURVE",
"331 611 OFFCURVE",
"312 611 CURVE SMOOTH",
"278 611 OFFCURVE",
"163 533 OFFCURVE",
"133 488 CURVE",
"126 469 OFFCURVE",
"122 452 OFFCURVE",
"119 436 CURVE SMOOTH",
"109 376 OFFCURVE",
"131 325 OFFCURVE",
"216 273 CURVE SMOOTH",
"299 223 OFFCURVE",
"339 190 OFFCURVE",
"330 137 CURVE SMOOTH",
"324 101 OFFCURVE",
"286 55 OFFCURVE",
"276 55 CURVE SMOOTH",
"236 55 OFFCURVE",
"184 65 OFFCURVE",
"135 72 CURVE",
"49 1 LINE",
"106 -4 OFFCURVE",
"185 -9 OFFCURVE",
"233 -9 CURVE SMOOTH",
"271 -9 OFFCURVE",
"377 62 OFFCURVE",
"412 114 CURVE",
"417 126 OFFCURVE",
"422 146 OFFCURVE",
"425 163 CURVE SMOOTH",
"444 267 OFFCURVE",
"344 315 OFFCURVE",
"281 358 CURVE SMOOTH",
"228 395 OFFCURVE",
"202 418 OFFCURVE",
"210 469 CURVE SMOOTH",
"216 502 OFFCURVE",
"238 547 OFFCURVE",
"253 547 CURVE SMOOTH",
"283 547 OFFCURVE",
"349 531 OFFCURVE",
"385 524 CURVE"
);
}
);
};
layerId = "D9712079-C16A-42CB-8BA4-BD9ECFFACF10";
paths = (
{
closed = 1;
nodes = (
"271 -9 OFFCURVE",
"377 62 OFFCURVE",
"412 114 CURVE",
"419 130 OFFCURVE",
"427 165 OFFCURVE",
"427 188 CURVE SMOOTH",
"427 275 OFFCURVE",
"344 315 OFFCURVE",
"281 358 CURVE SMOOTH",
"241 384 OFFCURVE",
"209 412 OFFCURVE",
"209 452 CURVE SMOOTH",
"209 509 OFFCURVE",
"235 542 OFFCURVE",
"253 542 CURVE SMOOTH",
"283 542 OFFCURVE",
"349 531 OFFCURVE",
"385 524 CURVE",
"471 595 LINE",
"415 601 OFFCURVE",
"331 611 OFFCURVE",
"312 611 CURVE SMOOTH",
"278 611 OFFCURVE",
"163 533 OFFCURVE",
"133 488 CURVE",
"124 468 OFFCURVE",
"117 436 OFFCURVE",
"117 410 CURVE SMOOTH",
"117 341 OFFCURVE",
"169 303 OFFCURVE",
"221 270 CURVE SMOOTH",
"276 235 OFFCURVE",
"331 205 OFFCURVE",
"331 151 CURVE SMOOTH",
"331 126 OFFCURVE",
"297 58 OFFCURVE",
"276 58 CURVE SMOOTH",
"236 58 OFFCURVE",
"184 65 OFFCURVE",
"135 72 CURVE",
"49 1 LINE",
"106 -4 OFFCURVE",
"185 -9 OFFCURVE",
"233 -9 CURVE SMOOTH"
);
},
{
closed = 1;
nodes = (
"49 1 LINE",
"131 1 LINE",
"142 184 LINE",
"90 184 LINE"
);
},
{
closed = 1;
nodes = (
"431 422 LINE",
"471 595 LINE",
"388 595 LINE",
"379 422 LINE"
);
}
);
width = 423;
},
{
anchors = (
{
name = bottom;
position = "{195, 0}";
},
{
name = top;
position = "{290, 591}";
}
);
background = {
paths = (
{
closed = 1;
nodes = (
"384 584 LINE",
"375 458 LINE",
"393 458 LINE",
"418 584 LINE"
);
},
{
closed = 1;
nodes = (
"418 585 LINE",
"376 593 OFFCURVE",
"294 601 OFFCURVE",
"253 601 CURVE SMOOTH",
"230 601 OFFCURVE",
"156 541 OFFCURVE",
"127 501 CURVE",
"116 480 OFFCURVE",
"111 460 OFFCURVE",
"111 439 CURVE SMOOTH",
"111 387 OFFCURVE",
"163 348 OFFCURVE",
"220 305 CURVE SMOOTH",
"282 258 OFFCURVE",
"350 230 OFFCURVE",
"350 172 CURVE SMOOTH",
"350 88 OFFCURVE",
"264 15 OFFCURVE",
"239 15 CURVE SMOOTH",
"211 15 OFFCURVE",
"132 24 OFFCURVE",
"82 32 CURVE",
"48 8 LINE",
"108 0 OFFCURVE",
"202 -8 OFFCURVE",
"239 -8 CURVE SMOOTH",
"284 -8 OFFCURVE",
"348 70 OFFCURVE",
"371 121 CURVE",
"377 141 OFFCURVE",
"380 156 OFFCURVE",
"380 180 CURVE SMOOTH",
"380 236 OFFCURVE",
"302 281 OFFCURVE",
"237 329 CURVE SMOOTH",
"184 367 OFFCURVE",
"140 398 OFFCURVE",
"140 450 CURVE SMOOTH",
"140 510 OFFCURVE",
"236 576 OFFCURVE",
"260 576 CURVE SMOOTH",
"284 576 OFFCURVE",
"363 571 OFFCURVE",
"403 557 CURVE"
);
},
{
closed = 1;
nodes = (
"82 8 LINE",
"94 144 LINE",
"76 144 LINE",
"48 8 LINE"
);
}
);
};
layerId = "16B79A64-180D-495F-8650-CA27198DF3EF";
paths = (
{
closed = 1;
nodes = (
"284 -8 OFFCURVE",
"348 70 OFFCURVE",
"371 121 CURVE",
"377 141 OFFCURVE",
"380 156 OFFCURVE",
"380 180 CURVE SMOOTH",
"380 236 OFFCURVE",
"302 281 OFFCURVE",
"237 329 CURVE SMOOTH",
"184 367 OFFCURVE",
"140 398 OFFCURVE",
"140 450 CURVE SMOOTH",
"140 510 OFFCURVE",
"236 576 OFFCURVE",
"260 576 CURVE SMOOTH",
"284 576 OFFCURVE",
"363 571 OFFCURVE",
"403 557 CURVE",
"418 585 LINE",
"376 593 OFFCURVE",
"294 601 OFFCURVE",
"253 601 CURVE SMOOTH",
"230 601 OFFCURVE",
"156 541 OFFCURVE",
"127 501 CURVE",
"116 480 OFFCURVE",
"111 460 OFFCURVE",
"111 439 CURVE SMOOTH",
"111 387 OFFCURVE",
"163 348 OFFCURVE",
"220 305 CURVE SMOOTH",
"282 258 OFFCURVE",
"350 230 OFFCURVE",
"350 172 CURVE SMOOTH",
"350 88 OFFCURVE",
"264 15 OFFCURVE",
"239 15 CURVE SMOOTH",
"211 15 OFFCURVE",
"132 24 OFFCURVE",
"82 32 CURVE",
"48 8 LINE",
"108 0 OFFCURVE",
"202 -8 OFFCURVE",
"239 -8 CURVE SMOOTH"
);
},
{
closed = 1;
nodes = (
"48 8 LINE",
"82 8 LINE",
"94 144 LINE",
"76 144 LINE"
);
},
{
closed = 1;
nodes = (
"393 458 LINE",
"418 584 LINE",
"384 584 LINE",
"375 458 LINE"
);
}
);
width = 378;
},
{
anchors = (
{
name = bottom;
position = "{238, 0}";
},
{
name = top;
position = "{332, 613}";
}
);
background = {
paths = (
{
closed = 1;
nodes = (
"302 -9 OFFCURVE",
"437 61 OFFCURVE",
"472 113 CURVE",
"479 129 OFFCURVE",
"487 164 OFFCURVE",
"487 187 CURVE SMOOTH",
"487 274 OFFCURVE",
"402 328 OFFCURVE",
"339 383 CURVE SMOOTH",
"301 415 OFFCURVE",
"271 448 OFFCURVE",
"271 487 CURVE SMOOTH",
"271 519 OFFCURVE",
"279 532 OFFCURVE",
"297 532 CURVE SMOOTH",
"327 532 OFFCURVE",
"408 516 OFFCURVE",
"444 509 CURVE",
"535 610 LINE",
"479 616 OFFCURVE",
"345 626 OFFCURVE",
"326 626 CURVE SMOOTH",
"292 626 OFFCURVE",
"140 549 OFFCURVE",
"110 504 CURVE",
"103 484 OFFCURVE",
"94 450 OFFCURVE",
"94 426 CURVE SMOOTH",
"94 349 OFFCURVE",
"158 300 OFFCURVE",
"215 255 CURVE SMOOTH",
"261 218 OFFCURVE",
"303 184 OFFCURVE",
"303 138 CURVE SMOOTH",
"303 122 OFFCURVE",
"282 88 OFFCURVE",
"268 88 CURVE SMOOTH",
"228 88 OFFCURVE",
"157 98 OFFCURVE",
"108 105 CURVE",
"22 1 LINE",
"79 -4 OFFCURVE",
"176 -9 OFFCURVE",
"264 -9 CURVE SMOOTH"
);
},
{
closed = 1;
nodes = (
"22 1 LINE",
"145 1 LINE",
"162 242 LINE",
"69 242 LINE"
);
},
{
closed = 1;
nodes = (
"490 391 LINE",
"535 610 LINE",
"412 610 LINE",
"397 391 LINE"
);
}
);
};
layerId = "E259E77F-022A-45EF-A0F1-1168268390B3";
paths = (
{
closed = 1;
nodes = (
"302 -9 OFFCURVE",
"437 61 OFFCURVE",
"472 113 CURVE",
"479 129 OFFCURVE",
"487 164 OFFCURVE",
"487 187 CURVE SMOOTH",
"487 274 OFFCURVE",
"402 328 OFFCURVE",
"339 383 CURVE SMOOTH",
"301 415 OFFCURVE",
"271 448 OFFCURVE",
"271 487 CURVE SMOOTH",
"271 519 OFFCURVE",
"279 528 OFFCURVE",
"297 528 CURVE SMOOTH",
"327 528 OFFCURVE",
"408 516 OFFCURVE",
"444 509 CURVE",
"535 610 LINE",
"479 616 OFFCURVE",
"345 626 OFFCURVE",
"326 626 CURVE SMOOTH",
"292 626 OFFCURVE",
"140 549 OFFCURVE",
"110 504 CURVE",
"103 484 OFFCURVE",
"94 450 OFFCURVE",
"94 426 CURVE SMOOTH",
"94 349 OFFCURVE",
"158 300 OFFCURVE",
"215 255 CURVE SMOOTH",
"261 218 OFFCURVE",
"303 184 OFFCURVE",
"303 138 CURVE SMOOTH",
"303 122 OFFCURVE",
"286 92 OFFCURVE",
"268 92 CURVE SMOOTH",
"228 92 OFFCURVE",
"157 98 OFFCURVE",
"108 105 CURVE",
"22 1 LINE",
"79 -4 OFFCURVE",
"176 -9 OFFCURVE",
"264 -9 CURVE SMOOTH"
);
},
{
closed = 1;
nodes = (
"22 1 LINE",
"145 1 LINE",
"162 242 LINE",
"69 242 LINE"
);
},
{
closed = 1;
nodes = (
"490 391 LINE",
"535 610 LINE",
"412 610 LINE",
"397 391 LINE"
);
}
);
width = 470;
}
);
leftKerningGroup = S;
rightKerningGroup = S;
unicode = 0053;
},
{
glyphname = Germandbls;
lastChange = "2018-02-22 22:18:24 +0000";
layers = (
{
background = {
paths = (
{
closed = 1;
nodes = (
"189 0 LINE",
"253 374 LINE SMOOTH",
"274 497 OFFCURVE",
"305 528 OFFCURVE",
"330 541 CURVE",
"370 551 OFFCURVE",
"473 544 OFFCURVE",
"534 507 CURVE",
"577 605 OFFCURVE",
"467 611 OFFCURVE",
"401 611 CURVE",
"383 611 OFFCURVE",
"278 566 OFFCURVE",
"210 507 CURVE",
"188 473 OFFCURVE",
"173 430 OFFCURVE",
"158 343 CURVE SMOOTH",
"98 0 LINE"
);
},
{
closed = 1;
nodes = (
"141 0 LINE",
"151 72 LINE",
"46 38 LINE",
"40 0 LINE"
);
},
{
closed = 1;
nodes = (
"240 1 LINE",
"322 1 LINE",
"333 184 LINE",
"281 184 LINE"
);
},
{
closed = 1;
nodes = (
"444 -9 OFFCURVE",
"545 42 OFFCURVE",
"580 94 CURVE",
"587 110 OFFCURVE",
"595 145 OFFCURVE",
"595 168 CURVE SMOOTH",
"595 294 OFFCURVE",
"416 334 OFFCURVE",
"416 423 CURVE SMOOTH",
"416 465 OFFCURVE",
"433 490 OFFCURVE",
"446 499 CURVE",
"466 506 OFFCURVE",
"499 509 OFFCURVE",
"534 507 CURVE",
"534 572 LINE",
"498 572 OFFCURVE",
"379 515 OFFCURVE",
"345 462 CURVE",
"334 441 OFFCURVE",
"327 416 OFFCURVE",
"327 383 CURVE SMOOTH",
"327 268 OFFCURVE",
"502 233 OFFCURVE",
"502 131 CURVE SMOOTH",
"502 106 OFFCURVE",
"474 55 OFFCURVE",
"453 55 CURVE SMOOTH",
"415 55 OFFCURVE",
"364 64 OFFCURVE",
"326 72 CURVE",
"240 1 LINE",
"297 -4 OFFCURVE",
"358 -9 OFFCURVE",
"406 -9 CURVE SMOOTH"
);
}
);
};
layerId = "D9712079-C16A-42CB-8BA4-BD9ECFFACF10";
paths = (
{
closed = 1;
nodes = (
"134 565 LINE",
"193 545 LINE",
"107 58 LINE",
"41 38 LINE",
"35 0 LINE",
"190 0 LINE",
"285 540 LINE",
"530 554 LINE",
"621 568 LINE",
"606 603 LINE",
"141 603 LINE"
);
},
{
closed = 1;
nodes = (
"236 1 LINE",
"318 1 LINE",
"334 184 LINE",
"282 184 LINE"
);
},
{
closed = 1;
nodes = (
"417 340 OFFCURVE",
"390 339 OFFCURVE",
"363 336 CURVE",
"353 289 LINE",
"487 289 LINE SMOOTH",
"508 289 OFFCURVE",
"516 268 OFFCURVE",
"516 237 CURVE SMOOTH",
"516 185 OFFCURVE",
"482 68 OFFCURVE",
"437 60 CURVE SMOOTH",
"416 56 OFFCURVE",
"304 53 OFFCURVE",
"256 53 CURVE",
"236 1 LINE",
"274 -2 OFFCURVE",
"371 -9 OFFCURVE",
"392 -9 CURVE SMOOTH",
"500 -9 OFFCURVE",
"613 129 OFFCURVE",
"613 237 CURVE SMOOTH",
"613 315 OFFCURVE",
"540 340 OFFCURVE",
"442 340 CURVE SMOOTH"
);
},
{
closed = 1;
nodes = (
"326 341 LINE",
"352 288 LINE",
"418 333 LINE",
"414 347 LINE",
"621 568 LINE",
"536 587 LINE"
);
}
);
width = 567;
},
{
background = {
paths = (
{
closed = 1;
nodes = (
"132 0 LINE",
"210 427 LINE SMOOTH",
"222 492 OFFCURVE",
"285 546 OFFCURVE",
"368 572 CURVE",
"400 572 OFFCURVE",
"443 563 OFFCURVE",
"476 528 CURVE",
"501 565 OFFCURVE",
"430 599 OFFCURVE",
"371 599 CURVE",
"348 599 OFFCURVE",
"267 561 OFFCURVE",
"215 503 CURVE",
"191 470 OFFCURVE",
"182 441 OFFCURVE",
"174 398 CURVE SMOOTH",
"104 0 LINE"
);
},
{
closed = 1;
nodes = (
"122 0 LINE",
"127 28 LINE",
"49 18 LINE",
"46 0 LINE"
);
},
{
closed = 1;
nodes = (
"204 8 LINE",
"238 8 LINE",
"250 144 LINE",
"232 144 LINE"
);
},
{
closed = 1;
nodes = (
"430 -8 OFFCURVE",
"494 56 OFFCURVE",
"517 107 CURVE",
"523 127 OFFCURVE",
"526 142 OFFCURVE",
"526 166 CURVE SMOOTH",
"526 272 OFFCURVE",
"308 324 OFFCURVE",
"308 420 CURVE SMOOTH",
"308 475 OFFCURVE",
"370 509 OFFCURVE",
"415 528 CURVE",
"432 532 OFFCURVE",
"461 532 OFFCURVE",
"476 528 CURVE",
"455 564 LINE",
"382 547 OFFCURVE",
"330 512 OFFCURVE",
"295 473 CURVE",
"284 451 OFFCURVE",
"279 432 OFFCURVE",
"279 409 CURVE SMOOTH",
"279 309 OFFCURVE",
"496 257 OFFCURVE",
"496 160 CURVE SMOOTH",
"496 76 OFFCURVE",
"410 15 OFFCURVE",
"385 15 CURVE SMOOTH",
"357 15 OFFCURVE",
"288 24 OFFCURVE",
"238 32 CURVE",
"204 8 LINE",
"264 0 OFFCURVE",
"348 -8 OFFCURVE",
"385 -8 CURVE SMOOTH"
);
}
);
};
layerId = "16B79A64-180D-495F-8650-CA27198DF3EF";
paths = (
{
closed = 1;
nodes = (
"147 574 LINE",
"203 566 LINE",
"108 25 LINE",
"50 17 LINE",
"47 0 LINE",
"134 0 LINE",
"233 564 LINE",
"539 571 LINE",
"557 575 LINE",
"546 591 LINE",
"151 591 LINE"
);
},
{
closed = 1;
nodes = (
"203 8 LINE",
"237 8 LINE",
"249 144 LINE",
"231 144 LINE"
);
},
{
closed = 1;
nodes = (
"369 321 OFFCURVE",
"346 320 OFFCURVE",
"321 318 CURVE",
"316 298 LINE",
"418 298 LINE SMOOTH",
"469 298 OFFCURVE",
"500 272 OFFCURVE",
"500 227 CURVE SMOOTH",
"500 158 OFFCURVE",
"433 60 OFFCURVE",
"370 24 CURVE SMOOTH",
"351 12 OFFCURVE",
"266 21 OFFCURVE",
"208 26 CURVE",
"203 8 LINE",
"235 3 OFFCURVE",
"298 -9 OFFCURVE",
"324 -9 CURVE SMOOTH",
"418 -9 OFFCURVE",
"529 137 OFFCURVE",
"529 236 CURVE SMOOTH",
"529 299 OFFCURVE",
"479 321 OFFCURVE",
"390 321 CURVE SMOOTH"
);
},
{
closed = 1;
nodes = (
"304 316 LINE",
"316 298 LINE",
"342 312 LINE",
"337 326 LINE",
"557 575 LINE",
"523 576 LINE"
);
}
);
width = 497;
},
{
background = {
paths = (
{
closed = 1;
nodes = (
"247 0 LINE",
"311 369 LINE SMOOTH",
"332 492 OFFCURVE",
"362 508 OFFCURVE",
"387 521 CURVE",
"427 531 OFFCURVE",
"579 506 OFFCURVE",
"640 469 CURVE",
"719 611 OFFCURVE",
"527 624 OFFCURVE",
"461 624 CURVE",
"443 624 OFFCURVE",
"246 566 OFFCURVE",
"178 507 CURVE",
"156 473 OFFCURVE",
"141 430 OFFCURVE",
"126 343 CURVE SMOOTH",
"65 0 LINE"
);
},
{
closed = 1;
nodes = (
"174 0 LINE",
"189 108 LINE",
"18 72 LINE",
"7 0 LINE"
);
},
{
closed = 1;
nodes = (
"281 1 LINE",
"404 1 LINE",
"418 202 LINE",
"325 202 LINE"
);
},
{
closed = 1;
nodes = (
"552 -9 OFFCURVE",
"685 61 OFFCURVE",
"720 113 CURVE",
"727 129 OFFCURVE",
"735 164 OFFCURVE",
"735 187 CURVE SMOOTH",
"735 324 OFFCURVE",
"540 325 OFFCURVE",
"540 428 CURVE SMOOTH",
"540 446 OFFCURVE",
"545 464 OFFCURVE",
"558 474 CURVE",
"577 479 OFFCURVE",
"610 478 OFFCURVE",
"640 469 CURVE",
"615 574 LINE",
"562 574 OFFCURVE",
"411 490 OFFCURVE",
"381 445 CURVE",
"373 425 OFFCURVE",
"365 395 OFFCURVE",
"365 367 CURVE SMOOTH",
"365 239 OFFCURVE",
"553 239 OFFCURVE",
"553 138 CURVE SMOOTH",
"553 122 OFFCURVE",
"532 88 OFFCURVE",
"518 88 CURVE SMOOTH",
"478 88 OFFCURVE",
"416 98 OFFCURVE",
"367 105 CURVE",
"281 1 LINE",
"338 -4 OFFCURVE",
"426 -9 OFFCURVE",
"514 -9 CURVE SMOOTH"
);
}
);
};
layerId = "E259E77F-022A-45EF-A0F1-1168268390B3";
paths = (
{
closed = 1;
nodes = (
"102 540 LINE",
"157 515 LINE",
"83 97 LINE",
"19 72 LINE",
"6 0 LINE",
"251 0 LINE",
"341 510 LINE",
"647 526 LINE",
"744 565 LINE",
"726 612 LINE",
"114 612 LINE"
);
},
{
closed = 1;
nodes = (
"291 1 LINE",
"414 1 LINE",
"428 202 LINE",
"335 202 LINE"
);
},
{
closed = 1;
nodes = (
"510 346 OFFCURVE",
"470 342 OFFCURVE",
"425 334 CURVE",
"409 259 LINE",
"488 259 LINE SMOOTH",
"510 259 OFFCURVE",
"537 237 OFFCURVE",
"537 205 CURVE SMOOTH",
"537 168 OFFCURVE",
"511 110 OFFCURVE",
"469 96 CURVE SMOOTH",
"450 89 OFFCURVE",
"416 92 OFFCURVE",
"321 92 CURVE",
"291 1 LINE",
"341 -6 OFFCURVE",
"414 -15 OFFCURVE",
"444 -15 CURVE SMOOTH",
"599 -15 OFFCURVE",
"723 116 OFFCURVE",
"723 225 CURVE SMOOTH",
"723 297 OFFCURVE",
"669 346 OFFCURVE",
"544 346 CURVE SMOOTH"
);
},
{
closed = 1;
nodes = (
"362 323 LINE",
"409 259 LINE",
"529 342 LINE",
"524 356 LINE",
"744 565 LINE",
"627 602 LINE"
);
}
);
width = 691;
}
);
leftMetricsKey = H;
unicode = 1E9E;
},
{
glyphname = Schwa;
lastChange = "2018-02-12 15:37:00 +0000";
layers = (
{
background = {
paths = (
{
closed = 1;
nodes = (
"129 408 LINE",
"181 408 LINE",
"229 575 LINE",
"147 575 LINE"
);
},
{
closed = 1;
nodes = (
"317 -9 OFFCURVE",
"428 66 OFFCURVE",
"469 109 CURVE",
"500 176 OFFCURVE",
"536 323 OFFCURVE",
"536 404 CURVE SMOOTH",
"536 547 OFFCURVE",
"453 611 OFFCURVE",
"360 611 CURVE SMOOTH",
"335 611 OFFCURVE",
"214 590 OFFCURVE",
"147 575 CURVE",
"152 506 LINE",
"214 519 OFFCURVE",
"335 549 OFFCURVE",
"349 549 CURVE SMOOTH",
"403 549 OFFCURVE",
"441 516 OFFCURVE",
"441 417 CURVE SMOOTH",
"441 334 OFFCURVE",
"406 167 OFFCURVE",
"376 94 CURVE",
"356 77 OFFCURVE",
"297 54 OFFCURVE",
"289 53 CURVE",
"281 52 OFFCURVE",
"273 52 OFFCURVE",
"266 52 CURVE SMOOTH",
"189 52 OFFCURVE",
"163 100 OFFCURVE",
"163 176 CURVE SMOOTH",
"163 194 OFFCURVE",
"165 215 OFFCURVE",
"167 237 CURVE",
"438 265 LINE",
"445 308 LINE",
"78 281 LINE",
"72 247 OFFCURVE",
"70 217 OFFCURVE",
"70 191 CURVE SMOOTH",
"70 24 OFFCURVE",
"174 -9 OFFCURVE",
"282 -9 CURVE SMOOTH"
);
}
);
};
layerId = "D9712079-C16A-42CB-8BA4-BD9ECFFACF10";
paths = (
{
closed = 1;
nodes = (
"317 -9 OFFCURVE",
"428 66 OFFCURVE",
"469 109 CURVE",
"500 176 OFFCURVE",
"536 323 OFFCURVE",
"536 404 CURVE SMOOTH",
"536 547 OFFCURVE",
"453 611 OFFCURVE",
"360 611 CURVE SMOOTH",
"335 611 OFFCURVE",
"214 590 OFFCURVE",
"147 575 CURVE",
"152 506 LINE",
"214 519 OFFCURVE",
"335 549 OFFCURVE",
"349 549 CURVE SMOOTH",
"403 549 OFFCURVE",
"441 516 OFFCURVE",
"441 417 CURVE SMOOTH",
"441 334 OFFCURVE",
"406 167 OFFCURVE",
"376 94 CURVE",
"354 77 OFFCURVE",
"303 52 OFFCURVE",
"266 52 CURVE SMOOTH",
"189 52 OFFCURVE",
"163 100 OFFCURVE",
"163 176 CURVE SMOOTH",
"163 194 OFFCURVE",
"165 215 OFFCURVE",
"167 237 CURVE",
"438 265 LINE",
"445 308 LINE",
"78 281 LINE",
"72 247 OFFCURVE",
"70 217 OFFCURVE",
"70 191 CURVE SMOOTH",
"70 24 OFFCURVE",
"174 -9 OFFCURVE",
"282 -9 CURVE SMOOTH"
);
},
{
closed = 1;
nodes = (
"181 408 LINE",
"229 575 LINE",
"147 575 LINE",
"129 408 LINE"
);
}
);
width = 515;
},
{
background = {
paths = (
{
closed = 1;
nodes = (
"322 -9 OFFCURVE",
"412 58 OFFCURVE",
"453 101 CURVE",
"503 184 OFFCURVE",
"530 304 OFFCURVE",
"530 388 CURVE SMOOTH",
"530 519 OFFCURVE",
"469 611 OFFCURVE",
"376 611 CURVE SMOOTH",
"351 611 OFFCURVE",
"230 595 OFFCURVE",
"163 585 CURVE",
"168 549 LINE",
"230 561 OFFCURVE",
"349 582 OFFCURVE",
"363 582 CURVE SMOOTH",
"439 582 OFFCURVE",
"498 516 OFFCURVE",
"498 387 CURVE SMOOTH",
"498 302 OFFCURVE",
"476 190 OFFCURVE",
"432 114 CURVE",
"406 82 OFFCURVE",
"340 36 OFFCURVE",
"313 26 CURVE",
"301 21 OFFCURVE",
"289 20 OFFCURVE",
"279 20 CURVE SMOOTH",
"174 20 OFFCURVE",
"136 95 OFFCURVE",
"136 212 CURVE SMOOTH",
"136 225 OFFCURVE",
"136 238 OFFCURVE",
"137 252 CURVE",
"497 281 LINE",
"501 301 LINE",
"108 274 LINE",
"105 249 OFFCURVE",
"104 226 OFFCURVE",
"104 204 CURVE SMOOTH",
"104 72 OFFCURVE",
"155 -9 OFFCURVE",
"287 -9 CURVE SMOOTH"
);
},
{
closed = 1;
nodes = (
"172 449 LINE",
"197 585 LINE",
"163 585 LINE",
"153 449 LINE"
);
}
);
};
layerId = "16B79A64-180D-495F-8650-CA27198DF3EF";
paths = (
{
closed = 1;
nodes = (
"322 -9 OFFCURVE",
"412 58 OFFCURVE",
"453 101 CURVE",
"503 184 OFFCURVE",
"530 304 OFFCURVE",
"530 388 CURVE SMOOTH",
"530 519 OFFCURVE",
"469 611 OFFCURVE",
"376 611 CURVE SMOOTH",
"351 611 OFFCURVE",
"230 595 OFFCURVE",
"163 585 CURVE",
"168 549 LINE",
"230 561 OFFCURVE",
"349 582 OFFCURVE",
"363 582 CURVE SMOOTH",
"439 582 OFFCURVE",
"498 516 OFFCURVE",
"498 387 CURVE SMOOTH",
"498 302 OFFCURVE",
"476 190 OFFCURVE",
"432 114 CURVE",
"402 80 OFFCURVE",
"328 20 OFFCURVE",
"279 20 CURVE SMOOTH",
"174 20 OFFCURVE",
"136 95 OFFCURVE",
"136 212 CURVE SMOOTH",
"136 225 OFFCURVE",
"136 238 OFFCURVE",
"137 252 CURVE",
"497 281 LINE",
"501 301 LINE",
"108 274 LINE",
"105 249 OFFCURVE",
"104 226 OFFCURVE",
"104 204 CURVE SMOOTH",
"104 72 OFFCURVE",
"155 -9 OFFCURVE",
"287 -9 CURVE SMOOTH"
);
},
{
closed = 1;
nodes = (
"172 449 LINE",
"197 585 LINE",
"163 585 LINE",
"153 449 LINE"
);
}
);
width = 520;
},
{
layerId = "E259E77F-022A-45EF-A0F1-1168268390B3";
paths = (
{
closed = 1;
nodes = (
"350 -13 OFFCURVE",
"494 48 OFFCURVE",
"570 105 CURVE",
"604 188 OFFCURVE",
"641 329 OFFCURVE",
"641 423 CURVE SMOOTH",
"641 574 OFFCURVE",
"545 625 OFFCURVE",
"393 625 CURVE SMOOTH",
"368 625 OFFCURVE",
"239 613 OFFCURVE",
"152 602 CURVE",
"190 494 LINE",
"254 508 OFFCURVE",
"357 529 OFFCURVE",
"371 529 CURVE SMOOTH",
"425 529 OFFCURVE",
"450 516 OFFCURVE",
"450 417 CURVE SMOOTH",
"450 341 OFFCURVE",
"421 172 OFFCURVE",
"392 102 CURVE",
"377 93 OFFCURVE",
"343 79 OFFCURVE",
"338 79 CURVE SMOOTH",
"266 79 OFFCURVE",
"256 113 OFFCURVE",
"256 189 CURVE SMOOTH",
"256 199 OFFCURVE",
"256 209 OFFCURVE",
"256 220 CURVE",
"485 243 LINE",
"492 330 LINE",
"76 300 LINE",
"68 260 OFFCURVE",
"64 223 OFFCURVE",
"64 190 CURVE SMOOTH",
"64 61 OFFCURVE",
"131 -13 OFFCURVE",
"313 -13 CURVE SMOOTH"
);
},
{
closed = 1;
nodes = (
"215 377 LINE",
"275 602 LINE",
"152 602 LINE",
"122 377 LINE"
);
}
);
width = 603;
}
);
unicode = 018F;
},
{
glyphname = T;
lastChange = "2018-02-22 22:18:40 +0000";
layers = (
{
anchors = (
{
name = bottom;
position = "{230, 0}";
},
{
name = center;
position = "{278, 304}";
},
{
name = top;
position = "{333, 603}";
}
);
layerId = "D9712079-C16A-42CB-8BA4-BD9ECFFACF10";
paths = (
{
closed = 1;
nodes = (
"182 0 LINE",
"273 0 LINE",
"378 603 LINE",
"287 603 LINE"
);
},
{
closed = 1;
nodes = (
"347 0 LINE",
"355 46 LINE",
"243 74 LINE",
"120 38 LINE",
"114 0 LINE"
);
},
{
closed = 1;
nodes = (
"109 535 LINE",
"320 554 LINE",
"532 535 LINE",
"554 603 LINE",
"109 603 LINE"
);
},
{
closed = 1;
nodes = (
"90 415 LINE",
"141 415 LINE",
"188 603 LINE",
"109 603 LINE"
);
},
{
closed = 1;
nodes = (
"458 415 LINE",
"510 415 LINE",
"554 603 LINE",
"474 603 LINE"
);
}
);
width = 460;
},
{
anchors = (
{
name = bottom;
position = "{199, 0}";
},
{
name = center;
position = "{249, 308}";
},
{
name = top;
position = "{303, 591}";
}
);
layerId = "16B79A64-180D-495F-8650-CA27198DF3EF";
paths = (
{
closed = 1;
nodes = (
"185 0 LINE",
"213 0 LINE",
"316 591 LINE",
"288 591 LINE"
);
},
{
closed = 1;
nodes = (
"291 0 LINE",
"294 18 LINE",
"208 28 LINE",
"117 15 LINE",
"114 0 LINE"
);
},
{
closed = 1;
nodes = (
"122 573 LINE",
"302 563 LINE",
"478 570 LINE",
"484 591 LINE",
"122 591 LINE"
);
},
{
closed = 1;
nodes = (
"103 452 LINE",
"122 452 LINE",
"153 591 LINE",
"122 591 LINE"
);
},
{
closed = 1;
nodes = (
"441 452 LINE",
"460 452 LINE",
"484 591 LINE",
"452 591 LINE"
);
}
);
width = 407;
},
{
anchors = (
{
name = bottom;
position = "{284, 0}";
},
{
name = center;
position = "{318, 283}";
},
{
name = top;
position = "{386, 613}";
}
);
layerId = "E259E77F-022A-45EF-A0F1-1168268390B3";
paths = (
{
closed = 1;
nodes = (
"189 0 LINE",
"371 0 LINE",
"476 613 LINE",
"294 613 LINE"
);
},
{
closed = 1;
nodes = (
"450 0 LINE",
"463 80 LINE",
"313 108 LINE",
"122 72 LINE",
"111 0 LINE"
);
},
{
closed = 1;
nodes = (
"100 494 LINE",
"368 544 LINE",
"623 494 LINE",
"654 613 LINE",
"109 613 LINE"
);
},
{
closed = 1;
nodes = (
"84 372 LINE",
"177 372 LINE",
"225 613 LINE",
"109 613 LINE"
);
},
{
closed = 1;
nodes = (
"518 372 LINE",
"611 372 LINE",
"654 613 LINE",
"538 613 LINE"
);
}
);
width = 573;
}
);
leftKerningGroup = T;
rightKerningGroup = T;
unicode = 0054;
},
{
glyphname = U;
lastChange = "2018-02-22 22:18:50 +0000";
layers = (
{
anchors = (
{
name = bottom;
position = "{305, 0}";
},
{
name = ogonek;
position = "{511, -22}";
},
{
name = top;
position = "{388, 603}";
}
);
layerId = "D9712079-C16A-42CB-8BA4-BD9ECFFACF10";
paths = (
{
closed = 1;
nodes = (
"246 -8 OFFCURVE",
"363 44 OFFCURVE",
"417 68 CURVE",
"423 114 LINE",
"382 101 OFFCURVE",
"275 73 OFFCURVE",
"252 73 CURVE SMOOTH",
"231 73 OFFCURVE",
"210 81 OFFCURVE",
"210 135 CURVE SMOOTH",
"210 177 OFFCURVE",
"219 214 OFFCURVE",
"286 603 CURVE",
"196 603 LINE",
"122 166 OFFCURVE",
"117 153 OFFCURVE",
"117 113 CURVE SMOOTH",
"117 32 OFFCURVE",
"156 -8 OFFCURVE",
"235 -8 CURVE SMOOTH"
);
},
{
closed = 1;
nodes = (
"533 0 LINE",
"539 38 LINE",
"483 58 LINE",
"575 603 LINE",
"486 603 LINE",
"396 72 LINE",
"406 0 LINE"
);
},
{
closed = 1;
nodes = (
"340 557 LINE",
"348 603 LINE",
"135 603 LINE",
"129 565 LINE",
"233 529 LINE"
);
},
{
closed = 1;
nodes = (
"630 565 LINE",
"636 603 LINE",
"423 603 LINE",
"415 557 LINE",
"517 529 LINE"
);
}
);
width = 573;
},
{
anchors = (
{
name = bottom;
position = "{275, 0}";
},
{
name = ogonek;
position = "{458, -3}";
},
{
name = top;
position = "{350, 591}";
}
);
background = {
paths = (
{
closed = 1;
nodes = (
"143 141 OFFCURVE",
"149 147 OFFCURVE",
"149 155 CURVE SMOOTH",
"149 163 OFFCURVE",
"143 169 OFFCURVE",
"135 169 CURVE SMOOTH",
"127 169 OFFCURVE",
"121 163 OFFCURVE",
"121 155 CURVE SMOOTH",
"121 147 OFFCURVE",
"127 141 OFFCURVE",
"135 141 CURVE"
);
},
{
closed = 1;
nodes = (
"139 93 OFFCURVE",
"145 99 OFFCURVE",
"145 107 CURVE SMOOTH",
"145 115 OFFCURVE",
"139 121 OFFCURVE",
"131 121 CURVE SMOOTH",
"123 121 OFFCURVE",
"117 115 OFFCURVE",
"117 107 CURVE SMOOTH",
"117 99 OFFCURVE",
"123 93 OFFCURVE",
"131 93 CURVE"
);
},
{
closed = 1;
nodes = (
"228 -8 OFFCURVE",
"234 -2 OFFCURVE",
"234 6 CURVE SMOOTH",
"234 14 OFFCURVE",
"228 20 OFFCURVE",
"220 20 CURVE SMOOTH",
"212 20 OFFCURVE",
"206 14 OFFCURVE",
"206 6 CURVE SMOOTH",
"206 -2 OFFCURVE",
"212 -8 OFFCURVE",
"220 -8 CURVE"
);
},
{
closed = 1;
nodes = (
"158 22 OFFCURVE",
"164 28 OFFCURVE",
"164 36 CURVE SMOOTH",
"164 44 OFFCURVE",
"158 50 OFFCURVE",
"150 50 CURVE SMOOTH",
"142 50 OFFCURVE",
"136 44 OFFCURVE",
"136 36 CURVE SMOOTH",
"136 28 OFFCURVE",
"142 22 OFFCURVE",
"150 22 CURVE"
);
},
{
closed = 1;
nodes = (
"375 51 OFFCURVE",
"379 55 OFFCURVE",
"379 61 CURVE SMOOTH",
"379 67 OFFCURVE",
"375 71 OFFCURVE",
"369 71 CURVE SMOOTH",
"363 71 OFFCURVE",
"359 67 OFFCURVE",
"359 61 CURVE SMOOTH",
"359 55 OFFCURVE",
"363 51 OFFCURVE",
"369 51 CURVE SMOOTH"
);
}
);
};
layerId = "16B79A64-180D-495F-8650-CA27198DF3EF";
paths = (
{
closed = 1;
nodes = (
"238 -8 OFFCURVE",
"343 44 OFFCURVE",
"397 72 CURVE",
"399 94 LINE",
"350 68 OFFCURVE",
"256 19 OFFCURVE",
"227 19 CURVE SMOOTH",
"169 19 OFFCURVE",
"145 47 OFFCURVE",
"145 105 CURVE SMOOTH",
"145 150 OFFCURVE",
"156 202 OFFCURVE",
"223 591 CURVE",
"195 591 LINE",
"121 165 OFFCURVE",
"117 144 OFFCURVE",
"117 107 CURVE SMOOTH",
"117 32 OFFCURVE",
"152 -8 OFFCURVE",
"227 -8 CURVE SMOOTH"
);
},
{
closed = 1;
nodes = (
"472 0 LINE",
"475 18 LINE",
"412 27 LINE",
"509 591 LINE",
"481 591 LINE",
"391 72 LINE",
"387 0 LINE"
);
},
{
closed = 1;
nodes = (
"283 573 LINE",
"286 591 LINE",
"134 591 LINE",
"131 576 LINE",
"209 563 LINE"
);
},
{
closed = 1;
nodes = (
"564 576 LINE",
"567 591 LINE",
"415 591 LINE",
"412 573 LINE",
"486 563 LINE"
);
}
);
width = 511;
},
{
anchors = (
{
name = bottom;
position = "{335, 0}";
},
{
name = ogonek;
position = "{593, -15}";
},
{
name = top;
position = "{413, 613}";
}
);
background = {
paths = (
{
closed = 1;
nodes = (
"256 505 LINE",
"388 533 LINE",
"401 613 LINE",
"107 613 LINE",
"96 541 LINE"
);
},
{
closed = 1;
nodes = (
"714 541 LINE",
"725 613 LINE",
"431 613 LINE",
"418 533 LINE",
"543 505 LINE"
);
},
{
closed = 1;
nodes = (
"397 92 LINE",
"422 0 LINE",
"633 0 LINE",
"644 67 LINE",
"577 85 LINE",
"667 613 LINE",
"485 613 LINE"
);
},
{
closed = 1;
nodes = (
"453 173 LINE",
"412 160 OFFCURVE",
"342 142 OFFCURVE",
"319 142 CURVE SMOOTH",
"298 142 OFFCURVE",
"281 152 OFFCURVE",
"281 196 CURVE SMOOTH",
"281 228 OFFCURVE",
"299 313 OFFCURVE",
"350 613 CURVE",
"168 613 LINE",
"94 176 OFFCURVE",
"88 153 OFFCURVE",
"88 113 CURVE SMOOTH",
"88 32 OFFCURVE",
"149 -12 OFFCURVE",
"248 -12 CURVE SMOOTH",
"265 -12 OFFCURVE",
"395 66 OFFCURVE",
"453 98 CURVE"
);
}
);
};
layerId = "E259E77F-022A-45EF-A0F1-1168268390B3";
paths = (
{
closed = 1;
nodes = (
"265 -12 OFFCURVE",
"394 74 OFFCURVE",
"453 113 CURVE",
"453 188 LINE",
"412 171 OFFCURVE",
"342 142 OFFCURVE",
"319 142 CURVE SMOOTH",
"298 142 OFFCURVE",
"281 152 OFFCURVE",
"281 196 CURVE SMOOTH",
"281 228 OFFCURVE",
"299 313 OFFCURVE",
"350 613 CURVE",
"168 613 LINE",
"94 176 OFFCURVE",
"88 153 OFFCURVE",
"88 113 CURVE SMOOTH",
"88 32 OFFCURVE",
"149 -12 OFFCURVE",
"248 -12 CURVE SMOOTH"
);
},
{
closed = 1;
nodes = (
"633 0 LINE",
"644 67 LINE",
"577 85 LINE",
"667 613 LINE",
"485 613 LINE",
"398 102 LINE",
"434 0 LINE"
);
},
{
closed = 1;
nodes = (
"388 533 LINE",
"401 613 LINE",
"107 613 LINE",
"96 541 LINE",
"256 505 LINE"
);
},
{
closed = 1;
nodes = (
"714 541 LINE",
"725 613 LINE",
"431 613 LINE",
"418 533 LINE",
"543 505 LINE"
);
}
);
width = 640;
}
);
leftKerningGroup = U;
rightKerningGroup = U;
unicode = 0055;
},
{
glyphname = Uhorn;
lastChange = "2018-02-12 15:37:00 +0000";
layers = (
{
anchors = (
{
name = bottom;
position = "{275, 0}";
},
{
name = top;
position = "{350, 591}";
}
);
components = (
{
name = horncomb;
transform = "{1, 0, 0, 1, 645, 170}";
}
);
layerId = "16B79A64-180D-495F-8650-CA27198DF3EF";
paths = (
{
closed = 1;
nodes = (
"238 -8 OFFCURVE",
"343 44 OFFCURVE",
"397 72 CURVE",
"399 94 LINE",
"350 68 OFFCURVE",
"256 19 OFFCURVE",
"227 19 CURVE SMOOTH",
"169 19 OFFCURVE",
"145 47 OFFCURVE",
"145 105 CURVE SMOOTH",
"145 150 OFFCURVE",
"156 202 OFFCURVE",
"223 591 CURVE",
"195 591 LINE",
"121 165 OFFCURVE",
"117 144 OFFCURVE",
"117 107 CURVE SMOOTH",
"117 32 OFFCURVE",
"152 -8 OFFCURVE",
"227 -8 CURVE SMOOTH"
);
},
{
closed = 1;
nodes = (
"472 0 LINE",
"475 18 LINE",
"412 27 LINE",
"509 591 LINE",
"481 591 LINE",
"391 72 LINE",
"387 0 LINE"
);
},
{
closed = 1;
nodes = (
"283 570 LINE",
"286 591 LINE",
"134 591 LINE",
"131 573 LINE",
"209 563 LINE"
);
},
{
closed = 1;
nodes = (
"491 591 LINE",
"415 591 LINE",
"412 570 LINE",
"486 563 LINE"
);
}
);
width = 511;
},
{
anchors = (
{
name = bottom;
position = "{305, 0}";
},
{
name = top;
position = "{388, 603}";
}
);
components = (
{
name = horncomb;
transform = "{1, 0, 0, 1, 698, 179}";
}
);
layerId = "D9712079-C16A-42CB-8BA4-BD9ECFFACF10";
paths = (
{
closed = 1;
nodes = (
"246 -8 OFFCURVE",
"363 44 OFFCURVE",
"417 68 CURVE",
"423 114 LINE",
"382 101 OFFCURVE",
"275 73 OFFCURVE",
"252 73 CURVE SMOOTH",
"231 73 OFFCURVE",
"210 81 OFFCURVE",
"210 135 CURVE SMOOTH",
"210 177 OFFCURVE",
"219 214 OFFCURVE",
"286 603 CURVE",
"196 603 LINE",
"122 166 OFFCURVE",
"117 153 OFFCURVE",
"117 113 CURVE SMOOTH",
"117 32 OFFCURVE",
"156 -8 OFFCURVE",
"235 -8 CURVE SMOOTH"
);
},
{
closed = 1;
nodes = (
"533 0 LINE",
"539 38 LINE",
"483 58 LINE",
"575 603 LINE",
"486 603 LINE",
"396 72 LINE",
"406 0 LINE"
);
},
{
closed = 1;
nodes = (
"340 557 LINE",
"348 603 LINE",
"135 603 LINE",
"129 565 LINE",
"233 529 LINE"
);
},
{
closed = 1;
nodes = (
"529 603 LINE",
"423 603 LINE",
"415 557 LINE",
"517 529 LINE"
);
}
);
width = 573;
},
{
anchors = (
{
name = bottom;
position = "{335, 0}";
},
{
name = top;
position = "{413, 613}";
}
);
components = (
{
name = horncomb;
transform = "{1, 0, 0, 1, 824, 181}";
}
);
layerId = "E259E77F-022A-45EF-A0F1-1168268390B3";
paths = (
{
closed = 1;
nodes = (
"265 -12 OFFCURVE",
"394 74 OFFCURVE",
"453 113 CURVE",
"453 188 LINE",
"412 171 OFFCURVE",
"342 142 OFFCURVE",
"319 142 CURVE SMOOTH",
"298 142 OFFCURVE",
"281 152 OFFCURVE",
"281 196 CURVE SMOOTH",
"281 228 OFFCURVE",
"299 313 OFFCURVE",
"350 613 CURVE",
"168 613 LINE",
"94 176 OFFCURVE",
"88 153 OFFCURVE",
"88 113 CURVE SMOOTH",
"88 32 OFFCURVE",
"149 -12 OFFCURVE",
"248 -12 CURVE SMOOTH"
);
},
{
closed = 1;
nodes = (
"633 0 LINE",
"644 67 LINE",
"577 85 LINE",
"667 613 LINE",
"485 613 LINE",
"398 102 LINE",
"434 0 LINE"
);
},
{
closed = 1;
nodes = (
"388 533 LINE",
"401 613 LINE",
"107 613 LINE",
"96 541 LINE",
"256 505 LINE"
);
},
{
closed = 1;
nodes = (
"561 613 LINE",
"431 613 LINE",
"418 533 LINE",
"543 505 LINE"
);
}
);
width = 640;
}
);
unicode = 01AF;
},
{
glyphname = V;
lastChange = "2018-02-22 22:19:00 +0000";
layers = (
{
background = {
paths = (
{
closed = 1;
nodes = (
"317 7 CURVE",
"360 105 OFFCURVE",
"520 474 OFFCURVE",
"552 545 CURVE",
"617 565 LINE",
"624 603 LINE",
"403 603 LINE",
"395 557 LINE",
"464 540 LINE",
"422 433 OFFCURVE",
"305 159 OFFCURVE",
"279 92 CURVE",
"268 92 LINE",
"268 92 OFFCURVE",
"265 187 OFFCURVE",
"263 231 CURVE",
"241 540 LINE",
"313 557 LINE",
"321 603 LINE",
"92 603 LINE",
"85 565 LINE",
"144 545 LINE",
"190 1 LINE",
"190 1 OFFCURVE",
"200 -7 OFFCURVE",
"204 -7 CURVE SMOOTH",
"206 -7 OFFCURVE",
"279 1 OFFCURVE"
);
}
);
};
layerId = "D9712079-C16A-42CB-8BA4-BD9ECFFACF10";
paths = (
{
closed = 1;
nodes = (
"316 6 LINE",
"553 563 LINE",
"484 603 LINE",
"274 65 LINE",
"264 65 LINE",
"262 209 LINE",
"243 603 LINE",
"150 603 LINE",
"190 2 LINE",
"200 -8 LINE"
);
},
{
closed = 1;
nodes = (
"300 557 LINE",
"308 603 LINE",
"105 603 LINE",
"99 565 LINE",
"203 529 LINE"
);
},
{
closed = 1;
nodes = (
"553 563 LINE",
"551 603 LINE",
"399 603 LINE",
"391 557 LINE",
"493 529 LINE"
);
}
);
width = 505;
},
{
background = {
paths = (
{
closed = 1;
nodes = (
"249 571 LINE",
"253 591 LINE",
"105 591 LINE",
"101 571 LINE",
"158 566 LINE",
"205 -2 LINE",
"205 -2 OFFCURVE",
"215 -10 OFFCURVE",
"218 -10 CURVE SMOOTH",
"223 -10 OFFCURVE",
"255 -5 OFFCURVE",
"255 -5 CURVE",
"505 566 LINE",
"562 571 LINE",
"566 591 LINE",
"418 591 LINE",
"414 571 LINE",
"475 564 LINE",
"240 25 LINE",
"232 25 LINE",
"232 25 OFFCURVE",
"223 141 OFFCURVE",
"217 208 CURVE",
"217 208 OFFCURVE",
"188 564 OFFCURVE",
"188 564 CURVE"
);
}
);
};
layerId = "16B79A64-180D-495F-8650-CA27198DF3EF";
paths = (
{
closed = 1;
nodes = (
"256 0 LINE",
"500 574 LINE",
"480 591 LINE",
"237 16 LINE",
"231 16 LINE",
"223 160 LINE",
"190 591 LINE",
"161 591 LINE",
"206 0 LINE",
"215 -9 LINE"
);
},
{
closed = 1;
nodes = (
"256 573 LINE",
"259 591 LINE",
"103 591 LINE",
"100 576 LINE",
"180 563 LINE"
);
},
{
closed = 1;
nodes = (
"500 574 LINE",
"497 591 LINE",
"415 591 LINE",
"412 573 LINE",
"481 563 LINE"
);
}
);
width = 450;
},
{
layerId = "E259E77F-022A-45EF-A0F1-1168268390B3";
paths = (
{
closed = 1;
nodes = (
"376 0 LINE",
"632 548 LINE",
"501 613 LINE",
"331 141 LINE",
"320 141 LINE",
"319 281 LINE",
"303 613 LINE",
"124 613 LINE",
"175 10 LINE",
"194 -9 LINE"
);
},
{
closed = 1;
nodes = (
"361 533 LINE",
"374 613 LINE",
"87 613 LINE",
"76 541 LINE",
"236 505 LINE"
);
},
{
closed = 1;
nodes = (
"632 548 LINE",
"619 613 LINE",
"420 613 LINE",
"407 533 LINE",
"522 505 LINE"
);
}
);
width = 572;
}
);
leftKerningGroup = V;
rightKerningGroup = V;
unicode = 0056;
},
{
glyphname = W;
lastChange = "2018-02-22 22:19:06 +0000";
layers = (
{
anchors = (
{
name = top;
position = "{477, 603}";
}
);
layerId = "D9712079-C16A-42CB-8BA4-BD9ECFFACF10";
paths = (
{
closed = 1;
nodes = (
"579 6 LINE",
"814 563 LINE",
"745 603 LINE",
"537 65 LINE",
"527 65 LINE",
"526 209 LINE",
"506 603 LINE",
"423 603 LINE",
"453 2 LINE",
"463 -8 LINE"
);
},
{
closed = 1;
nodes = (
"322 6 LINE",
"431 322 LINE",
"454 322 LINE",
"437 511 LINE",
"280 65 LINE",
"270 65 LINE",
"265 209 LINE",
"241 603 LINE",
"148 603 LINE",
"196 2 LINE",
"206 -8 LINE"
);
},
{
closed = 1;
nodes = (
"298 557 LINE",
"306 603 LINE",
"103 603 LINE",
"97 565 LINE",
"201 529 LINE"
);
},
{
closed = 1;
nodes = (
"568 557 LINE",
"576 603 LINE",
"369 603 LINE",
"363 565 LINE",
"467 529 LINE"
);
},
{
closed = 1;
nodes = (
"814 563 LINE",
"812 603 LINE",
"660 603 LINE",
"652 557 LINE",
"754 529 LINE"
);
}
);
width = 766;
},
{
anchors = (
{
name = top;
position = "{464, 591}";
}
);
background = {
paths = (
{
closed = 1;
nodes = (
"435 454 LINE",
"251 12 LINE",
"245 12 LINE",
"231 160 LINE",
"184 591 LINE",
"155 591 LINE",
"223 0 LINE",
"232 -9 LINE",
"269 0 LINE",
"440 408 LINE"
);
},
{
closed = 1;
nodes = (
"174 563 LINE",
"249 570 LINE",
"252 591 LINE",
"97 591 LINE",
"94 573 LINE"
);
},
{
closed = 1;
nodes = (
"470 -9 LINE",
"507 0 LINE",
"748 591 LINE",
"721 591 LINE",
"489 12 LINE",
"483 12 LINE",
"472 160 LINE",
"433 591 LINE",
"401 591 LINE",
"422 366 LINE",
"426 366 LINE",
"461 0 LINE"
);
},
{
closed = 1;
nodes = (
"425 563 LINE",
"500 570 LINE",
"503 591 LINE",
"348 591 LINE",
"345 573 LINE"
);
},
{
closed = 1;
nodes = (
"802 591 LINE",
"651 591 LINE",
"648 570 LINE",
"722 563 LINE",
"799 573 LINE"
);
}
);
};
layerId = "16B79A64-180D-495F-8650-CA27198DF3EF";
paths = (
{
closed = 1;
nodes = (
"518 0 LINE",
"762 574 LINE",
"742 591 LINE",
"499 16 LINE",
"493 16 LINE",
"487 160 LINE",
"463 591 LINE",
"434 591 LINE",
"468 0 LINE",
"477 -9 LINE"
);
},
{
closed = 1;
nodes = (
"251 0 LINE",
"438 457 LINE",
"452 457 LINE",
"446 534 LINE",
"232 16 LINE",
"226 16 LINE",
"219 160 LINE",
"188 591 LINE",
"159 591 LINE",
"202 0 LINE",
"211 -9 LINE"
);
},
{
closed = 1;
nodes = (
"254 573 LINE",
"257 591 LINE",
"101 591 LINE",
"98 576 LINE",
"178 563 LINE"
);
},
{
closed = 1;
nodes = (
"529 573 LINE",
"532 591 LINE",
"376 591 LINE",
"373 576 LINE",
"453 563 LINE"
);
},
{
closed = 1;
nodes = (
"762 574 LINE",
"759 591 LINE",
"677 591 LINE",
"674 573 LINE",
"743 563 LINE"
);
}
);
width = 716;
},
{
anchors = (
{
name = top;
position = "{540, 613}";
}
);
layerId = "E259E77F-022A-45EF-A0F1-1168268390B3";
paths = (
{
closed = 1;
nodes = (
"682 0 LINE",
"943 548 LINE",
"812 613 LINE",
"637 141 LINE",
"626 141 LINE",
"628 281 LINE",
"620 613 LINE",
"448 613 LINE",
"481 10 LINE",
"500 -9 LINE"
);
},
{
closed = 1;
nodes = (
"369 0 LINE",
"460 207 LINE",
"492 207 LINE",
"463 505 LINE",
"324 141 LINE",
"313 141 LINE",
"319 281 LINE",
"303 613 LINE",
"124 613 LINE",
"168 10 LINE",
"187 -9 LINE"
);
},
{
closed = 1;
nodes = (
"357 533 LINE",
"370 613 LINE",
"87 613 LINE",
"76 541 LINE",
"236 505 LINE"
);
},
{
closed = 1;
nodes = (
"674 533 LINE",
"687 613 LINE",
"412 613 LINE",
"401 541 LINE",
"549 505 LINE"
);
},
{
closed = 1;
nodes = (
"943 548 LINE",
"930 613 LINE",
"729 613 LINE",
"716 533 LINE",
"833 505 LINE"
);
}
);
width = 883;
}
);
leftKerningGroup = W;
rightKerningGroup = W;
unicode = 0057;
},
{
glyphname = X;
lastChange = "2018-02-22 22:19:21 +0000";
layers = (
{
layerId = "D9712079-C16A-42CB-8BA4-BD9ECFFACF10";
paths = (
{
closed = 1;
nodes = (
"100 0 LINE",
"289 253 LINE",
"361 319 LINE",
"577 603 LINE",
"489 603 LINE",
"329 369 LINE",
"256 307 LINE",
"15 0 LINE"
);
},
{
closed = 1;
nodes = (
"203 0 LINE",
"211 46 LINE",
"109 74 LINE",
"-4 38 LINE",
"-10 0 LINE"
);
},
{
closed = 1;
nodes = (
"524 0 LINE",
"530 38 LINE",
"409 74 LINE",
"302 46 LINE",
"294 0 LINE"
);
},
{
closed = 1;
nodes = (
"499 0 LINE",
"361 319 LINE",
"329 369 LINE",
"221 603 LINE",
"127 603 LINE",
"256 307 LINE",
"289 253 LINE",
"397 0 LINE"
);
},
{
closed = 1;
nodes = (
"321 557 LINE",
"329 603 LINE",
"109 603 LINE",
"103 565 LINE",
"207 529 LINE"
);
},
{
closed = 1;
nodes = (
"596 565 LINE",
"602 603 LINE",
"390 603 LINE",
"382 557 LINE",
"484 529 LINE"
);
}
);
width = 510;
},
{
background = {
components = (
{
name = H;
transform = "{1, 0, 0, 1, 851, 0}";
},
{
name = H;
transform = "{1, 0, 0, 1, -54, 0}";
}
);
paths = (
{
closed = 1;
nodes = (
"328 363 OFFCURVE",
"334 369 OFFCURVE",
"334 377 CURVE SMOOTH",
"334 385 OFFCURVE",
"328 391 OFFCURVE",
"320 391 CURVE SMOOTH",
"312 391 OFFCURVE",
"306 385 OFFCURVE",
"306 377 CURVE SMOOTH",
"306 369 OFFCURVE",
"312 363 OFFCURVE",
"320 363 CURVE"
);
},
{
closed = 1;
nodes = (
"476 563 OFFCURVE",
"482 569 OFFCURVE",
"482 577 CURVE SMOOTH",
"482 585 OFFCURVE",
"476 591 OFFCURVE",
"468 591 CURVE SMOOTH",
"460 591 OFFCURVE",
"454 585 OFFCURVE",
"454 577 CURVE SMOOTH",
"454 569 OFFCURVE",
"460 563 OFFCURVE",
"468 563 CURVE"
);
},
{
closed = 1;
nodes = (
"245 363 OFFCURVE",
"251 369 OFFCURVE",
"251 377 CURVE SMOOTH",
"251 385 OFFCURVE",
"245 391 OFFCURVE",
"237 391 CURVE SMOOTH",
"229 391 OFFCURVE",
"223 385 OFFCURVE",
"223 377 CURVE SMOOTH",
"223 369 OFFCURVE",
"229 363 OFFCURVE",
"237 363 CURVE"
);
},
{
closed = 1;
nodes = (
"163 563 OFFCURVE",
"169 569 OFFCURVE",
"169 577 CURVE SMOOTH",
"169 585 OFFCURVE",
"163 591 OFFCURVE",
"155 591 CURVE SMOOTH",
"147 591 OFFCURVE",
"141 585 OFFCURVE",
"141 577 CURVE SMOOTH",
"141 569 OFFCURVE",
"147 563 OFFCURVE",
"155 563 CURVE"
);
},
{
closed = 1;
nodes = (
"306 231 OFFCURVE",
"312 237 OFFCURVE",
"312 245 CURVE SMOOTH",
"312 253 OFFCURVE",
"306 259 OFFCURVE",
"298 259 CURVE SMOOTH",
"290 259 OFFCURVE",
"284 253 OFFCURVE",
"284 245 CURVE SMOOTH",
"284 237 OFFCURVE",
"290 231 OFFCURVE",
"298 231 CURVE"
);
},
{
closed = 1;
nodes = (
"401 0 OFFCURVE",
"407 6 OFFCURVE",
"407 14 CURVE SMOOTH",
"407 22 OFFCURVE",
"401 28 OFFCURVE",
"393 28 CURVE SMOOTH",
"385 28 OFFCURVE",
"379 22 OFFCURVE",
"379 14 CURVE SMOOTH",
"379 6 OFFCURVE",
"385 0 OFFCURVE",
"393 0 CURVE"
);
},
{
closed = 1;
nodes = (
"48 0 OFFCURVE",
"54 6 OFFCURVE",
"54 14 CURVE SMOOTH",
"54 22 OFFCURVE",
"48 28 OFFCURVE",
"40 28 CURVE SMOOTH",
"32 28 OFFCURVE",
"26 22 OFFCURVE",
"26 14 CURVE SMOOTH",
"26 6 OFFCURVE",
"32 0 OFFCURVE",
"40 0 CURVE"
);
},
{
closed = 1;
nodes = (
"213 220 OFFCURVE",
"219 226 OFFCURVE",
"219 234 CURVE SMOOTH",
"219 242 OFFCURVE",
"213 248 OFFCURVE",
"205 248 CURVE SMOOTH",
"197 248 OFFCURVE",
"191 242 OFFCURVE",
"191 234 CURVE SMOOTH",
"191 226 OFFCURVE",
"197 220 OFFCURVE",
"205 220 CURVE"
);
}
);
};
layerId = "16B79A64-180D-495F-8650-CA27198DF3EF";
paths = (
{
closed = 1;
nodes = (
"56 0 LINE",
"263 291 LINE",
"281 305 LINE",
"483 591 LINE",
"453 591 LINE",
"268 323 LINE",
"252 315 LINE",
"24 0 LINE"
);
},
{
closed = 1;
nodes = (
"131 0 LINE",
"134 18 LINE",
"60 28 LINE",
"-18 15 LINE",
"-21 0 LINE"
);
},
{
closed = 1;
nodes = (
"456 0 LINE",
"459 15 LINE",
"376 28 LINE",
"297 18 LINE",
"294 0 LINE"
);
},
{
closed = 1;
nodes = (
"405 0 LINE",
"281 313 LINE",
"275 323 LINE",
"175 591 LINE",
"144 591 LINE",
"251 305 LINE",
"258 296 LINE",
"373 0 LINE"
);
},
{
closed = 1;
nodes = (
"248 573 LINE",
"251 591 LINE",
"91 591 LINE",
"88 576 LINE",
"170 563 LINE"
);
},
{
closed = 1;
nodes = (
"523 576 LINE",
"526 591 LINE",
"374 591 LINE",
"371 573 LINE",
"445 563 LINE"
);
}
);
width = 429;
},
{
background = {
paths = (
{
closed = 1;
nodes = (
"465 336 LINE",
"404 379 LINE",
"308 613 LINE",
"96 613 LINE",
"253 302 LINE",
"312 255 LINE",
"414 0 LINE",
"630 0 LINE"
);
},
{
closed = 1;
nodes = (
"461 319 LINE",
"710 613 LINE",
"532 613 LINE",
"389 382 LINE",
"246 325 LINE",
"-21 0 LINE",
"152 0 LINE",
"322 253 LINE"
);
},
{
closed = 1;
nodes = (
"240 505 LINE",
"382 533 LINE",
"395 613 LINE",
"96 613 LINE",
"85 541 LINE"
);
},
{
closed = 1;
nodes = (
"711 541 LINE",
"722 613 LINE",
"423 613 LINE",
"410 533 LINE",
"540 505 LINE"
);
},
{
closed = 1;
nodes = (
"-10 72 LINE",
"-21 0 LINE",
"268 0 LINE",
"281 80 LINE",
"161 108 LINE"
);
},
{
closed = 1;
nodes = (
"471 108 LINE",
"324 80 LINE",
"311 0 LINE",
"630 0 LINE",
"641 72 LINE"
);
}
);
};
layerId = "E259E77F-022A-45EF-A0F1-1168268390B3";
paths = (
{
closed = 1;
nodes = (
"152 0 LINE",
"322 253 LINE",
"461 319 LINE",
"710 613 LINE",
"532 613 LINE",
"389 382 LINE",
"246 325 LINE",
"-21 0 LINE"
);
},
{
closed = 1;
nodes = (
"268 0 LINE",
"281 80 LINE",
"161 108 LINE",
"-10 72 LINE",
"-21 0 LINE"
);
},
{
closed = 1;
nodes = (
"630 0 LINE",
"641 72 LINE",
"471 108 LINE",
"324 80 LINE",
"311 0 LINE"
);
},
{
closed = 1;
nodes = (
"625 0 LINE",
"460 336 LINE",
"399 379 LINE",
"303 613 LINE",
"101 613 LINE",
"258 302 LINE",
"317 255 LINE",
"419 0 LINE"
);
},
{
closed = 1;
nodes = (
"382 533 LINE",
"395 613 LINE",
"96 613 LINE",
"85 541 LINE",
"240 505 LINE"
);
},
{
closed = 1;
nodes = (
"711 541 LINE",
"722 613 LINE",
"423 613 LINE",
"410 533 LINE",
"540 505 LINE"
);
}
);
width = 615;
}
);
leftKerningGroup = X;
rightKerningGroup = X;
unicode = 0058;
},
{
glyphname = Y;
lastChange = "2018-02-22 22:19:31 +0000";
layers = (
{
anchors = (
{
name = bottom;
position = "{246, 0}";
},
{
name = top;
position = "{333, 603}";
}
);
background = {
paths = (
{
closed = 1;
nodes = (
"323 227 LINE",
"293 58 LINE",
"355 38 LINE",
"348 0 LINE",
"125 0 LINE",
"132 38 LINE",
"200 58 LINE",
"229 224 LINE",
"127 545 LINE",
"68 565 LINE",
"75 603 LINE",
"304 603 LINE",
"296 557 LINE",
"227 540 LINE",
"293 315 LINE",
"302 315 LINE",
"443 540 LINE",
"377 557 LINE",
"385 603 LINE",
"606 603 LINE",
"599 565 LINE",
"534 545 LINE"
);
}
);
};
layerId = "D9712079-C16A-42CB-8BA4-BD9ECFFACF10";
paths = (
{
closed = 1;
nodes = (
"286 0 LINE",
"326 241 LINE",
"530 563 LINE",
"467 603 LINE",
"303 314 LINE",
"295 314 LINE",
"207 603 LINE",
"113 603 LINE",
"235 231 LINE",
"196 0 LINE"
);
},
{
closed = 1;
nodes = (
"357 0 LINE",
"365 46 LINE",
"253 74 LINE",
"130 38 LINE",
"124 0 LINE"
);
},
{
closed = 1;
nodes = (
"276 557 LINE",
"284 603 LINE",
"82 603 LINE",
"76 565 LINE",
"180 529 LINE"
);
},
{
closed = 1;
nodes = (
"530 563 LINE",
"528 603 LINE",
"375 603 LINE",
"367 557 LINE",
"486 534 LINE"
);
}
);
width = 462;
},
{
anchors = (
{
name = bottom;
position = "{212, 0}";
},
{
name = top;
position = "{303, 591}";
}
);
background = {
paths = (
{
closed = 1;
nodes = (
"147 563 OFFCURVE",
"153 569 OFFCURVE",
"153 577 CURVE SMOOTH",
"153 585 OFFCURVE",
"147 591 OFFCURVE",
"139 591 CURVE SMOOTH",
"131 591 OFFCURVE",
"125 585 OFFCURVE",
"125 577 CURVE SMOOTH",
"125 569 OFFCURVE",
"131 563 OFFCURVE",
"139 563 CURVE"
);
},
{
closed = 1;
nodes = (
"232 313 OFFCURVE",
"238 319 OFFCURVE",
"238 327 CURVE SMOOTH",
"238 335 OFFCURVE",
"232 341 OFFCURVE",
"224 341 CURVE SMOOTH",
"216 341 OFFCURVE",
"210 335 OFFCURVE",
"210 327 CURVE SMOOTH",
"210 319 OFFCURVE",
"216 313 OFFCURVE",
"224 313 CURVE"
);
},
{
closed = 1;
nodes = (
"310 303 OFFCURVE",
"316 309 OFFCURVE",
"316 317 CURVE SMOOTH",
"316 325 OFFCURVE",
"310 331 OFFCURVE",
"302 331 CURVE SMOOTH",
"294 331 OFFCURVE",
"288 325 OFFCURVE",
"288 317 CURVE SMOOTH",
"288 309 OFFCURVE",
"294 303 OFFCURVE",
"302 303 CURVE"
);
},
{
closed = 1;
nodes = (
"466 563 OFFCURVE",
"472 569 OFFCURVE",
"472 577 CURVE SMOOTH",
"472 585 OFFCURVE",
"466 591 OFFCURVE",
"458 591 CURVE SMOOTH",
"450 591 OFFCURVE",
"444 585 OFFCURVE",
"444 577 CURVE SMOOTH",
"444 569 OFFCURVE",
"450 563 OFFCURVE",
"458 563 CURVE"
);
},
{
closed = 1;
nodes = (
"485 566 LINE",
"542 571 LINE",
"545 591 LINE",
"397 591 LINE",
"394 571 LINE",
"453 564 LINE",
"263 273 LINE",
"256 273 LINE",
"168 564 LINE",
"229 571 LINE",
"232 591 LINE",
"84 591 LINE",
"81 571 LINE",
"136 566 LINE",
"237 239 LINE",
"199 25 LINE",
"141 20 LINE",
"138 0 LINE",
"282 0 LINE",
"285 20 LINE",
"229 25 LINE",
"267 239 LINE"
);
}
);
};
layerId = "16B79A64-180D-495F-8650-CA27198DF3EF";
paths = (
{
closed = 1;
nodes = (
"224 0 LINE",
"268 244 LINE",
"475 573 LINE",
"456 591 LINE",
"262 275 LINE",
"257 275 LINE",
"161 591 LINE",
"131 591 LINE",
"239 239 LINE",
"196 0 LINE"
);
},
{
closed = 1;
nodes = (
"302 0 LINE",
"305 18 LINE",
"219 28 LINE",
"128 15 LINE",
"125 0 LINE"
);
},
{
closed = 1;
nodes = (
"230 573 LINE",
"233 591 LINE",
"89 591 LINE",
"86 576 LINE",
"154 563 LINE"
);
},
{
closed = 1;
nodes = (
"475 573 LINE",
"474 591 LINE",
"379 591 LINE",
"376 573 LINE",
"450 563 LINE"
);
}
);
width = 411;
},
{
anchors = (
{
name = bottom;
position = "{293, 0}";
},
{
name = top;
position = "{384, 613}";
}
);
background = {
paths = (
{
closed = 1;
nodes = (
"132 72 LINE",
"119 0 LINE",
"440 0 LINE",
"453 72 LINE",
"392 97 LINE",
"418 245 LINE",
"468 314 OFFCURVE",
"587 480 OFFCURVE",
"612 520 CURVE",
"677 540 LINE",
"690 612 LINE",
"431 612 LINE",
"417 532 LINE",
"465 515 LINE",
"441 472 OFFCURVE",
"386 378 OFFCURVE",
"368 351 CURVE",
"358 351 LINE",
"358 351 OFFCURVE",
"346 406 OFFCURVE",
"320 515 CURVE",
"373 532 LINE",
"387 612 LINE",
"85 612 LINE",
"72 540 LINE",
"131 520 LINE",
"227 243 LINE",
"201 97 LINE"
);
}
);
};
layerId = "E259E77F-022A-45EF-A0F1-1168268390B3";
paths = (
{
closed = 1;
nodes = (
"373 0 LINE",
"417 251 LINE",
"619 548 LINE",
"511 613 LINE",
"367 350 LINE",
"357 350 LINE",
"301 613 LINE",
"111 613 LINE",
"231 243 LINE",
"190 0 LINE"
);
},
{
closed = 1;
nodes = (
"451 0 LINE",
"464 80 LINE",
"314 108 LINE",
"123 72 LINE",
"112 0 LINE"
);
},
{
closed = 1;
nodes = (
"363 533 LINE",
"376 613 LINE",
"77 613 LINE",
"66 541 LINE",
"216 505 LINE"
);
},
{
closed = 1;
nodes = (
"619 548 LINE",
"605 613 LINE",
"418 613 LINE",
"405 533 LINE",
"541 505 LINE"
);
}
);
width = 551;
}
);
leftKerningGroup = Y;
rightKerningGroup = Y;
unicode = 0059;
},
{
glyphname = Z;
lastChange = "2018-02-12 15:37:00 +0000";
layers = (
{
anchors = (
{
name = top;
position = "{341, 603}";
}
);
layerId = "D9712079-C16A-42CB-8BA4-BD9ECFFACF10";
paths = (
{
closed = 1;
nodes = (
"109 0 LINE",
"523 565 LINE",
"530 603 LINE",
"450 603 LINE",
"46 50 LINE",
"38 0 LINE"
);
},
{
closed = 1;
nodes = (
"450 0 LINE",
"450 58 LINE",
"103 74 LINE",
"46 50 LINE",
"38 0 LINE"
);
},
{
closed = 1;
nodes = (
"450 0 LINE",
"470 184 LINE",
"419 184 LINE",
"370 0 LINE"
);
},
{
closed = 1;
nodes = (
"178 428 LINE",
"220 603 LINE",
"143 603 LINE",
"125 428 LINE"
);
},
{
closed = 1;
nodes = (
"523 565 LINE",
"530 603 LINE",
"143 603 LINE",
"143 547 LINE",
"451 533 LINE"
);
}
);
width = 471;
},
{
anchors = (
{
name = top;
position = "{299, 591}";
}
);
background = {
paths = (
{
closed = 1;
nodes = (
"462 571 LINE",
"466 591 LINE",
"129 591 LINE",
"132 570 LINE",
"427 563 LINE"
);
},
{
closed = 1;
nodes = (
"29 0 LINE",
"48 0 LINE",
"462 571 LINE",
"466 591 LINE",
"439 591 LINE",
"34 26 LINE"
);
},
{
closed = 1;
nodes = (
"34 26 LINE",
"29 0 LINE",
"379 0 LINE",
"375 23 LINE",
"64 31 LINE"
);
},
{
closed = 1;
nodes = (
"129 591 LINE",
"117 460 LINE",
"135 460 LINE",
"162 591 LINE"
);
},
{
closed = 1;
nodes = (
"379 0 LINE",
"395 137 LINE",
"377 137 LINE",
"346 0 LINE"
);
}
);
};
layerId = "16B79A64-180D-495F-8650-CA27198DF3EF";
paths = (
{
closed = 1;
nodes = (
"45 0 LINE",
"462 571 LINE",
"466 591 LINE",
"444 591 LINE",
"34 26 LINE",
"29 0 LINE"
);
},
{
closed = 1;
nodes = (
"379 0 LINE",
"375 23 LINE",
"64 27 LINE",
"34 26 LINE",
"29 0 LINE"
);
},
{
closed = 1;
nodes = (
"379 0 LINE",
"395 137 LINE",
"377 137 LINE",
"346 0 LINE"
);
},
{
closed = 1;
nodes = (
"135 460 LINE",
"162 591 LINE",
"129 591 LINE",
"117 460 LINE"
);
},
{
closed = 1;
nodes = (
"462 571 LINE",
"466 591 LINE",
"129 591 LINE",
"132 570 LINE",
"427 565 LINE"
);
}
);
width = 392;
},
{
anchors = (
{
name = top;
position = "{356, 613}";
}
);
layerId = "E259E77F-022A-45EF-A0F1-1168268390B3";
paths = (
{
closed = 1;
nodes = (
"180 0 LINE",
"586 545 LINE",
"601 613 LINE",
"431 613 LINE",
"31 80 LINE",
"19 0 LINE"
);
},
{
closed = 1;
nodes = (
"509 0 LINE",
"513 83 LINE",
"88 119 LINE",
"31 80 LINE",
"19 0 LINE"
);
},
{
closed = 1;
nodes = (
"512 0 LINE",
"542 243 LINE",
"454 243 LINE",
"394 0 LINE"
);
},
{
closed = 1;
nodes = (
"172 373 LINE",
"222 613 LINE",
"106 613 LINE",
"79 373 LINE"
);
},
{
closed = 1;
nodes = (
"586 545 LINE",
"601 613 LINE",
"106 613 LINE",
"98 532 LINE",
"514 498 LINE"
);
}
);
width = 520;
}
);
leftKerningGroup = Z;
rightKerningGroup = Z;
unicode = 005A;
},
{
glyphname = a;
lastChange = "2018-02-12 15:37:00 +0000";
layers = (
{
anchors = (
{
name = bottom;
position = "{221, 0}";
},
{
name = ogonek;
position = "{396, 0}";
},
{
name = top;
position = "{305, 448}";
}
);
background = {
paths = (
{
closed = 1;
nodes = (
"206 -9 OFFCURVE",
"266 100 OFFCURVE",
"306 170 CURVE",
"320 170 LINE",
"337 268 LINE",
"283 186 OFFCURVE",
"204 65 OFFCURVE",
"193 65 CURVE SMOOTH",
"177 65 OFFCURVE",
"161 91 OFFCURVE",
"161 147 CURVE SMOOTH",
"161 282 OFFCURVE",
"205 394 OFFCURVE",
"242 404 CURVE SMOOTH",
"257 408 OFFCURVE",
"315 395 OFFCURVE",
"357 377 CURVE",
"444 435 LINE",
"412 442 OFFCURVE",
"300 457 OFFCURVE",
"283 457 CURVE SMOOTH",
"261 457 OFFCURVE",
"143 386 OFFCURVE",
"119 358 CURVE",
"94 315 OFFCURVE",
"69 226 OFFCURVE",
"69 141 CURVE SMOOTH",
"69 50 OFFCURVE",
"106 -9 OFFCURVE",
"199 -9 CURVE SMOOTH"
);
},
{
closed = 1;
nodes = (
"322 -9 OFFCURVE",
"418 22 OFFCURVE",
"418 22 CURVE",
"423 52 LINE",
"378 63 LINE",
"444 435 LINE",
"357 435 LINE",
"318 207 LINE",
"288 22 LINE",
"288 15 OFFCURVE",
"311 -9 OFFCURVE",
"315 -9 CURVE SMOOTH"
);
}
);
};
layerId = "D9712079-C16A-42CB-8BA4-BD9ECFFACF10";
paths = (
{
closed = 1;
nodes = (
"206 -9 OFFCURVE",
"264 96 OFFCURVE",
"304 166 CURVE",
"318 166 LINE",
"337 268 LINE",
"283 186 OFFCURVE",
"204 65 OFFCURVE",
"193 65 CURVE SMOOTH",
"177 65 OFFCURVE",
"161 91 OFFCURVE",
"161 147 CURVE SMOOTH",
"161 282 OFFCURVE",
"205 389 OFFCURVE",
"242 399 CURVE SMOOTH",
"257 403 OFFCURVE",
"315 395 OFFCURVE",
"357 377 CURVE",
"444 435 LINE",
"412 442 OFFCURVE",
"300 457 OFFCURVE",
"283 457 CURVE SMOOTH",
"261 457 OFFCURVE",
"143 386 OFFCURVE",
"119 358 CURVE",
"94 315 OFFCURVE",
"69 226 OFFCURVE",
"69 141 CURVE SMOOTH",
"69 50 OFFCURVE",
"106 -9 OFFCURVE",
"199 -9 CURVE SMOOTH"
);
},
{
closed = 1;
nodes = (
"322 -9 OFFCURVE",
"418 22 OFFCURVE",
"418 22 CURVE",
"423 52 LINE",
"378 63 LINE",
"444 435 LINE",
"357 435 LINE",
"318 207 LINE",
"288 22 LINE",
"288 15 OFFCURVE",
"311 -9 OFFCURVE",
"315 -9 CURVE SMOOTH"
);
}
);
width = 437;
},
{
anchors = (
{
name = bottom;
position = "{242, 0}";
},
{
name = ogonek;
position = "{437, 0}";
},
{
name = top;
position = "{320, 462}";
}
);
background = {
paths = (
{
closed = 1;
nodes = (
"506 448 LINE",
"474 455 OFFCURVE",
"331 477 OFFCURVE",
"314 477 CURVE SMOOTH",
"284 477 OFFCURVE",
"138 414 OFFCURVE",
"92 380 CURVE",
"68 334 OFFCURVE",
"33 217 OFFCURVE",
"33 141 CURVE SMOOTH",
"33 51 OFFCURVE",
"71 -8 OFFCURVE",
"186 -8 CURVE SMOOTH",
"198 -8 OFFCURVE",
"241 72 OFFCURVE",
"282 147 CURVE",
"308 147 LINE",
"325 242 LINE",
"294 199 OFFCURVE",
"249 156 OFFCURVE",
"238 156 CURVE SMOOTH",
"216 156 OFFCURVE",
"208 165 OFFCURVE",
"208 198 CURVE SMOOTH",
"208 304 OFFCURVE",
"249 386 OFFCURVE",
"264 396 CURVE",
"279 398 OFFCURVE",
"370 374 OFFCURVE",
"419 352 CURVE"
);
},
{
closed = 1;
nodes = (
"274 40 LINE SMOOTH",
"272 26 OFFCURVE",
"299 -9 OFFCURVE",
"308 -9 CURVE SMOOTH",
"337 -9 OFFCURVE",
"443 8 OFFCURVE",
"477 15 CURVE",
"489 84 LINE",
"443 95 LINE",
"506 448 LINE",
"339 448 LINE"
);
}
);
};
layerId = "E259E77F-022A-45EF-A0F1-1168268390B3";
paths = (
{
closed = 1;
nodes = (
"190 -8 OFFCURVE",
"238 76 OFFCURVE",
"282 152 CURVE",
"308 152 LINE",
"325 236 LINE",
"293 203 OFFCURVE",
"246 156 OFFCURVE",
"240 156 CURVE SMOOTH",
"216 156 OFFCURVE",
"208 165 OFFCURVE",
"208 198 CURVE SMOOTH",
"208 304 OFFCURVE",
"247 392 OFFCURVE",
"264 396 CURVE SMOOTH",
"277 399 OFFCURVE",
"370 374 OFFCURVE",
"419 352 CURVE",
"506 448 LINE",
"474 455 OFFCURVE",
"331 477 OFFCURVE",
"314 477 CURVE SMOOTH",
"284 477 OFFCURVE",
"139 414 OFFCURVE",
"93 380 CURVE",
"64 332 OFFCURVE",
"33 217 OFFCURVE",
"33 141 CURVE SMOOTH",
"33 51 OFFCURVE",
"71 -8 OFFCURVE",
"186 -8 CURVE SMOOTH"
);
},
{
closed = 1;
nodes = (
"342 -9 OFFCURVE",
"443 8 OFFCURVE",
"477 15 CURVE",
"489 84 LINE",
"443 95 LINE",
"506 448 LINE",
"339 448 LINE",
"295 173 LINE",
"279 40 LINE SMOOTH",
"277 26 OFFCURVE",
"304 -9 OFFCURVE",
"313 -9 CURVE SMOOTH"
);
}
);
width = 479;
},
{
anchors = (
{
name = bottom;
position = "{225, 0}";
},
{
name = ogonek;
position = "{366, 0}";
},
{
name = top;
position = "{288, 440}";
}
);
background = {
paths = (
{
closed = 1;
nodes = (
"200 -9 OFFCURVE",
"294 157 OFFCURVE",
"336 230 CURVE",
"346 230 LINE",
"354 290 LINE",
"318 228 OFFCURVE",
"193 18 OFFCURVE",
"180 18 CURVE SMOOTH",
"118 18 OFFCURVE",
"111 78 OFFCURVE",
"111 143 CURVE SMOOTH",
"111 338 OFFCURVE",
"204 393 OFFCURVE",
"234 411 CURVE",
"270 433 OFFCURVE",
"312 424 OFFCURVE",
"375 405 CURVE",
"387 431 LINE",
"351 439 OFFCURVE",
"296 449 OFFCURVE",
"271 449 CURVE SMOOTH",
"247 449 OFFCURVE",
"183 408 OFFCURVE",
"145 367 CURVE",
"110 317 OFFCURVE",
"81 238 OFFCURVE",
"81 136 CURVE SMOOTH",
"81 46 OFFCURVE",
"102 -9 OFFCURVE",
"190 -9 CURVE SMOOTH"
);
}
);
};
layerId = "16B79A64-180D-495F-8650-CA27198DF3EF";
paths = (
{
closed = 1;
nodes = (
"200 -9 OFFCURVE",
"294 157 OFFCURVE",
"336 230 CURVE",
"346 230 LINE",
"354 290 LINE",
"318 228 OFFCURVE",
"193 18 OFFCURVE",
"180 18 CURVE SMOOTH",
"118 18 OFFCURVE",
"111 78 OFFCURVE",
"111 143 CURVE SMOOTH",
"111 338 OFFCURVE",
"201 392 OFFCURVE",
"233 410 CURVE SMOOTH",
"275 434 OFFCURVE",
"310 423 OFFCURVE",
"375 405 CURVE",
"403 428 LINE",
"369 435 OFFCURVE",
"300 449 OFFCURVE",
"271 449 CURVE SMOOTH",
"247 449 OFFCURVE",
"183 408 OFFCURVE",
"145 367 CURVE",
"110 317 OFFCURVE",
"81 238 OFFCURVE",
"81 136 CURVE SMOOTH",
"81 47 OFFCURVE",
"103 -9 OFFCURVE",
"190 -9 CURVE SMOOTH"
);
},
{
closed = 1;
nodes = (
"327 -9 OFFCURVE",
"347 -4 OFFCURVE",
"380 3 CURVE",
"382 18 LINE",
"332 22 LINE",
"403 428 LINE",
"374 428 LINE",
"345 254 LINE",
"305 8 LINE",
"304 5 OFFCURVE",
"318 -9 OFFCURVE",
"322 -9 CURVE SMOOTH"
);
}
);
width = 400;
}
);
leftKerningGroup = o;
rightKerningGroup = a;
unicode = 0061;
},
{
glyphname = ae;
lastChange = "2018-02-12 15:37:00 +0000";
layers = (
{
anchors = (
{
name = top;
position = "{415, 448}";
}
);
layerId = "D9712079-C16A-42CB-8BA4-BD9ECFFACF10";
paths = (
{
closed = 1;
nodes = (
"206 -9 OFFCURVE",
"284 124 OFFCURVE",
"323 195 CURVE",
"337 268 LINE",
"283 186 OFFCURVE",
"204 65 OFFCURVE",
"193 65 CURVE SMOOTH",
"177 65 OFFCURVE",
"161 91 OFFCURVE",
"161 147 CURVE SMOOTH",
"161 282 OFFCURVE",
"205 394 OFFCURVE",
"242 404 CURVE SMOOTH",
"257 408 OFFCURVE",
"343 386 OFFCURVE",
"385 368 CURVE",
"473 430 LINE",
"441 437 OFFCURVE",
"300 457 OFFCURVE",
"283 457 CURVE SMOOTH",
"261 457 OFFCURVE",
"143 386 OFFCURVE",
"119 358 CURVE",
"94 315 OFFCURVE",
"69 226 OFFCURVE",
"69 141 CURVE SMOOTH",
"69 50 OFFCURVE",
"106 -9 OFFCURVE",
"199 -9 CURVE SMOOTH"
);
},
{
closed = 1;
nodes = (
"455 -9 OFFCURVE",
"558 30 OFFCURVE",
"600 54 CURVE",
"588 94 LINE",
"552 82 OFFCURVE",
"495 64 OFFCURVE",
"473 64 CURVE SMOOTH",
"419 64 OFFCURVE",
"406 103 OFFCURVE",
"406 172 CURVE SMOOTH",
"406 283 OFFCURVE",
"452 392 OFFCURVE",
"482 404 CURVE SMOOTH",
"488 406 OFFCURVE",
"498 407 OFFCURVE",
"505 407 CURVE SMOOTH",
"531 407 OFFCURVE",
"549 398 OFFCURVE",
"549 365 CURVE SMOOTH",
"549 296 OFFCURVE",
"453 241 OFFCURVE",
"395 237 CURVE",
"395 199 LINE",
"488 205 OFFCURVE",
"641 264 OFFCURVE",
"641 367 CURVE SMOOTH",
"641 435 OFFCURVE",
"591 457 OFFCURVE",
"526 457 CURVE SMOOTH",
"504 457 OFFCURVE",
"386 386 OFFCURVE",
"362 358 CURVE",
"337 315 OFFCURVE",
"312 225 OFFCURVE",
"312 141 CURVE SMOOTH",
"312 60 OFFCURVE",
"356 -9 OFFCURVE",
"433 -9 CURVE SMOOTH"
);
}
);
width = 607;
},
{
anchors = (
{
name = top;
position = "{397, 440}";
}
);
background = {
paths = (
{
closed = 1;
nodes = (
"464 -9 OFFCURVE",
"520 10 OFFCURVE",
"548 25 CURVE",
"544 40 LINE",
"520 32 OFFCURVE",
"481 17 OFFCURVE",
"454 17 CURVE SMOOTH",
"384 17 OFFCURVE",
"345 60 OFFCURVE",
"345 148 CURVE SMOOTH",
"345 336 OFFCURVE",
"430 389 OFFCURVE",
"463 408 CURVE SMOOTH",
"481 419 OFFCURVE",
"497 424 OFFCURVE",
"515 424 CURVE SMOOTH",
"554 424 OFFCURVE",
"572 407 OFFCURVE",
"572 374 CURVE SMOOTH",
"572 304 OFFCURVE",
"488 218 OFFCURVE",
"342 216 CURVE",
"340 197 LINE",
"490 200 OFFCURVE",
"601 284 OFFCURVE",
"601 378 CURVE SMOOTH",
"601 436 OFFCURVE",
"554 449 OFFCURVE",
"504 449 CURVE SMOOTH",
"480 449 OFFCURVE",
"416 408 OFFCURVE",
"378 367 CURVE",
"342 319 OFFCURVE",
"315 238 OFFCURVE",
"315 142 CURVE SMOOTH",
"315 48 OFFCURVE",
"359 -9 OFFCURVE",
"456 -9 CURVE SMOOTH"
);
}
);
};
layerId = "16B79A64-180D-495F-8650-CA27198DF3EF";
paths = (
{
closed = 1;
nodes = (
"201 -9 OFFCURVE",
"316 188 OFFCURVE",
"346 243 CURVE",
"354 291 LINE",
"318 229 OFFCURVE",
"193 18 OFFCURVE",
"180 18 CURVE SMOOTH",
"118 18 OFFCURVE",
"111 78 OFFCURVE",
"111 143 CURVE SMOOTH",
"111 338 OFFCURVE",
"201 392 OFFCURVE",
"233 410 CURVE SMOOTH",
"275 434 OFFCURVE",
"316 428 OFFCURVE",
"417 396 CURVE",
"448 418 LINE",
"410 427 OFFCURVE",
"299 449 OFFCURVE",
"271 449 CURVE SMOOTH",
"247 449 OFFCURVE",
"183 408 OFFCURVE",
"145 367 CURVE",
"110 317 OFFCURVE",
"81 238 OFFCURVE",
"81 136 CURVE SMOOTH",
"81 47 OFFCURVE",
"103 -9 OFFCURVE",
"190 -9 CURVE SMOOTH"
);
},
{
closed = 1;
nodes = (
"464 -9 OFFCURVE",
"520 10 OFFCURVE",
"548 25 CURVE",
"544 40 LINE",
"520 32 OFFCURVE",
"481 17 OFFCURVE",
"454 17 CURVE SMOOTH",
"382 17 OFFCURVE",
"345 58 OFFCURVE",
"345 148 CURVE SMOOTH",
"345 336 OFFCURVE",
"430 389 OFFCURVE",
"463 408 CURVE SMOOTH",
"480 418 OFFCURVE",
"499 424 OFFCURVE",
"515 424 CURVE SMOOTH",
"554 424 OFFCURVE",
"572 407 OFFCURVE",
"572 374 CURVE SMOOTH",
"572 304 OFFCURVE",
"488 218 OFFCURVE",
"342 216 CURVE",
"340 197 LINE",
"490 200 OFFCURVE",
"601 284 OFFCURVE",
"601 378 CURVE SMOOTH",
"601 436 OFFCURVE",
"554 449 OFFCURVE",
"504 449 CURVE SMOOTH",
"478 449 OFFCURVE",
"416 408 OFFCURVE",
"378 367 CURVE",
"342 319 OFFCURVE",
"315 238 OFFCURVE",
"315 142 CURVE SMOOTH",
"315 48 OFFCURVE",
"359 -9 OFFCURVE",
"456 -9 CURVE SMOOTH"
);
}
);
width = 566;
},
{
anchors = (
{
name = top;
position = "{453, 462}";
}
);
layerId = "E259E77F-022A-45EF-A0F1-1168268390B3";
paths = (
{
closed = 1;
nodes = (
"196 -8 OFFCURVE",
"270 110 OFFCURVE",
"320 197 CURVE",
"326 236 LINE",
"294 203 OFFCURVE",
"247 156 OFFCURVE",
"241 156 CURVE SMOOTH",
"217 156 OFFCURVE",
"209 165 OFFCURVE",
"209 198 CURVE SMOOTH",
"209 304 OFFCURVE",
"248 392 OFFCURVE",
"265 396 CURVE SMOOTH",
"278 399 OFFCURVE",
"371 374 OFFCURVE",
"420 352 CURVE",
"507 448 LINE",
"475 455 OFFCURVE",
"332 477 OFFCURVE",
"315 477 CURVE SMOOTH",
"285 477 OFFCURVE",
"140 414 OFFCURVE",
"94 380 CURVE",
"65 332 OFFCURVE",
"34 217 OFFCURVE",
"34 141 CURVE SMOOTH",
"34 51 OFFCURVE",
"72 -8 OFFCURVE",
"187 -8 CURVE SMOOTH"
);
},
{
closed = 1;
nodes = (
"501 -9 OFFCURVE",
"606 23 OFFCURVE",
"668 47 CURVE",
"651 121 LINE",
"593 104 OFFCURVE",
"554 91 OFFCURVE",
"524 91 CURVE SMOOTH",
"486 91 OFFCURVE",
"471 110 OFFCURVE",
"471 168 CURVE SMOOTH",
"471 266 OFFCURVE",
"494 381 OFFCURVE",
"524 394 CURVE SMOOTH",
"527 395 OFFCURVE",
"533 396 OFFCURVE",
"537 396 CURVE SMOOTH",
"560 396 OFFCURVE",
"566 376 OFFCURVE",
"566 355 CURVE SMOOTH",
"566 288 OFFCURVE",
"521 251 OFFCURVE",
"463 247 CURVE",
"463 191 LINE",
"596 191 OFFCURVE",
"724 260 OFFCURVE",
"724 381 CURVE SMOOTH",
"724 456 OFFCURVE",
"652 477 OFFCURVE",
"580 477 CURVE SMOOTH",
"549 477 OFFCURVE",
"400 414 OFFCURVE",
"352 380 CURVE",
"326 334 OFFCURVE",
"293 216 OFFCURVE",
"293 146 CURVE SMOOTH",
"293 40 OFFCURVE",
"367 -9 OFFCURVE",
"479 -9 CURVE SMOOTH"
);
}
);
width = 685;
}
);
leftKerningGroup = a;
rightKerningGroup = e;
unicode = 00E6;
},
{
glyphname = b;
lastChange = "2018-02-12 15:37:00 +0000";
layers = (
{
background = {
paths = (
{
closed = 1;
nodes = (
"246 -9 OFFCURVE",
"364 62 OFFCURVE",
"388 90 CURVE",
"410 136 OFFCURVE",
"438 231 OFFCURVE",
"438 307 CURVE SMOOTH",
"438 398 OFFCURVE",
"401 457 OFFCURVE",
"308 457 CURVE SMOOTH",
"301 457 OFFCURVE",
"242 351 OFFCURVE",
"201 278 CURVE",
"187 278 LINE",
"170 180 LINE",
"217 251 OFFCURVE",
"304 383 OFFCURVE",
"314 383 CURVE SMOOTH",
"330 383 OFFCURVE",
"346 357 OFFCURVE",
"346 301 CURVE SMOOTH",
"346 166 OFFCURVE",
"285 54 OFFCURVE",
"265 42 CURVE",
"250 38 OFFCURVE",
"192 53 OFFCURVE",
"150 71 CURVE",
"63 13 LINE",
"95 6 OFFCURVE",
"207 -9 OFFCURVE",
"224 -9 CURVE SMOOTH"
);
},
{
closed = 1;
nodes = (
"150 13 LINE",
"191 245 LINE",
"254 615 LINE",
"255 621 OFFCURVE",
"232 646 OFFCURVE",
"227 646 CURVE SMOOTH",
"222 646 OFFCURVE",
"152 625 OFFCURVE",
"122 615 CURVE",
"117 585 LINE",
"162 574 LINE",
"63 13 LINE"
);
}
);
};
layerId = "D9712079-C16A-42CB-8BA4-BD9ECFFACF10";
paths = (
{
closed = 1;
nodes = (
"246 -9 OFFCURVE",
"364 62 OFFCURVE",
"388 90 CURVE",
"413 133 OFFCURVE",
"438 222 OFFCURVE",
"438 307 CURVE SMOOTH",
"438 398 OFFCURVE",
"401 457 OFFCURVE",
"308 457 CURVE SMOOTH",
"301 457 OFFCURVE",
"244 355 OFFCURVE",
"203 282 CURVE",
"189 282 LINE",
"170 180 LINE",
"217 251 OFFCURVE",
"304 383 OFFCURVE",
"314 383 CURVE SMOOTH",
"330 383 OFFCURVE",
"346 357 OFFCURVE",
"346 301 CURVE SMOOTH",
"346 166 OFFCURVE",
"302 59 OFFCURVE",
"265 49 CURVE SMOOTH",
"250 45 OFFCURVE",
"192 53 OFFCURVE",
"150 71 CURVE",
"63 13 LINE",
"95 6 OFFCURVE",
"207 -9 OFFCURVE",
"224 -9 CURVE SMOOTH"
);
},
{
closed = 1;
nodes = (
"150 13 LINE",
"191 245 LINE",
"254 615 LINE",
"255 621 OFFCURVE",
"232 646 OFFCURVE",
"227 646 CURVE SMOOTH",
"222 646 OFFCURVE",
"152 625 OFFCURVE",
"122 615 CURVE",
"117 585 LINE",
"162 574 LINE",
"63 13 LINE"
);
}
);
width = 423;
},
{
background = {
paths = (
{
closed = 1;
nodes = (
"238 -9 OFFCURVE",
"302 33 OFFCURVE",
"340 74 CURVE",
"375 124 OFFCURVE",
"404 202 OFFCURVE",
"404 304 CURVE SMOOTH",
"404 394 OFFCURVE",
"383 449 OFFCURVE",
"294 449 CURVE SMOOTH",
"284 449 OFFCURVE",
"194 289 OFFCURVE",
"149 211 CURVE",
"139 211 LINE",
"130 150 LINE",
"167 212 OFFCURVE",
"291 422 OFFCURVE",
"304 422 CURVE SMOOTH",
"367 422 OFFCURVE",
"374 362 OFFCURVE",
"374 297 CURVE SMOOTH",
"374 102 OFFCURVE",
"281 48 OFFCURVE",
"251 30 CURVE",
"215 8 OFFCURVE",
"172 17 OFFCURVE",
"109 36 CURVE",
"81 13 LINE",
"115 6 OFFCURVE",
"188 -9 OFFCURVE",
"214 -9 CURVE SMOOTH"
);
},
{
closed = 1;
nodes = (
"110 13 LINE",
"141 193 LINE",
"213 620 LINE",
"214 623 OFFCURVE",
"201 637 OFFCURVE",
"197 637 CURVE SMOOTH",
"192 637 OFFCURVE",
"164 632 OFFCURVE",
"131 625 CURVE",
"129 610 LINE",
"184 606 LINE",
"81 13 LINE"
);
}
);
};
layerId = "16B79A64-180D-495F-8650-CA27198DF3EF";
paths = (
{
closed = 1;
nodes = (
"238 -9 OFFCURVE",
"303 33 OFFCURVE",
"341 74 CURVE",
"375 123 OFFCURVE",
"404 202 OFFCURVE",
"404 304 CURVE SMOOTH",
"404 394 OFFCURVE",
"383 449 OFFCURVE",
"294 449 CURVE SMOOTH",
"284 449 OFFCURVE",
"194 289 OFFCURVE",
"149 211 CURVE",
"139 211 LINE",
"130 150 LINE",
"167 212 OFFCURVE",
"290 421 OFFCURVE",
"304 421 CURVE SMOOTH",
"365 421 OFFCURVE",
"374 360 OFFCURVE",
"374 297 CURVE SMOOTH",
"374 102 OFFCURVE",
"283 48 OFFCURVE",
"252 30 CURVE SMOOTH",
"215 8 OFFCURVE",
"172 17 OFFCURVE",
"109 36 CURVE",
"81 13 LINE",
"115 6 OFFCURVE",
"188 -9 OFFCURVE",
"214 -9 CURVE SMOOTH"
);
},
{
closed = 1;
nodes = (
"110 13 LINE",
"141 193 LINE",
"213 620 LINE",
"214 623 OFFCURVE",
"201 637 OFFCURVE",
"197 637 CURVE SMOOTH",
"192 637 OFFCURVE",
"164 632 OFFCURVE",
"131 625 CURVE",
"129 610 LINE",
"184 606 LINE",
"81 13 LINE"
);
}
);
width = 409;
},
{
background = {
paths = (
{
closed = 1;
nodes = (
"254 -8 OFFCURVE",
"400 55 OFFCURVE",
"446 89 CURVE",
"470 135 OFFCURVE",
"505 252 OFFCURVE",
"505 328 CURVE SMOOTH",
"505 418 OFFCURVE",
"467 477 OFFCURVE",
"352 477 CURVE SMOOTH",
"348 477 OFFCURVE",
"300 393 OFFCURVE",
"256 317 CURVE",
"230 317 LINE",
"213 232 LINE",
"247 266 OFFCURVE",
"292 313 OFFCURVE",
"299 313 CURVE SMOOTH",
"323 313 OFFCURVE",
"330 304 OFFCURVE",
"330 271 CURVE SMOOTH",
"330 165 OFFCURVE",
"289 83 OFFCURVE",
"274 73 CURVE",
"259 71 OFFCURVE",
"168 95 OFFCURVE",
"119 117 CURVE",
"32 21 LINE",
"64 14 OFFCURVE",
"207 -8 OFFCURVE",
"224 -8 CURVE SMOOTH"
);
},
{
closed = 1;
nodes = (
"199 20 LINE",
"245 295 LINE",
"292 615 LINE SMOOTH",
"294 626 OFFCURVE",
"269 665 OFFCURVE",
"260 665 CURVE SMOOTH",
"231 665 OFFCURVE",
"128 648 OFFCURVE",
"94 641 CURVE",
"82 572 LINE",
"128 561 LINE",
"32 20 LINE"
);
}
);
};
layerId = "E259E77F-022A-45EF-A0F1-1168268390B3";
paths = (
{
closed = 1;
nodes = (
"254 -8 OFFCURVE",
"399 55 OFFCURVE",
"445 89 CURVE",
"474 137 OFFCURVE",
"505 252 OFFCURVE",
"505 328 CURVE SMOOTH",
"505 418 OFFCURVE",
"467 477 OFFCURVE",
"352 477 CURVE SMOOTH",
"348 477 OFFCURVE",
"300 393 OFFCURVE",
"256 317 CURVE",
"230 317 LINE",
"213 232 LINE",
"247 266 OFFCURVE",
"292 313 OFFCURVE",
"299 313 CURVE SMOOTH",
"323 313 OFFCURVE",
"330 304 OFFCURVE",
"330 271 CURVE SMOOTH",
"330 165 OFFCURVE",
"291 77 OFFCURVE",
"274 73 CURVE SMOOTH",
"260 70 OFFCURVE",
"168 95 OFFCURVE",
"119 117 CURVE",
"32 21 LINE",
"64 14 OFFCURVE",
"207 -8 OFFCURVE",
"224 -8 CURVE SMOOTH"
);
},
{
closed = 1;
nodes = (
"199 20 LINE",
"245 295 LINE",
"292 615 LINE SMOOTH",
"294 626 OFFCURVE",
"269 665 OFFCURVE",
"260 665 CURVE SMOOTH",
"231 665 OFFCURVE",
"128 648 OFFCURVE",
"94 641 CURVE",
"82 572 LINE",
"128 561 LINE",
"32 20 LINE"
);
}
);
width = 486;
}
);
leftKerningGroup = b;
rightKerningGroup = o;
unicode = 0062;
},
{
glyphname = c;
lastChange = "2018-02-12 15:37:00 +0000";
layers = (
{
anchors = (
{
name = bottom;
position = "{199, 0}";
},
{
name = top;
position = "{278, 448}";
}
);
background = {
paths = (
{
closed = 1;
nodes = (
"212 -9 OFFCURVE",
"270 6 OFFCURVE",
"318 21 CURVE",
"326 64 LINE",
"230 64 LINE SMOOTH",
"198 64 OFFCURVE",
"164 82 OFFCURVE",
"164 172 CURVE SMOOTH",
"164 278 OFFCURVE",
"215 382 OFFCURVE",
"241 406 CURVE",
"261 406 OFFCURVE",
"318 389 OFFCURVE",
"361 366 CURVE",
"391 442 LINE",
"355 446 OFFCURVE",
"305 457 OFFCURVE",
"283 457 CURVE SMOOTH",
"262 457 OFFCURVE",
"143 386 OFFCURVE",
"119 358 CURVE",
"97 312 OFFCURVE",
"69 218 OFFCURVE",
"69 141 CURVE SMOOTH",
"69 60 OFFCURVE",
"110 -9 OFFCURVE",
"198 -9 CURVE SMOOTH"
);
},
{
closed = 1;
nodes = (
"361 297 LINE",
"391 442 LINE",
"305 442 LINE",
"324 297 LINE"
);
}
);
};
guideLines = (
{
position = "{420, 406}";
}
);
layerId = "D9712079-C16A-42CB-8BA4-BD9ECFFACF10";
paths = (
{
closed = 1;
nodes = (
"212 -9 OFFCURVE",
"270 6 OFFCURVE",
"318 21 CURVE",
"326 64 LINE",
"230 64 LINE SMOOTH",
"198 64 OFFCURVE",
"164 82 OFFCURVE",
"164 172 CURVE SMOOTH",
"164 288 OFFCURVE",
"208 389 OFFCURVE",
"239 399 CURVE SMOOTH",
"242 400 OFFCURVE",
"246 401 OFFCURVE",
"251 401 CURVE SMOOTH",
"279 401 OFFCURVE",
"328 386 OFFCURVE",
"361 366 CURVE",
"391 442 LINE",
"355 446 OFFCURVE",
"305 457 OFFCURVE",
"283 457 CURVE SMOOTH",
"262 457 OFFCURVE",
"143 386 OFFCURVE",
"119 358 CURVE",
"94 315 OFFCURVE",
"69 225 OFFCURVE",
"69 141 CURVE SMOOTH",
"69 60 OFFCURVE",
"110 -9 OFFCURVE",
"198 -9 CURVE SMOOTH"
);
},
{
closed = 1;
nodes = (
"361 297 LINE",
"391 442 LINE",
"305 442 LINE",
"324 297 LINE"
);
}
);
width = 343;
},
{
anchors = (
{
name = bottom;
position = "{210, 0}";
},
{
name = top;
position = "{280, 440}";
}
);
background = {
paths = (
{
closed = 1;
nodes = (
"231 -9 OFFCURVE",
"289 -2 OFFCURVE",
"313 4 CURVE",
"316 19 LINE",
"221 17 LINE SMOOTH",
"150 16 OFFCURVE",
"112 60 OFFCURVE",
"112 148 CURVE SMOOTH",
"112 338 OFFCURVE",
"204 401 OFFCURVE",
"257 421 CURVE",
"274 426 OFFCURVE",
"318 420 OFFCURVE",
"358 408 CURVE",
"372 437 LINE",
"346 445 OFFCURVE",
"297 450 OFFCURVE",
"271 450 CURVE SMOOTH",
"247 450 OFFCURVE",
"183 408 OFFCURVE",
"145 367 CURVE",
"109 316 OFFCURVE",
"82 236 OFFCURVE",
"82 142 CURVE SMOOTH",
"82 48 OFFCURVE",
"126 -9 OFFCURVE",
"223 -9 CURVE SMOOTH"
);
},
{
closed = 1;
nodes = (
"343 314 LINE",
"372 437 LINE",
"339 437 LINE",
"326 314 LINE"
);
}
);
};
layerId = "16B79A64-180D-495F-8650-CA27198DF3EF";
paths = (
{
closed = 1;
nodes = (
"231 -9 OFFCURVE",
"289 -2 OFFCURVE",
"313 4 CURVE",
"316 19 LINE",
"221 17 LINE SMOOTH",
"150 16 OFFCURVE",
"112 60 OFFCURVE",
"112 148 CURVE SMOOTH",
"112 336 OFFCURVE",
"197 389 OFFCURVE",
"230 408 CURVE SMOOTH",
"248 419 OFFCURVE",
"264 423 OFFCURVE",
"282 423 CURVE SMOOTH",
"309 423 OFFCURVE",
"335 415 OFFCURVE",
"358 408 CURVE",
"372 437 LINE",
"346 442 OFFCURVE",
"297 449 OFFCURVE",
"271 449 CURVE SMOOTH",
"247 449 OFFCURVE",
"183 408 OFFCURVE",
"145 367 CURVE",
"109 319 OFFCURVE",
"82 236 OFFCURVE",
"82 142 CURVE SMOOTH",
"82 48 OFFCURVE",
"126 -9 OFFCURVE",
"223 -9 CURVE SMOOTH"
);
},
{
closed = 1;
nodes = (
"343 314 LINE",
"372 437 LINE",
"339 437 LINE",
"326 314 LINE"
);
}
);
width = 321;
},
{
anchors = (
{
name = bottom;
position = "{211, 0}";
},
{
name = top;
position = "{281, 462}";
}
);
background = {
paths = (
{
closed = 1;
nodes = (
"219 -9 OFFCURVE",
"303 7 OFFCURVE",
"361 21 CURVE",
"374 91 LINE",
"273 91 LINE SMOOTH",
"221 91 OFFCURVE",
"212 115 OFFCURVE",
"212 165 CURVE SMOOTH",
"212 265 OFFCURVE",
"240 374 OFFCURVE",
"265 394 CURVE",
"283 394 OFFCURVE",
"336 367 OFFCURVE",
"388 331 CURVE",
"445 468 LINE",
"409 472 OFFCURVE",
"342 477 OFFCURVE",
"320 477 CURVE SMOOTH",
"290 477 OFFCURVE",
"141 414 OFFCURVE",
"93 380 CURVE",
"67 334 OFFCURVE",
"34 216 OFFCURVE",
"34 146 CURVE SMOOTH",
"34 48 OFFCURVE",
"102 -9 OFFCURVE",
"205 -9 CURVE SMOOTH"
);
},
{
closed = 1;
nodes = (
"405 286 LINE",
"445 468 LINE",
"316 463 LINE",
"333 286 LINE"
);
}
);
};
layerId = "E259E77F-022A-45EF-A0F1-1168268390B3";
paths = (
{
closed = 1;
nodes = (
"219 -9 OFFCURVE",
"303 7 OFFCURVE",
"361 21 CURVE",
"374 91 LINE",
"273 91 LINE SMOOTH",
"221 91 OFFCURVE",
"212 115 OFFCURVE",
"212 165 CURVE SMOOTH",
"212 265 OFFCURVE",
"235 381 OFFCURVE",
"265 394 CURVE SMOOTH",
"268 395 OFFCURVE",
"271 396 OFFCURVE",
"274 396 CURVE SMOOTH",
"300 396 OFFCURVE",
"342 363 OFFCURVE",
"388 331 CURVE",
"445 468 LINE",
"409 472 OFFCURVE",
"342 477 OFFCURVE",
"320 477 CURVE SMOOTH",
"290 477 OFFCURVE",
"141 414 OFFCURVE",
"93 380 CURVE",
"67 334 OFFCURVE",
"34 216 OFFCURVE",
"34 146 CURVE SMOOTH",
"34 48 OFFCURVE",
"102 -9 OFFCURVE",
"205 -9 CURVE SMOOTH"
);
},
{
closed = 1;
nodes = (
"405 286 LINE",
"445 468 LINE",
"316 463 LINE",
"333 286 LINE"
);
}
);
width = 389;
}
);
leftKerningGroup = o;
rightKerningGroup = c;
unicode = 0063;
},
{
glyphname = d;
lastChange = "2018-02-12 15:37:00 +0000";
layers = (
{
background = {
paths = (
{
closed = 1;
nodes = (
"206 -9 OFFCURVE",
"266 100 OFFCURVE",
"306 170 CURVE",
"320 170 LINE",
"337 268 LINE",
"288 195 OFFCURVE",
"203 65 OFFCURVE",
"193 65 CURVE SMOOTH",
"177 65 OFFCURVE",
"161 91 OFFCURVE",
"161 147 CURVE SMOOTH",
"161 282 OFFCURVE",
"222 394 OFFCURVE",
"242 406 CURVE",
"257 410 OFFCURVE",
"315 395 OFFCURVE",
"357 377 CURVE",
"393 444 LINE",
"349 450 OFFCURVE",
"294 457 OFFCURVE",
"283 457 CURVE SMOOTH",
"261 457 OFFCURVE",
"143 386 OFFCURVE",
"119 358 CURVE",
"97 312 OFFCURVE",
"69 217 OFFCURVE",
"69 141 CURVE SMOOTH",
"69 50 OFFCURVE",
"106 -9 OFFCURVE",
"199 -9 CURVE SMOOTH"
);
},
{
closed = 1;
nodes = (
"320 -9 OFFCURVE",
"418 22 OFFCURVE",
"418 22 CURVE",
"423 52 LINE",
"378 63 LINE",
"475 615 LINE",
"476 621 OFFCURVE",
"453 646 OFFCURVE",
"448 646 CURVE SMOOTH",
"443 646 OFFCURVE",
"371 625 OFFCURVE",
"341 615 CURVE",
"336 585 LINE",
"381 574 LINE",
"319 211 LINE",
"286 22 LINE",
"286 15 OFFCURVE",
"307 -9 OFFCURVE",
"313 -9 CURVE SMOOTH"
);
}
);
};
layerId = "D9712079-C16A-42CB-8BA4-BD9ECFFACF10";
paths = (
{
closed = 1;
nodes = (
"443 646 OFFCURVE",
"371 625 OFFCURVE",
"341 615 CURVE",
"336 585 LINE",
"381 574 LINE",
"319 211 LINE",
"286 22 LINE",
"286 15 OFFCURVE",
"307 -9 OFFCURVE",
"313 -9 CURVE SMOOTH",
"320 -9 OFFCURVE",
"418 22 OFFCURVE",
"418 22 CURVE",
"423 52 LINE",
"378 63 LINE",
"475 615 LINE",
"476 621 OFFCURVE",
"453 646 OFFCURVE",
"448 646 CURVE SMOOTH"
);
},
{
closed = 1;
nodes = (
"257 403 OFFCURVE",
"315 395 OFFCURVE",
"357 377 CURVE",
"444 435 LINE",
"412 442 OFFCURVE",
"300 457 OFFCURVE",
"283 457 CURVE SMOOTH",
"261 457 OFFCURVE",
"143 386 OFFCURVE",
"119 358 CURVE",
"94 315 OFFCURVE",
"69 226 OFFCURVE",
"69 141 CURVE SMOOTH",
"69 50 OFFCURVE",
"106 -9 OFFCURVE",
"199 -9 CURVE SMOOTH",
"206 -9 OFFCURVE",
"264 96 OFFCURVE",
"304 166 CURVE",
"318 166 LINE",
"337 268 LINE",
"283 186 OFFCURVE",
"204 65 OFFCURVE",
"193 65 CURVE SMOOTH",
"177 65 OFFCURVE",
"161 91 OFFCURVE",
"161 147 CURVE SMOOTH",
"161 282 OFFCURVE",
"205 389 OFFCURVE",
"242 399 CURVE SMOOTH"
);
}
);
width = 433;
},
{
background = {
paths = (
{
closed = 1;
nodes = (
"190 -8 OFFCURVE",
"241 81 OFFCURVE",
"282 152 CURVE",
"308 152 LINE",
"325 236 LINE",
"293 203 OFFCURVE",
"246 156 OFFCURVE",
"240 156 CURVE SMOOTH",
"216 156 OFFCURVE",
"208 165 OFFCURVE",
"208 198 CURVE SMOOTH",
"208 304 OFFCURVE",
"249 386 OFFCURVE",
"264 396 CURVE",
"279 398 OFFCURVE",
"370 374 OFFCURVE",
"419 352 CURVE",
"426 462 LINE",
"377 469 OFFCURVE",
"324 477 OFFCURVE",
"314 477 CURVE SMOOTH",
"284 477 OFFCURVE",
"138 414 OFFCURVE",
"92 380 CURVE",
"68 334 OFFCURVE",
"33 217 OFFCURVE",
"33 141 CURVE SMOOTH",
"33 51 OFFCURVE",
"71 -8 OFFCURVE",
"186 -8 CURVE SMOOTH"
);
},
{
closed = 1;
nodes = (
"342 -9 OFFCURVE",
"438 8 OFFCURVE",
"472 15 CURVE",
"484 84 LINE",
"443 95 LINE",
"535 615 LINE SMOOTH",
"537 626 OFFCURVE",
"509 665 OFFCURVE",
"500 665 CURVE SMOOTH",
"471 665 OFFCURVE",
"364 648 OFFCURVE",
"330 641 CURVE",
"318 572 LINE",
"359 561 LINE",
"296 176 LINE",
"279 40 LINE SMOOTH",
"277 26 OFFCURVE",
"304 -9 OFFCURVE",
"313 -9 CURVE SMOOTH"
);
}
);
};
layerId = "E259E77F-022A-45EF-A0F1-1168268390B3";
paths = (
{
closed = 1;
nodes = (
"471 665 OFFCURVE",
"364 648 OFFCURVE",
"330 641 CURVE",
"318 572 LINE",
"359 561 LINE",
"296 176 LINE",
"279 40 LINE SMOOTH",
"277 26 OFFCURVE",
"304 -9 OFFCURVE",
"313 -9 CURVE SMOOTH",
"342 -9 OFFCURVE",
"438 8 OFFCURVE",
"472 15 CURVE",
"484 84 LINE",
"443 95 LINE",
"535 615 LINE SMOOTH",
"537 626 OFFCURVE",
"509 665 OFFCURVE",
"500 665 CURVE SMOOTH"
);
},
{
closed = 1;
nodes = (
"277 399 OFFCURVE",
"370 374 OFFCURVE",
"419 352 CURVE",
"506 448 LINE",
"474 455 OFFCURVE",
"331 477 OFFCURVE",
"314 477 CURVE",
"284 477 OFFCURVE",
"139 414 OFFCURVE",
"93 380 CURVE",
"64 332 OFFCURVE",
"33 217 OFFCURVE",
"33 141 CURVE SMOOTH",
"33 51 OFFCURVE",
"71 -8 OFFCURVE",
"186 -8 CURVE SMOOTH",
"190 -8 OFFCURVE",
"238 76 OFFCURVE",
"282 152 CURVE",
"308 152 LINE",
"325 236 LINE",
"293 203 OFFCURVE",
"246 156 OFFCURVE",
"240 156 CURVE SMOOTH",
"216 156 OFFCURVE",
"208 165 OFFCURVE",
"208 198 CURVE SMOOTH",
"208 304 OFFCURVE",
"247 392 OFFCURVE",
"264 396 CURVE SMOOTH"
);
}
);
width = 480;
},
{
background = {
paths = (
{
closed = 1;
nodes = (
"200 -9 OFFCURVE",
"294 157 OFFCURVE",
"336 230 CURVE",
"346 230 LINE",
"354 290 LINE",
"318 228 OFFCURVE",
"193 18 OFFCURVE",
"180 18 CURVE SMOOTH",
"118 18 OFFCURVE",
"111 78 OFFCURVE",
"111 143 CURVE SMOOTH",
"111 338 OFFCURVE",
"204 393 OFFCURVE",
"234 411 CURVE",
"270 433 OFFCURVE",
"312 424 OFFCURVE",
"375 405 CURVE",
"387 431 LINE",
"351 439 OFFCURVE",
"296 449 OFFCURVE",
"271 449 CURVE SMOOTH",
"247 449 OFFCURVE",
"183 408 OFFCURVE",
"145 367 CURVE",
"110 317 OFFCURVE",
"81 238 OFFCURVE",
"81 136 CURVE SMOOTH",
"81 46 OFFCURVE",
"102 -9 OFFCURVE",
"190 -9 CURVE SMOOTH"
);
},
{
closed = 1;
nodes = (
"325 -9 OFFCURVE",
"352 -4 OFFCURVE",
"385 3 CURVE",
"387 18 LINE",
"332 22 LINE",
"436 620 LINE",
"437 623 OFFCURVE",
"423 637 OFFCURVE",
"419 637 CURVE SMOOTH",
"414 637 OFFCURVE",
"385 632 OFFCURVE",
"352 625 CURVE",
"350 610 LINE",
"405 606 LINE",
"344 253 LINE",
"303 8 LINE",
"302 5 OFFCURVE",
"316 -9 OFFCURVE",
"320 -9 CURVE SMOOTH"
);
}
);
};
layerId = "16B79A64-180D-495F-8650-CA27198DF3EF";
paths = (
{
closed = 1;
nodes = (
"414 637 OFFCURVE",
"385 632 OFFCURVE",
"352 625 CURVE",
"350 610 LINE",
"405 606 LINE",
"344 253 LINE",
"303 8 LINE",
"302 5 OFFCURVE",
"316 -9 OFFCURVE",
"320 -9 CURVE SMOOTH",
"325 -9 OFFCURVE",
"352 -4 OFFCURVE",
"385 3 CURVE",
"387 18 LINE",
"332 22 LINE",
"436 620 LINE",
"437 623 OFFCURVE",
"423 637 OFFCURVE",
"419 637 CURVE SMOOTH"
);
},
{
closed = 1;
nodes = (
"275 434 OFFCURVE",
"310 423 OFFCURVE",
"375 405 CURVE",
"403 428 LINE",
"369 435 OFFCURVE",
"300 449 OFFCURVE",
"271 449 CURVE SMOOTH",
"247 449 OFFCURVE",
"183 408 OFFCURVE",
"145 367 CURVE",
"110 317 OFFCURVE",
"81 238 OFFCURVE",
"81 136 CURVE SMOOTH",
"81 47 OFFCURVE",
"103 -9 OFFCURVE",
"190 -9 CURVE SMOOTH",
"200 -9 OFFCURVE",
"294 157 OFFCURVE",
"336 230 CURVE",
"346 230 LINE",
"354 290 LINE",
"318 228 OFFCURVE",
"193 18 OFFCURVE",
"180 18 CURVE SMOOTH",
"118 18 OFFCURVE",
"111 78 OFFCURVE",
"111 143 CURVE SMOOTH",
"111 338 OFFCURVE",
"201 392 OFFCURVE",
"233 410 CURVE SMOOTH"
);
}
);
width = 402;
}
);
leftKerningGroup = o;
rightKerningGroup = d;
unicode = 0064;
},
{
glyphname = eth;
lastChange = "2018-02-12 15:37:00 +0000";
layers = (
{
background = {
paths = (
{
closed = 1;
nodes = (
"345 329 LINE",
"319 347 OFFCURVE",
"262 380 OFFCURVE",
"253 380 CURVE SMOOTH",
"141 380 OFFCURVE",
"65 285 OFFCURVE",
"65 155 CURVE SMOOTH",
"65 133 OFFCURVE",
"67 111 OFFCURVE",
"70 89 CURVE",
"87 58 OFFCURVE",
"157 -9 OFFCURVE",
"179 -9 CURVE SMOOTH",
"361 -9 OFFCURVE",
"430 212 OFFCURVE",
"430 395 CURVE SMOOTH",
"430 532 OFFCURVE",
"362 611 OFFCURVE",
"218 611 CURVE",
"227 560 LINE",
"312 560 OFFCURVE",
"338 507 OFFCURVE",
"338 415 CURVE SMOOTH",
"338 293 OFFCURVE",
"328 40 OFFCURVE",
"164 40 CURVE SMOOTH",
"157 40 OFFCURVE",
"149 70 OFFCURVE",
"149 106 CURVE SMOOTH",
"149 205 OFFCURVE",
"179 322 OFFCURVE",
"252 322 CURVE SMOOTH",
"270 322 OFFCURVE",
"318 298 OFFCURVE",
"339 282 CURVE"
);
},
{
closed = 1;
nodes = (
"476 558 LINE",
"483 572 LINE",
"456 596 LINE",
"215 485 LINE",
"208 471 LINE",
"239 448 LINE"
);
}
);
};
layerId = "D9712079-C16A-42CB-8BA4-BD9ECFFACF10";
paths = (
{
closed = 1;
nodes = (
"361 -9 OFFCURVE",
"430 212 OFFCURVE",
"430 395 CURVE SMOOTH",
"430 532 OFFCURVE",
"362 611 OFFCURVE",
"218 611 CURVE",
"227 560 LINE",
"312 560 OFFCURVE",
"338 507 OFFCURVE",
"338 415 CURVE SMOOTH",
"338 293 OFFCURVE",
"328 40 OFFCURVE",
"164 40 CURVE SMOOTH",
"155 40 OFFCURVE",
"149 60 OFFCURVE",
"149 108 CURVE SMOOTH",
"149 192 OFFCURVE",
"175 322 OFFCURVE",
"252 322 CURVE SMOOTH",
"270 322 OFFCURVE",
"318 298 OFFCURVE",
"339 282 CURVE",
"345 329 LINE",
"319 347 OFFCURVE",
"262 380 OFFCURVE",
"253 380 CURVE SMOOTH",
"137 380 OFFCURVE",
"65 282 OFFCURVE",
"65 153 CURVE SMOOTH",
"65 132 OFFCURVE",
"67 111 OFFCURVE",
"71 89 CURVE",
"84 58 OFFCURVE",
"157 -9 OFFCURVE",
"179 -9 CURVE SMOOTH"
);
},
{
closed = 1;
nodes = (
"476 558 LINE",
"483 572 LINE",
"456 596 LINE",
"215 485 LINE",
"208 471 LINE",
"239 448 LINE"
);
}
);
width = 434;
},
{
background = {
paths = (
{
closed = 1;
nodes = (
"333 317 LINE",
"301 338 OFFCURVE",
"243 359 OFFCURVE",
"232 359 CURVE SMOOTH",
"124 359 OFFCURVE",
"60 269 OFFCURVE",
"60 147 CURVE SMOOTH",
"60 115 OFFCURVE",
"64 82 OFFCURVE",
"73 54 CURVE",
"90 20 OFFCURVE",
"122 -9 OFFCURVE",
"136 -9 CURVE SMOOTH",
"290 -9 OFFCURVE",
"357 230 OFFCURVE",
"357 398 CURVE SMOOTH",
"357 532 OFFCURVE",
"312 606 OFFCURVE",
"180 597 CURVE",
"184 580 LINE",
"305 582 OFFCURVE",
"330 507 OFFCURVE",
"330 399 CURVE SMOOTH",
"330 301 OFFCURVE",
"292 13 OFFCURVE",
"145 13 CURVE SMOOTH",
"118 13 OFFCURVE",
"86 44 OFFCURVE",
"86 125 CURVE SMOOTH",
"86 230 OFFCURVE",
"123 335 OFFCURVE",
"223 335 CURVE SMOOTH",
"241 335 OFFCURVE",
"303 313 OFFCURVE",
"328 300 CURVE"
);
},
{
closed = 1;
nodes = (
"435 555 LINE",
"440 562 LINE",
"431 575 LINE",
"193 465 LINE",
"188 457 LINE",
"201 447 LINE"
);
}
);
};
layerId = "16B79A64-180D-495F-8650-CA27198DF3EF";
paths = (
{
closed = 1;
nodes = (
"290 -9 OFFCURVE",
"357 230 OFFCURVE",
"357 398 CURVE SMOOTH",
"357 532 OFFCURVE",
"312 606 OFFCURVE",
"180 597 CURVE",
"184 578 LINE",
"305 580 OFFCURVE",
"330 507 OFFCURVE",
"330 399 CURVE SMOOTH",
"330 301 OFFCURVE",
"290 15 OFFCURVE",
"145 15 CURVE SMOOTH",
"120 15 OFFCURVE",
"86 48 OFFCURVE",
"86 125 CURVE SMOOTH",
"86 230 OFFCURVE",
"123 335 OFFCURVE",
"223 335 CURVE SMOOTH",
"241 335 OFFCURVE",
"303 313 OFFCURVE",
"328 300 CURVE",
"333 317 LINE",
"301 338 OFFCURVE",
"243 359 OFFCURVE",
"232 359 CURVE SMOOTH",
"124 359 OFFCURVE",
"60 269 OFFCURVE",
"60 147 CURVE SMOOTH",
"60 115 OFFCURVE",
"64 82 OFFCURVE",
"73 54 CURVE",
"88 16 OFFCURVE",
"122 -9 OFFCURVE",
"136 -9 CURVE SMOOTH"
);
},
{
closed = 1;
nodes = (
"435 555 LINE",
"440 562 LINE",
"431 575 LINE",
"193 466 LINE",
"188 458 LINE",
"201 447 LINE"
);
}
);
width = 350;
},
{
background = {
paths = (
{
closed = 1;
nodes = (
"408 341 LINE",
"382 359 OFFCURVE",
"277 392 OFFCURVE",
"268 392 CURVE SMOOTH",
"130 392 OFFCURVE",
"42 236 OFFCURVE",
"88 93 CURVE",
"104 64 OFFCURVE",
"240 -9 OFFCURVE",
"260 -9 CURVE SMOOTH",
"414 -9 OFFCURVE",
"544 129 OFFCURVE",
"544 371 CURVE SMOOTH",
"544 536 OFFCURVE",
"451 657 OFFCURVE",
"236 634 CURVE",
"250 560 LINE",
"334 558 OFFCURVE",
"367 505 OFFCURVE",
"367 415 CURVE SMOOTH",
"367 236 OFFCURVE",
"347 65 OFFCURVE",
"275 65 CURVE SMOOTH",
"246 65 OFFCURVE",
"227 302 OFFCURVE",
"315 302 CURVE SMOOTH",
"333 302 OFFCURVE",
"381 278 OFFCURVE",
"402 262 CURVE"
);
},
{
closed = 1;
nodes = (
"573 554 LINE",
"574 582 LINE",
"538 615 LINE",
"264 481 LINE",
"264 452 LINE",
"303 421 LINE"
);
}
);
};
layerId = "E259E77F-022A-45EF-A0F1-1168268390B3";
paths = (
{
closed = 1;
nodes = (
"414 -9 OFFCURVE",
"544 129 OFFCURVE",
"544 371 CURVE SMOOTH",
"544 557 OFFCURVE",
"429 655 OFFCURVE",
"236 634 CURVE",
"250 560 LINE",
"334 558 OFFCURVE",
"367 505 OFFCURVE",
"367 415 CURVE SMOOTH",
"367 236 OFFCURVE",
"349 72 OFFCURVE",
"277 72 CURVE SMOOTH",
"263 72 OFFCURVE",
"251 120 OFFCURVE",
"251 173 CURVE SMOOTH",
"251 235 OFFCURVE",
"267 302 OFFCURVE",
"315 302 CURVE SMOOTH",
"333 302 OFFCURVE",
"381 278 OFFCURVE",
"402 262 CURVE",
"408 341 LINE",
"382 359 OFFCURVE",
"277 392 OFFCURVE",
"268 392 CURVE SMOOTH",
"155 392 OFFCURVE",
"76 288 OFFCURVE",
"76 171 CURVE SMOOTH",
"76 145 OFFCURVE",
"80 119 OFFCURVE",
"88 93 CURVE",
"104 64 OFFCURVE",
"240 -9 OFFCURVE",
"260 -9 CURVE SMOOTH"
);
},
{
closed = 1;
nodes = (
"573 554 LINE",
"574 582 LINE",
"538 615 LINE",
"264 481 LINE",
"264 452 LINE",
"303 421 LINE"
);
}
);
width = 551;
}
);
unicode = 00F0;
},
{
glyphname = dcroat;
lastChange = "2018-02-12 15:37:00 +0000";
layers = (
{
components = (
{
name = d;
}
);
layerId = "D9712079-C16A-42CB-8BA4-BD9ECFFACF10";
paths = (
{
closed = 1;
nodes = (
"498 491 LINE",
"508 540 LINE",
"252 540 LINE",
"243 491 LINE"
);
}
);
width = 433;
},
{
components = (
{
name = d;
}
);
layerId = "16B79A64-180D-495F-8650-CA27198DF3EF";
paths = (
{
closed = 1;
nodes = (
"474 510 LINE",
"478 530 LINE",
"281 530 LINE",
"277 510 LINE"
);
}
);
width = 405;
},
{
components = (
{
name = d;
}
);
layerId = "E259E77F-022A-45EF-A0F1-1168268390B3";
paths = (
{
closed = 1;
nodes = (
"556 494 LINE",
"565 544 LINE",
"223 544 LINE",
"214 494 LINE"
);
}
);
width = 484;
}
);
leftKerningGroup = o;
rightKerningGroup = d;
unicode = 0111;
},
{
glyphname = e;
lastChange = "2018-02-12 15:37:00 +0000";
layers = (
{
anchors = (
{
name = bottom;
position = "{207, 0}";
},
{
name = ogonek;
position = "{335, 32}";
},
{
name = top;
position = "{272, 448}";
}
);
background = {
paths = (
{
closed = 1;
nodes = (
"212 -9 OFFCURVE",
"315 30 OFFCURVE",
"357 54 CURVE",
"345 94 LINE",
"309 82 OFFCURVE",
"252 64 OFFCURVE",
"230 64 CURVE SMOOTH",
"178 64 OFFCURVE",
"163 103 OFFCURVE",
"163 170 CURVE SMOOTH",
"163 265 OFFCURVE",
"207 372 OFFCURVE",
"241 406 CURVE",
"246 407 OFFCURVE",
"255 408 OFFCURVE",
"262 408 CURVE SMOOTH",
"288 408 OFFCURVE",
"306 398 OFFCURVE",
"306 365 CURVE SMOOTH",
"306 296 OFFCURVE",
"210 241 OFFCURVE",
"152 237 CURVE",
"152 199 LINE",
"245 205 OFFCURVE",
"398 264 OFFCURVE",
"398 367 CURVE SMOOTH",
"398 435 OFFCURVE",
"348 457 OFFCURVE",
"283 457 CURVE SMOOTH",
"261 457 OFFCURVE",
"143 386 OFFCURVE",
"119 358 CURVE",
"97 312 OFFCURVE",
"69 217 OFFCURVE",
"69 141 CURVE SMOOTH",
"69 60 OFFCURVE",
"113 -9 OFFCURVE",
"190 -9 CURVE SMOOTH"
);
}
);
};
layerId = "D9712079-C16A-42CB-8BA4-BD9ECFFACF10";
paths = (
{
closed = 1;
nodes = (
"212 -9 OFFCURVE",
"315 30 OFFCURVE",
"357 54 CURVE",
"345 94 LINE",
"309 82 OFFCURVE",
"252 64 OFFCURVE",
"230 64 CURVE SMOOTH",
"176 64 OFFCURVE",
"163 103 OFFCURVE",
"163 172 CURVE SMOOTH",
"163 283 OFFCURVE",
"208 389 OFFCURVE",
"239 399 CURVE SMOOTH",
"245 401 OFFCURVE",
"255 402 OFFCURVE",
"262 402 CURVE SMOOTH",
"286 402 OFFCURVE",
"306 392 OFFCURVE",
"306 361 CURVE SMOOTH",
"306 296 OFFCURVE",
"210 241 OFFCURVE",
"152 237 CURVE",
"152 199 LINE",
"245 205 OFFCURVE",
"398 264 OFFCURVE",
"398 367 CURVE SMOOTH",
"398 435 OFFCURVE",
"348 457 OFFCURVE",
"283 457 CURVE SMOOTH",
"261 457 OFFCURVE",
"143 386 OFFCURVE",
"119 358 CURVE",
"94 315 OFFCURVE",
"69 225 OFFCURVE",
"69 141 CURVE SMOOTH",
"69 60 OFFCURVE",
"113 -9 OFFCURVE",
"190 -9 CURVE SMOOTH"
);
}
);
width = 364;
},
{
anchors = (
{
name = bottom;
position = "{210, 0}";
},
{
name = ogonek;
position = "{301, 22}";
},
{
name = top;
position = "{276, 440}";
}
);
background = {
paths = (
{
closed = 1;
nodes = (
"231 -9 OFFCURVE",
"287 10 OFFCURVE",
"315 25 CURVE",
"311 40 LINE",
"287 32 OFFCURVE",
"248 17 OFFCURVE",
"221 17 CURVE SMOOTH",
"151 17 OFFCURVE",
"112 60 OFFCURVE",
"112 148 CURVE SMOOTH",
"112 336 OFFCURVE",
"197 389 OFFCURVE",
"230 408 CURVE SMOOTH",
"248 419 OFFCURVE",
"264 424 OFFCURVE",
"282 424 CURVE SMOOTH",
"321 424 OFFCURVE",
"339 407 OFFCURVE",
"339 374 CURVE SMOOTH",
"339 304 OFFCURVE",
"255 218 OFFCURVE",
"109 216 CURVE",
"107 197 LINE",
"257 200 OFFCURVE",
"368 284 OFFCURVE",
"368 378 CURVE SMOOTH",
"368 436 OFFCURVE",
"321 449 OFFCURVE",
"271 449 CURVE SMOOTH",
"247 449 OFFCURVE",
"183 408 OFFCURVE",
"145 367 CURVE",
"109 319 OFFCURVE",
"82 238 OFFCURVE",
"82 142 CURVE SMOOTH",
"82 48 OFFCURVE",
"126 -9 OFFCURVE",
"223 -9 CURVE SMOOTH"
);
}
);
};
layerId = "16B79A64-180D-495F-8650-CA27198DF3EF";
paths = (
{
closed = 1;
nodes = (
"231 -9 OFFCURVE",
"287 10 OFFCURVE",
"315 25 CURVE",
"311 40 LINE",
"287 32 OFFCURVE",
"248 17 OFFCURVE",
"221 17 CURVE SMOOTH",
"151 17 OFFCURVE",
"112 60 OFFCURVE",
"112 148 CURVE SMOOTH",
"112 336 OFFCURVE",
"197 387 OFFCURVE",
"230 407 CURVE SMOOTH",
"248 418 OFFCURVE",
"264 424 OFFCURVE",
"282 424 CURVE SMOOTH",
"321 424 OFFCURVE",
"339 407 OFFCURVE",
"339 374 CURVE SMOOTH",
"339 304 OFFCURVE",
"255 218 OFFCURVE",
"109 216 CURVE",
"107 197 LINE",
"257 200 OFFCURVE",
"368 284 OFFCURVE",
"368 378 CURVE SMOOTH",
"368 436 OFFCURVE",
"321 449 OFFCURVE",
"271 449 CURVE SMOOTH",
"247 449 OFFCURVE",
"183 409 OFFCURVE",
"145 367 CURVE",
"109 319 OFFCURVE",
"82 238 OFFCURVE",
"82 142 CURVE SMOOTH",
"82 48 OFFCURVE",
"126 -9 OFFCURVE",
"223 -9 CURVE SMOOTH"
);
}
);
width = 333;
},
{
anchors = (
{
name = bottom;
position = "{229, 0}";
},
{
name = ogonek;
position = "{369, 32}";
},
{
name = top;
position = "{299, 462}";
}
);
background = {
paths = (
{
closed = 1;
nodes = (
"242 -9 OFFCURVE",
"347 23 OFFCURVE",
"409 47 CURVE",
"392 121 LINE",
"334 104 OFFCURVE",
"295 91 OFFCURVE",
"265 91 CURVE SMOOTH",
"227 91 OFFCURVE",
"212 110 OFFCURVE",
"212 168 CURVE SMOOTH",
"212 266 OFFCURVE",
"240 374 OFFCURVE",
"265 394 CURVE",
"268 395 OFFCURVE",
"274 396 OFFCURVE",
"278 396 CURVE SMOOTH",
"301 396 OFFCURVE",
"307 376 OFFCURVE",
"307 355 CURVE SMOOTH",
"307 288 OFFCURVE",
"262 251 OFFCURVE",
"204 247 CURVE",
"204 191 LINE",
"337 191 OFFCURVE",
"465 260 OFFCURVE",
"465 381 CURVE SMOOTH",
"465 456 OFFCURVE",
"393 477 OFFCURVE",
"321 477 CURVE SMOOTH",
"290 477 OFFCURVE",
"141 414 OFFCURVE",
"93 380 CURVE",
"67 334 OFFCURVE",
"34 216 OFFCURVE",
"34 146 CURVE SMOOTH",
"34 40 OFFCURVE",
"108 -9 OFFCURVE",
"220 -9 CURVE SMOOTH"
);
}
);
};
layerId = "E259E77F-022A-45EF-A0F1-1168268390B3";
paths = (
{
closed = 1;
nodes = (
"242 -9 OFFCURVE",
"347 23 OFFCURVE",
"409 47 CURVE",
"392 121 LINE",
"334 104 OFFCURVE",
"295 91 OFFCURVE",
"265 91 CURVE SMOOTH",
"227 91 OFFCURVE",
"212 110 OFFCURVE",
"212 168 CURVE SMOOTH",
"212 266 OFFCURVE",
"235 381 OFFCURVE",
"265 394 CURVE SMOOTH",
"268 395 OFFCURVE",
"274 396 OFFCURVE",
"278 396 CURVE SMOOTH",
"301 396 OFFCURVE",
"307 376 OFFCURVE",
"307 355 CURVE SMOOTH",
"307 288 OFFCURVE",
"262 251 OFFCURVE",
"204 247 CURVE",
"204 191 LINE",
"337 191 OFFCURVE",
"465 260 OFFCURVE",
"465 381 CURVE SMOOTH",
"465 456 OFFCURVE",
"393 477 OFFCURVE",
"321 477 CURVE SMOOTH",
"290 477 OFFCURVE",
"141 414 OFFCURVE",
"93 380 CURVE",
"67 334 OFFCURVE",
"34 216 OFFCURVE",
"34 146 CURVE SMOOTH",
"34 40 OFFCURVE",
"108 -9 OFFCURVE",
"220 -9 CURVE SMOOTH"
);
}
);
width = 426;
}
);
leftKerningGroup = o;
rightKerningGroup = e;
unicode = 0065;
},
{
glyphname = schwa;
lastChange = "2018-02-12 15:37:00 +0000";
layers = (
{
layerId = "D9712079-C16A-42CB-8BA4-BD9ECFFACF10";
paths = (
{
closed = 1;
nodes = (
"237 457 OFFCURVE",
"134 418 OFFCURVE",
"92 394 CURVE",
"104 354 LINE",
"140 366 OFFCURVE",
"197 384 OFFCURVE",
"219 384 CURVE SMOOTH",
"273 384 OFFCURVE",
"286 345 OFFCURVE",
"286 276 CURVE SMOOTH",
"286 165 OFFCURVE",
"240 56 OFFCURVE",
"210 44 CURVE SMOOTH",
"204 42 OFFCURVE",
"194 41 OFFCURVE",
"187 41 CURVE SMOOTH",
"161 41 OFFCURVE",
"143 50 OFFCURVE",
"143 83 CURVE SMOOTH",
"143 152 OFFCURVE",
"239 207 OFFCURVE",
"297 211 CURVE",
"297 249 LINE",
"204 243 OFFCURVE",
"51 184 OFFCURVE",
"51 81 CURVE SMOOTH",
"51 13 OFFCURVE",
"101 -9 OFFCURVE",
"166 -9 CURVE SMOOTH",
"188 -9 OFFCURVE",
"306 62 OFFCURVE",
"330 90 CURVE",
"355 133 OFFCURVE",
"380 223 OFFCURVE",
"380 307 CURVE SMOOTH",
"380 388 OFFCURVE",
"336 457 OFFCURVE",
"259 457 CURVE SMOOTH"
);
}
);
width = 364;
},
{
layerId = "16B79A64-180D-495F-8650-CA27198DF3EF";
paths = (
{
closed = 1;
nodes = (
"190 449 OFFCURVE",
"134 430 OFFCURVE",
"106 415 CURVE",
"110 400 LINE",
"134 408 OFFCURVE",
"173 423 OFFCURVE",
"200 423 CURVE SMOOTH",
"270 423 OFFCURVE",
"309 380 OFFCURVE",
"309 292 CURVE SMOOTH",
"309 104 OFFCURVE",
"224 51 OFFCURVE",
"191 32 CURVE SMOOTH",
"173 21 OFFCURVE",
"157 16 OFFCURVE",
"139 16 CURVE SMOOTH",
"100 16 OFFCURVE",
"82 33 OFFCURVE",
"82 66 CURVE SMOOTH",
"82 136 OFFCURVE",
"166 222 OFFCURVE",
"312 224 CURVE",
"314 243 LINE",
"164 240 OFFCURVE",
"53 156 OFFCURVE",
"53 62 CURVE SMOOTH",
"53 4 OFFCURVE",
"100 -9 OFFCURVE",
"150 -9 CURVE SMOOTH",
"174 -9 OFFCURVE",
"238 32 OFFCURVE",
"276 73 CURVE",
"312 121 OFFCURVE",
"339 202 OFFCURVE",
"339 298 CURVE SMOOTH",
"339 392 OFFCURVE",
"295 449 OFFCURVE",
"198 449 CURVE SMOOTH"
);
}
);
width = 333;
},
{
layerId = "E259E77F-022A-45EF-A0F1-1168268390B3";
paths = (
{
closed = 1;
nodes = (
"241 477 OFFCURVE",
"136 445 OFFCURVE",
"74 421 CURVE",
"91 347 LINE",
"149 364 OFFCURVE",
"188 377 OFFCURVE",
"218 377 CURVE SMOOTH",
"256 377 OFFCURVE",
"271 358 OFFCURVE",
"271 300 CURVE SMOOTH",
"271 202 OFFCURVE",
"248 87 OFFCURVE",
"218 74 CURVE SMOOTH",
"215 73 OFFCURVE",
"209 72 OFFCURVE",
"205 72 CURVE SMOOTH",
"182 72 OFFCURVE",
"176 92 OFFCURVE",
"176 113 CURVE SMOOTH",
"176 180 OFFCURVE",
"221 217 OFFCURVE",
"279 221 CURVE",
"279 277 LINE",
"146 277 OFFCURVE",
"18 208 OFFCURVE",
"18 87 CURVE SMOOTH",
"18 12 OFFCURVE",
"90 -9 OFFCURVE",
"162 -9 CURVE SMOOTH",
"193 -9 OFFCURVE",
"342 54 OFFCURVE",
"390 88 CURVE",
"416 134 OFFCURVE",
"449 252 OFFCURVE",
"449 322 CURVE SMOOTH",
"449 428 OFFCURVE",
"375 477 OFFCURVE",
"263 477 CURVE SMOOTH"
);
}
);
width = 430;
}
);
unicode = 0259;
},
{
glyphname = f;
lastChange = "2018-02-12 15:37:00 +0000";
layers = (
{
anchors = (
{
name = top;
position = "{265, 640}";
}
);
layerId = "D9712079-C16A-42CB-8BA4-BD9ECFFACF10";
paths = (
{
closed = 1;
nodes = (
"110 -9 OFFCURVE",
"208 7 OFFCURVE",
"208 7 CURVE",
"214 48 LINE",
"168 63 LINE",
"247 526 LINE SMOOTH",
"252 554 OFFCURVE",
"266 582 OFFCURVE",
"275 582 CURVE SMOOTH",
"290 582 OFFCURVE",
"351 566 OFFCURVE",
"371 560 CURVE",
"377 570 OFFCURVE",
"398 606 OFFCURVE",
"399 610 CURVE SMOOTH",
"400 617 OFFCURVE",
"390 634 OFFCURVE",
"382 640 CURVE",
"357 643 OFFCURVE",
"308 646 OFFCURVE",
"299 646 CURVE SMOOTH",
"269 646 OFFCURVE",
"160 532 OFFCURVE",
"153 491 CURVE SMOOTH",
"74 24 LINE",
"72 17 OFFCURVE",
"95 -9 OFFCURVE",
"101 -9 CURVE SMOOTH"
);
},
{
closed = 1;
nodes = (
"326 448 LINE",
"148 453 LINE",
"99 434 LINE",
"93 395 LINE",
"316 394 LINE"
);
}
);
width = 255;
},
{
anchors = (
{
name = top;
position = "{247, 611}";
}
);
layerId = "16B79A64-180D-495F-8650-CA27198DF3EF";
paths = (
{
closed = 1;
nodes = (
"110 -9 OFFCURVE",
"138 -4 OFFCURVE",
"171 3 CURVE",
"173 18 LINE",
"118 22 LINE",
"208 547 LINE SMOOTH",
"213 574 OFFCURVE",
"250 610 OFFCURVE",
"255 610 CURVE SMOOTH",
"270 610 OFFCURVE",
"336 599 OFFCURVE",
"356 593 CURVE",
"361 599 OFFCURVE",
"367 609 OFFCURVE",
"367 612 CURVE SMOOTH",
"367 615 OFFCURVE",
"361 623 OFFCURVE",
"358 625 CURVE",
"335 631 OFFCURVE",
"271 637 OFFCURVE",
"262 637 CURVE SMOOTH",
"240 637 OFFCURVE",
"183 570 OFFCURVE",
"178 542 CURVE SMOOTH",
"88 8 LINE",
"87 5 OFFCURVE",
"101 -9 OFFCURVE",
"105 -9 CURVE SMOOTH"
);
},
{
closed = 1;
nodes = (
"305 440 LINE",
"161 443 LINE",
"107 438 LINE",
"104 420 LINE",
"301 419 LINE"
);
}
);
width = 230;
},
{
anchors = (
{
name = top;
position = "{293, 640}";
}
);
layerId = "E259E77F-022A-45EF-A0F1-1168268390B3";
paths = (
{
closed = 1;
nodes = (
"94 -9 OFFCURVE",
"274 7 OFFCURVE",
"274 7 CURVE",
"287 80 LINE",
"226 95 LINE",
"301 520 LINE SMOOTH",
"306 548 OFFCURVE",
"311 569 OFFCURVE",
"326 569 CURVE SMOOTH",
"335 569 OFFCURVE",
"398 536 OFFCURVE",
"430 520 CURVE",
"447 544 OFFCURVE",
"476 590 OFFCURVE",
"476 604 CURVE SMOOTH",
"476 611 OFFCURVE",
"456 651 OFFCURVE",
"450 659 CURVE",
"425 662 OFFCURVE",
"328 665 OFFCURVE",
"319 665 CURVE SMOOTH",
"276 665 OFFCURVE",
"139 548 OFFCURVE",
"132 507 CURVE SMOOTH",
"50 40 LINE SMOOTH",
"48 26 OFFCURVE",
"76 -9 OFFCURVE",
"85 -9 CURVE SMOOTH"
);
},
{
closed = 1;
nodes = (
"397 462 LINE",
"126 467 LINE",
"56 448 LINE",
"44 376 LINE",
"381 375 LINE"
);
}
);
width = 328;
}
);
leftKerningGroup = f;
rightKerningGroup = f;
unicode = 0066;
},
{
glyphname = g;
lastChange = "2018-02-12 15:37:00 +0000";
layers = (
{
anchors = (
{
name = top;
position = "{288, 448}";
}
);
background = {
paths = (
{
closed = 1;
nodes = (
"239 -181 OFFCURVE",
"354 -72 OFFCURVE",
"363 -21 CURVE SMOOTH",
"444 435 LINE",
"358 435 LINE",
"297 87 OFFCURVE",
"292 59 OFFCURVE",
"279 -6 CURVE SMOOTH",
"264 -77 OFFCURVE",
"248 -132 OFFCURVE",
"240 -132 CURVE SMOOTH",
"215 -132 OFFCURVE",
"135 -92 OFFCURVE",
"114 -80 CURVE",
"115 -72 LINE",
"156 -27 OFFCURVE",
"242 71 OFFCURVE",
"301 146 CURVE",
"318 146 LINE",
"334 238 LINE",
"178 69 LINE",
"34 -55 LINE",
"23 -124 LINE",
"69 -141 OFFCURVE",
"181 -181 OFFCURVE",
"209 -181 CURVE SMOOTH"
);
},
{
closed = 1;
nodes = (
"220 102 LINE",
"203 98 OFFCURVE",
"168 106 OFFCURVE",
"168 179 CURVE SMOOTH",
"168 284 OFFCURVE",
"216 382 OFFCURVE",
"241 406 CURVE",
"258 408 OFFCURVE",
"317 395 OFFCURVE",
"361 375 CURVE",
"444 435 LINE",
"410 442 OFFCURVE",
"300 457 OFFCURVE",
"283 457 CURVE SMOOTH",
"261 457 OFFCURVE",
"143 386 OFFCURVE",
"119 358 CURVE",
"92 305 OFFCURVE",
"78 221 OFFCURVE",
"78 173 CURVE SMOOTH",
"78 95 OFFCURVE",
"118 53 OFFCURVE",
"166 47 CURVE"
);
}
);
};
layerId = "D9712079-C16A-42CB-8BA4-BD9ECFFACF10";
paths = (
{
closed = 1;
nodes = (
"239 -181 OFFCURVE",
"354 -72 OFFCURVE",
"363 -21 CURVE SMOOTH",
"444 435 LINE",
"358 435 LINE",
"297 87 OFFCURVE",
"292 59 OFFCURVE",
"279 -6 CURVE SMOOTH",
"264 -77 OFFCURVE",
"248 -132 OFFCURVE",
"240 -132 CURVE SMOOTH",
"215 -132 OFFCURVE",
"135 -92 OFFCURVE",
"114 -80 CURVE",
"115 -72 LINE",
"156 -27 OFFCURVE",
"242 71 OFFCURVE",
"301 146 CURVE",
"318 146 LINE",
"334 238 LINE",
"178 69 LINE",
"34 -55 LINE",
"23 -124 LINE",
"69 -141 OFFCURVE",
"181 -181 OFFCURVE",
"209 -181 CURVE SMOOTH"
);
},
{
closed = 1;
nodes = (
"220 102 LINE",
"203 98 OFFCURVE",
"168 106 OFFCURVE",
"168 179 CURVE SMOOTH",
"168 284 OFFCURVE",
"207 386 OFFCURVE",
"241 398 CURVE SMOOTH",
"258 404 OFFCURVE",
"317 395 OFFCURVE",
"361 375 CURVE",
"444 435 LINE",
"410 442 OFFCURVE",
"300 457 OFFCURVE",
"283 457 CURVE SMOOTH",
"261 457 OFFCURVE",
"143 386 OFFCURVE",
"119 358 CURVE",
"90 308 OFFCURVE",
"78 225 OFFCURVE",
"78 173 CURVE SMOOTH",
"78 95 OFFCURVE",
"118 53 OFFCURVE",
"166 47 CURVE"
);
}
);
width = 427;
},
{
anchors = (
{
name = top;
position = "{280, 440}";
}
);
background = {
paths = (
{
closed = 1;
nodes = (
"271 -175 OFFCURVE",
"322 -96 OFFCURVE",
"331 -45 CURVE SMOOTH",
"413 428 LINE",
"383 414 LINE",
"323 66 OFFCURVE",
"315 33 OFFCURVE",
"303 -32 CURVE SMOOTH",
"290 -103 OFFCURVE",
"259 -150 OFFCURVE",
"251 -150 CURVE SMOOTH",
"226 -150 OFFCURVE",
"90 -92 OFFCURVE",
"68 -78 CURVE",
"69 -68 LINE",
"117 -18 OFFCURVE",
"278 154 OFFCURVE",
"348 238 CURVE",
"358 238 LINE",
"365 279 LINE",
"169 67 LINE",
"46 -55 LINE",
"39 -92 LINE",
"85 -117 OFFCURVE",
"219 -175 OFFCURVE",
"241 -175 CURVE SMOOTH"
);
},
{
closed = 1;
nodes = (
"189 69 LINE",
"137 72 OFFCURVE",
"121 111 OFFCURVE",
"121 180 CURVE SMOOTH",
"121 256 OFFCURVE",
"153 366 OFFCURVE",
"242 411 CURVE SMOOTH",
"279 430 OFFCURVE",
"315 426 OFFCURVE",
"386 405 CURVE",
"413 428 LINE",
"379 435 OFFCURVE",
"306 449 OFFCURVE",
"280 449 CURVE SMOOTH",
"256 449 OFFCURVE",
"191 408 OFFCURVE",
"153 367 CURVE",
"117 319 OFFCURVE",
"90 240 OFFCURVE",
"90 173 CURVE SMOOTH",
"90 108 OFFCURVE",
"114 53 OFFCURVE",
"171 48 CURVE"
);
}
);
};
layerId = "16B79A64-180D-495F-8650-CA27198DF3EF";
paths = (
{
closed = 1;
nodes = (
"271 -175 OFFCURVE",
"322 -96 OFFCURVE",
"331 -45 CURVE SMOOTH",
"413 428 LINE",
"383 414 LINE",
"323 66 OFFCURVE",
"315 33 OFFCURVE",
"303 -32 CURVE SMOOTH",
"290 -103 OFFCURVE",
"259 -150 OFFCURVE",
"251 -150 CURVE SMOOTH",
"226 -150 OFFCURVE",
"90 -92 OFFCURVE",
"68 -78 CURVE",
"69 -68 LINE",
"117 -18 OFFCURVE",
"278 154 OFFCURVE",
"348 238 CURVE",
"358 238 LINE",
"365 279 LINE",
"169 67 LINE",
"46 -55 LINE",
"39 -92 LINE",
"85 -117 OFFCURVE",
"219 -175 OFFCURVE",
"241 -175 CURVE SMOOTH"
);
},
{
closed = 1;
nodes = (
"189 69 LINE",
"137 72 OFFCURVE",
"121 111 OFFCURVE",
"121 180 CURVE SMOOTH",
"121 256 OFFCURVE",
"153 365 OFFCURVE",
"242 410 CURVE SMOOTH",
"279 429 OFFCURVE",
"315 426 OFFCURVE",
"386 405 CURVE",
"413 428 LINE",
"379 435 OFFCURVE",
"306 449 OFFCURVE",
"280 449 CURVE SMOOTH",
"254 449 OFFCURVE",
"190 409 OFFCURVE",
"153 367 CURVE",
"117 319 OFFCURVE",
"90 240 OFFCURVE",
"90 173 CURVE SMOOTH",
"90 108 OFFCURVE",
"114 53 OFFCURVE",
"171 48 CURVE"
);
}
);
width = 401;
},
{
anchors = (
{
name = top;
position = "{309, 462}";
}
);
background = {
paths = (
{
closed = 1;
nodes = (
"262 -186 OFFCURVE",
"419 -76 OFFCURVE",
"429 -16 CURVE SMOOTH",
"510 448 LINE",
"350 448 LINE",
"325 299 OFFCURVE",
"301 149 OFFCURVE",
"276 0 CURVE SMOOTH",
"266 -70 OFFCURVE",
"259 -103 OFFCURVE",
"247 -103 CURVE SMOOTH",
"240 -103 OFFCURVE",
"192 -82 OFFCURVE",
"165 -64 CURVE",
"167 -46 LINE",
"198 -2 OFFCURVE",
"241 57 OFFCURVE",
"280 110 CURVE",
"301 110 LINE",
"339 233 LINE",
"158 39 LINE",
"23 -36 LINE",
"3 -149 LINE",
"58 -160 OFFCURVE",
"204 -186 OFFCURVE",
"228 -186 CURVE SMOOTH"
);
},
{
closed = 1;
nodes = (
"273 139 LINE",
"227 139 OFFCURVE",
"218 177 OFFCURVE",
"218 230 CURVE SMOOTH",
"218 310 OFFCURVE",
"251 384 OFFCURVE",
"268 396 CURVE SMOOTH",
"280 398 OFFCURVE",
"376 374 OFFCURVE",
"423 352 CURVE",
"510 448 LINE",
"478 455 OFFCURVE",
"335 477 OFFCURVE",
"318 477 CURVE SMOOTH",
"288 477 OFFCURVE",
"142 414 OFFCURVE",
"96 380 CURVE",
"64 306 OFFCURVE",
"44 232 OFFCURVE",
"44 170 CURVE SMOOTH",
"44 89 OFFCURVE",
"77 29 OFFCURVE",
"162 17 CURVE"
);
}
);
};
layerId = "E259E77F-022A-45EF-A0F1-1168268390B3";
paths = (
{
closed = 1;
nodes = (
"262 -186 OFFCURVE",
"419 -76 OFFCURVE",
"429 -16 CURVE SMOOTH",
"510 448 LINE",
"350 448 LINE",
"325 299 OFFCURVE",
"301 149 OFFCURVE",
"276 0 CURVE SMOOTH",
"266 -70 OFFCURVE",
"259 -103 OFFCURVE",
"247 -103 CURVE SMOOTH",
"240 -103 OFFCURVE",
"192 -82 OFFCURVE",
"165 -64 CURVE",
"167 -46 LINE",
"198 -2 OFFCURVE",
"241 57 OFFCURVE",
"280 110 CURVE",
"301 110 LINE",
"339 233 LINE",
"158 39 LINE",
"23 -36 LINE",
"3 -149 LINE",
"58 -160 OFFCURVE",
"204 -186 OFFCURVE",
"228 -186 CURVE SMOOTH"
);
},
{
closed = 1;
nodes = (
"273 139 LINE",
"227 139 OFFCURVE",
"218 177 OFFCURVE",
"218 230 CURVE SMOOTH",
"218 310 OFFCURVE",
"246 389 OFFCURVE",
"268 396 CURVE SMOOTH",
"278 399 OFFCURVE",
"376 374 OFFCURVE",
"423 352 CURVE",
"510 448 LINE",
"478 455 OFFCURVE",
"335 477 OFFCURVE",
"318 477 CURVE SMOOTH",
"288 477 OFFCURVE",
"142 414 OFFCURVE",
"96 380 CURVE",
"62 308 OFFCURVE",
"44 232 OFFCURVE",
"44 170 CURVE SMOOTH",
"44 89 OFFCURVE",
"77 29 OFFCURVE",
"162 17 CURVE"
);
}
);
width = 476;
}
);
leftKerningGroup = g;
rightKerningGroup = g;
unicode = 0067;
},
{
glyphname = h;
lastChange = "2018-02-12 15:37:00 +0000";
layers = (
{
anchors = (
{
name = bottom;
position = "{233, 0}";
},
{
name = center;
position = "{249, 523}";
},
{
name = top;
position = "{206, 603}";
}
);
background = {
paths = (
{
closed = 1;
nodes = (
"299 22 LINE",
"299 15 OFFCURVE",
"320 -9 OFFCURVE",
"326 -9 CURVE SMOOTH",
"333 -9 OFFCURVE",
"433 22 OFFCURVE",
"433 22 CURVE",
"438 52 LINE",
"393 63 LINE",
"435 288 LINE",
"439 312 OFFCURVE",
"441 333 OFFCURVE",
"441 351 CURVE SMOOTH",
"441 424 OFFCURVE",
"406 456 OFFCURVE",
"320 456 CURVE SMOOTH",
"306 456 OFFCURVE",
"221 306 OFFCURVE",
"192 253 CURVE",
"179 184 LINE",
"218 242 OFFCURVE",
"317 382 OFFCURVE",
"331 382 CURVE SMOOTH",
"351 382 OFFCURVE",
"357 367 OFFCURVE",
"357 346 CURVE SMOOTH",
"357 338 OFFCURVE",
"356 328 OFFCURVE",
"354 318 CURVE SMOOTH"
);
},
{
closed = 1;
nodes = (
"264 615 LINE",
"265 621 OFFCURVE",
"242 646 OFFCURVE",
"237 646 CURVE SMOOTH",
"232 646 OFFCURVE",
"160 625 OFFCURVE",
"130 615 CURVE",
"125 585 LINE",
"170 574 LINE",
"74 22 LINE",
"74 15 OFFCURVE",
"95 -9 OFFCURVE",
"101 -9 CURVE SMOOTH",
"108 -9 OFFCURVE",
"188 16 OFFCURVE",
"188 16 CURVE",
"188 38 LINE",
"180 41 OFFCURVE",
"171 48 OFFCURVE",
"171 66 CURVE SMOOTH",
"171 69 OFFCURVE",
"171 73 OFFCURVE",
"172 78 CURVE SMOOTH"
);
}
);
};
layerId = "D9712079-C16A-42CB-8BA4-BD9ECFFACF10";
paths = (
{
closed = 1;
nodes = (
"108 -9 OFFCURVE",
"188 16 OFFCURVE",
"188 16 CURVE",
"188 38 LINE",
"180 41 OFFCURVE",
"171 48 OFFCURVE",
"171 66 CURVE SMOOTH",
"171 69 OFFCURVE",
"171 73 OFFCURVE",
"172 78 CURVE SMOOTH",
"200 243 LINE",
"262 615 LINE",
"263 621 OFFCURVE",
"242 646 OFFCURVE",
"237 646 CURVE SMOOTH",
"232 646 OFFCURVE",
"160 625 OFFCURVE",
"130 615 CURVE",
"125 585 LINE",
"170 574 LINE",
"74 22 LINE",
"74 15 OFFCURVE",
"95 -9 OFFCURVE",
"101 -9 CURVE SMOOTH"
);
},
{
closed = 1;
nodes = (
"334 -9 OFFCURVE",
"412 14 OFFCURVE",
"433 22 CURVE",
"438 52 LINE",
"393 63 LINE",
"435 288 LINE",
"439 312 OFFCURVE",
"441 333 OFFCURVE",
"441 351 CURVE SMOOTH",
"441 424 OFFCURVE",
"406 457 OFFCURVE",
"320 457 CURVE SMOOTH",
"313 457 OFFCURVE",
"254 354 OFFCURVE",
"212 282 CURVE",
"198 282 LINE",
"179 184 LINE",
"232 259 OFFCURVE",
"317 382 OFFCURVE",
"331 382 CURVE SMOOTH",
"351 382 OFFCURVE",
"357 367 OFFCURVE",
"357 346 CURVE SMOOTH",
"357 338 OFFCURVE",
"356 328 OFFCURVE",
"354 318 CURVE SMOOTH",
"299 22 LINE",
"299 15 OFFCURVE",
"320 -9 OFFCURVE",
"326 -9 CURVE SMOOTH"
);
}
);
width = 453;
},
{
anchors = (
{
name = bottom;
position = "{234, 0}";
},
{
name = center;
position = "{214, 523}";
},
{
name = top;
position = "{196, 601}";
}
);
layerId = "16B79A64-180D-495F-8650-CA27198DF3EF";
paths = (
{
closed = 1;
nodes = (
"104 -9 OFFCURVE",
"137 -2 OFFCURVE",
"150 2 CURVE",
"151 15 LINE",
"125 19 OFFCURVE",
"118 20 OFFCURVE",
"118 32 CURVE SMOOTH",
"118 35 OFFCURVE",
"118 38 OFFCURVE",
"119 42 CURVE SMOOTH",
"144 187 LINE",
"216 620 LINE",
"217 623 OFFCURVE",
"204 637 OFFCURVE",
"200 637 CURVE SMOOTH",
"195 637 OFFCURVE",
"168 632 OFFCURVE",
"135 625 CURVE",
"133 610 LINE",
"188 606 LINE",
"84 8 LINE",
"84 3 OFFCURVE",
"97 -9 OFFCURVE",
"101 -9 CURVE SMOOTH"
);
},
{
closed = 1;
nodes = (
"349 -9 OFFCURVE",
"386 -2 OFFCURVE",
"408 3 CURVE",
"410 18 LINE",
"354 22 LINE",
"403 297 LINE SMOOTH",
"407 321 OFFCURVE",
"410 342 OFFCURVE",
"410 362 CURVE SMOOTH",
"410 434 OFFCURVE",
"375 449 OFFCURVE",
"305 449 CURVE SMOOTH",
"295 449 OFFCURVE",
"209 301 OFFCURVE",
"152 207 CURVE",
"143 207 LINE",
"134 150 LINE",
"198 251 OFFCURVE",
"306 423 OFFCURVE",
"314 423 CURVE SMOOTH",
"360 423 OFFCURVE",
"382 408 OFFCURVE",
"382 361 CURVE SMOOTH",
"382 345 OFFCURVE",
"381 329 OFFCURVE",
"378 310 CURVE SMOOTH",
"324 8 LINE",
"324 4 OFFCURVE",
"338 -9 OFFCURVE",
"342 -9 CURVE SMOOTH"
);
}
);
width = 435;
},
{
anchors = (
{
name = bottom;
position = "{243, 0}";
},
{
name = center;
position = "{246, 526}";
},
{
name = top;
position = "{213, 640}";
}
);
background = {
paths = (
{
closed = 1;
nodes = (
"305 615 LINE SMOOTH",
"307 626 OFFCURVE",
"279 665 OFFCURVE",
"270 665 CURVE SMOOTH",
"241 665 OFFCURVE",
"134 648 OFFCURVE",
"100 641 CURVE",
"88 572 LINE",
"134 561 LINE",
"41 40 LINE SMOOTH",
"39 26 OFFCURVE",
"67 -9 OFFCURVE",
"76 -9 CURVE SMOOTH",
"83 -9 OFFCURVE",
"230 6 OFFCURVE",
"230 6 CURVE",
"236 65 LINE",
"228 69 OFFCURVE",
"219 76 OFFCURVE",
"219 94 CURVE SMOOTH",
"219 97 OFFCURVE",
"219 101 OFFCURVE",
"220 106 CURVE SMOOTH"
);
},
{
closed = 1;
nodes = (
"283 40 LINE SMOOTH",
"280 26 OFFCURVE",
"309 -9 OFFCURVE",
"318 -9 CURVE SMOOTH",
"325 -9 OFFCURVE",
"487 12 OFFCURVE",
"487 12 CURVE",
"498 80 LINE",
"458 91 LINE",
"499 308 LINE SMOOTH",
"503 331 OFFCURVE",
"506 351 OFFCURVE",
"506 369 CURVE SMOOTH",
"506 446 OFFCURVE",
"461 476 OFFCURVE",
"357 476 CURVE SMOOTH",
"346 476 OFFCURVE",
"299 387 OFFCURVE",
"260 315 CURVE",
"238 315 LINE",
"219 226 LINE",
"264 273 OFFCURVE",
"300 308 OFFCURVE",
"303 308 CURVE SMOOTH",
"319 308 OFFCURVE",
"324 300 OFFCURVE",
"324 281 CURVE SMOOTH",
"324 271 OFFCURVE",
"322 260 OFFCURVE",
"320 246 CURVE SMOOTH"
);
}
);
};
layerId = "E259E77F-022A-45EF-A0F1-1168268390B3";
paths = (
{
closed = 1;
nodes = (
"83 -9 OFFCURVE",
"230 6 OFFCURVE",
"230 6 CURVE",
"236 65 LINE",
"228 69 OFFCURVE",
"219 76 OFFCURVE",
"219 94 CURVE SMOOTH",
"219 97 OFFCURVE",
"219 101 OFFCURVE",
"220 106 CURVE SMOOTH",
"250 286 LINE",
"300 615 LINE SMOOTH",
"302 626 OFFCURVE",
"274 665 OFFCURVE",
"265 665 CURVE SMOOTH",
"236 665 OFFCURVE",
"134 648 OFFCURVE",
"100 641 CURVE",
"88 572 LINE",
"134 561 LINE",
"41 40 LINE SMOOTH",
"39 26 OFFCURVE",
"67 -9 OFFCURVE",
"76 -9 CURVE SMOOTH"
);
},
{
closed = 1;
nodes = (
"324 -9 OFFCURVE",
"454 6 OFFCURVE",
"487 12 CURVE",
"498 80 LINE",
"458 91 LINE",
"499 308 LINE SMOOTH",
"503 331 OFFCURVE",
"506 351 OFFCURVE",
"506 369 CURVE SMOOTH",
"506 446 OFFCURVE",
"461 476 OFFCURVE",
"357 476 CURVE SMOOTH",
"353 476 OFFCURVE",
"299 379 OFFCURVE",
"260 310 CURVE",
"238 310 LINE",
"219 226 LINE",
"266 273 OFFCURVE",
"300 308 OFFCURVE",
"303 308 CURVE SMOOTH",
"319 308 OFFCURVE",
"324 300 OFFCURVE",
"324 281 CURVE SMOOTH",
"324 271 OFFCURVE",
"322 260 OFFCURVE",
"320 246 CURVE SMOOTH",
"283 40 LINE SMOOTH",
"280 26 OFFCURVE",
"309 -9 OFFCURVE",
"318 -9 CURVE SMOOTH"
);
}
);
width = 496;
}
);
leftKerningGroup = h;
rightKerningGroup = n;
unicode = 0068;
},
{
glyphname = i;
lastChange = "2018-02-12 15:37:00 +0000";
layers = (
{
anchors = (
{
name = bottom;
position = "{113, 0}";
},
{
name = ogonek;
position = "{186, 0}";
}
);
background = {
paths = (
{
closed = 1;
nodes = (
"260 646 LINE",
"183 641 LINE",
"171 537 LINE",
"251 537 LINE",
"272 624 LINE"
);
}
);
};
layerId = "D9712079-C16A-42CB-8BA4-BD9ECFFACF10";
paths = (
{
closed = 1;
nodes = (
"107 -9 OFFCURVE",
"184 13 OFFCURVE",
"208 22 CURVE",
"213 52 LINE",
"168 63 LINE",
"232 426 LINE SMOOTH",
"233 432 OFFCURVE",
"210 457 OFFCURVE",
"205 457 CURVE SMOOTH",
"200 457 OFFCURVE",
"128 436 OFFCURVE",
"98 426 CURVE",
"93 396 LINE",
"138 385 LINE",
"74 22 LINE",
"74 15 OFFCURVE",
"95 -9 OFFCURVE",
"101 -9 CURVE SMOOTH"
);
},
{
closed = 1;
nodes = (
"201 532 OFFCURVE",
"232 537 OFFCURVE",
"258 544 CURVE",
"273 621 LINE",
"274 627 OFFCURVE",
"253 650 OFFCURVE",
"248 650 CURVE SMOOTH",
"243 650 OFFCURVE",
"209 646 OFFCURVE",
"181 638 CURVE",
"170 561 LINE",
"170 555 OFFCURVE",
"189 532 OFFCURVE",
"195 532 CURVE SMOOTH"
);
}
);
width = 231;
},
{
anchors = (
{
name = bottom;
position = "{111, 0}";
},
{
name = ogonek;
position = "{166, 0}";
}
);
background = {
paths = (
{
closed = 1;
nodes = (
"226 624 LINE",
"193 620 LINE",
"187 544 LINE",
"214 544 LINE",
"234 611 LINE"
);
}
);
};
layerId = "16B79A64-180D-495F-8650-CA27198DF3EF";
paths = (
{
closed = 1;
nodes = (
"119 -9 OFFCURVE",
"147 -4 OFFCURVE",
"180 3 CURVE",
"182 18 LINE",
"127 22 LINE",
"199 432 LINE",
"200 435 OFFCURVE",
"186 449 OFFCURVE",
"182 449 CURVE SMOOTH",
"177 449 OFFCURVE",
"149 444 OFFCURVE",
"116 437 CURVE",
"114 422 LINE",
"169 418 LINE",
"97 8 LINE",
"97 3 OFFCURVE",
"110 -9 OFFCURVE",
"114 -9 CURVE SMOOTH"
);
},
{
closed = 1;
nodes = (
"201 541 OFFCURVE",
"210 544 OFFCURVE",
"216 546 CURVE",
"231 610 LINE SMOOTH",
"232 614 OFFCURVE",
"223 624 OFFCURVE",
"219 624 CURVE SMOOTH",
"215 624 OFFCURVE",
"203 621 OFFCURVE",
"195 619 CURVE",
"186 555 LINE",
"186 550 OFFCURVE",
"194 541 OFFCURVE",
"198 541 CURVE SMOOTH"
);
}
);
width = 213;
},
{
anchors = (
{
name = bottom;
position = "{124, 0}";
},
{
name = ogonek;
position = "{211, 0}";
}
);
background = {
paths = (
{
closed = 1;
nodes = (
"290 664 LINE",
"146 657 LINE",
"136 530 LINE",
"282 530 LINE",
"310 634 LINE"
);
}
);
};
layerId = "E259E77F-022A-45EF-A0F1-1168268390B3";
paths = (
{
closed = 1;
nodes = (
"105 -9 OFFCURVE",
"217 8 OFFCURVE",
"251 15 CURVE",
"263 84 LINE",
"217 95 LINE",
"277 427 LINE SMOOTH",
"279 438 OFFCURVE",
"251 477 OFFCURVE",
"242 477 CURVE SMOOTH",
"213 477 OFFCURVE",
"101 460 OFFCURVE",
"67 453 CURVE",
"55 384 LINE",
"101 373 LINE",
"41 40 LINE SMOOTH",
"38 26 OFFCURVE",
"67 -9 OFFCURVE",
"76 -9 CURVE SMOOTH"
);
},
{
closed = 1;
nodes = (
"175 523 OFFCURVE",
"288 537 OFFCURVE",
"288 537 CURVE",
"310 623 LINE",
"312 633 OFFCURVE",
"284 670 OFFCURVE",
"276 670 CURVE SMOOTH",
"247 670 OFFCURVE",
"176 660 OFFCURVE",
"143 654 CURVE",
"134 570 LINE SMOOTH",
"133 556 OFFCURVE",
"160 523 OFFCURVE",
"168 523 CURVE SMOOTH"
);
}
);
width = 263;
}
);
leftKerningGroup = i;
rightKerningGroup = i;
unicode = 0069;
},
